<svg xmlns="http://www.w3.org/2000/svg" width="19.988" height="16.998" viewBox="0 0 19.988 16.998" fill="none">
  <path d="M 2.494 13.42 L 3.574 14.5 L 1.274 16.78 C 0.994 17.07 0.494 17.07 0.214 16.78 C -0.066 16.49 -0.076 16 0.214 15.72 L 2.494 13.42 Z M 16.284 1.42 L 16.284 0 L 9.994 6.29 L 3.704 0 L 3.704 1.42 L 9.284 7 L 5.494 10.81 C 4.314 9.97 2.674 10.07 1.624 11.12 L 5.874 15.37 C 6.924 14.32 7.024 12.68 6.194 11.5 L 16.284 1.42 Z M 19.774 15.72 L 17.494 13.42 L 16.414 14.5 L 18.714 16.78 C 18.994 17.07 19.494 17.07 19.774 16.78 C 20.054 16.49 20.064 16 19.774 15.72 Z M 14.494 10.81 L 11.414 7.71 L 10.704 8.42 L 13.804 11.5 C 12.964 12.68 13.064 14.32 14.114 15.37 L 18.364 11.12 C 17.314 10.07 15.674 9.97 14.494 10.81 Z" fill="currentColor" fill-rule="nonzero"/>
</svg>
