<svg width="173" height="162" viewBox="0 0 173 162" fill="none" xmlns="http://www.w3.org/2000/svg">
<path fill-rule="evenodd" clip-rule="evenodd" d="M163.58 123.645C162.729 118.833 161.948 114.009 161.239 109.175C160.902 106.88 160.573 104.583 160.278 102.281C160.071 100.669 159.756 98.8256 160.853 97.6315C162.396 95.9509 163.797 94.5124 163.986 92.105C164.164 89.8399 163.398 87.3707 162.919 85.172C161.915 80.5613 160.665 76.0075 159.284 71.4969C157.881 66.9141 156.343 62.3745 154.782 57.8436C153.323 53.6072 151.921 49.3328 150.02 45.2683C146.414 37.555 140.312 31.8429 132.772 28.0288C130.896 27.0802 127.071 23.694 125.112 22.9359C123.311 22.2388 123.317 24.2743 121.544 23.5076C120.127 22.8947 118.808 22.0773 118.014 20.7085C117.153 19.2221 114.992 17.1433 114.663 15.4132C113.966 11.7459 114.721 8.62464 112.105 5.86447C109.782 3.4135 106.66 1.73437 103.43 0.833013C96.3237 -1.14981 86.8466 0.236409 82.5592 6.84223C80.5114 9.99689 79.7958 13.81 77.0326 16.3845C74.6197 18.6325 75.1597 20.1694 72.0347 21.3279C71.8576 21.3938 67.0603 20.3643 66.8832 20.4301C63.4645 19.6983 60.1969 21.747 57.0605 22.9359C52.3845 24.708 47.9326 27.0146 43.7502 29.7559C35.3166 35.2839 28.0933 42.462 22.1383 50.5848C16.1341 58.7745 11.4755 67.9541 8.15835 77.548C7.35278 79.8783 6.62919 82.237 5.99095 84.6188C5.6337 85.9517 5.25194 87.3343 5.68694 88.6989C6.04271 89.8153 6.83412 90.6466 7.76349 91.3165C9.02327 92.2246 11.5502 92.8149 11.501 94.6413C11.4634 96.0301 10.9925 97.4914 10.7626 98.8637C10.489 100.498 10.2643 102.142 10.0395 103.783C9.01694 111.254 8.22109 118.768 7.86912 126.302C7.52264 133.721 7.23511 141.292 7.74954 148.708C7.78356 149.197 7.92933 149.646 8.16447 150.026C7.94497 150.11 7.92806 150.519 8.20123 150.577C8.39264 150.618 8.58363 150.658 8.77504 150.699C9.17264 151 9.66849 151.184 10.2391 151.202C10.626 151.214 11.0126 151.232 11.399 151.252C15.4767 152.104 19.5537 152.91 23.6846 153.52C28.706 154.261 33.7422 154.866 38.794 155.357C49.1747 156.366 59.4736 156.032 69.8679 155.488C80.2462 154.944 90.6184 154.817 101.007 155.087C111.406 155.358 121.8 155.81 132.201 155.996C143.82 156.202 155.422 155.885 167.008 154.961C168.596 154.834 169.579 153.57 169.266 151.992C167.389 142.535 165.261 133.142 163.58 123.645Z" fill="#D08B5B"/>
<path fill-rule="evenodd" clip-rule="evenodd" d="M57.0605 22.9358L57.2874 22.8484C60.3545 21.6497 63.5469 19.7157 66.8832 20.4299C67.0012 20.3861 69.1721 20.8288 70.6591 21.1095L69.2477 22.5833L66.7569 23.0627C75.3499 37.2501 85.5129 44.3438 97.2459 44.3438C108.979 44.3438 117.882 37.2501 123.955 23.0627L124.784 22.8333C124.886 22.857 124.995 22.8906 125.112 22.9358C127.071 23.6938 130.896 27.08 132.772 28.0286C140.312 31.8427 146.414 37.5548 150.02 45.2681C151.857 49.1971 153.229 53.3223 154.637 57.4196L154.782 57.8434C156.343 62.3743 157.881 66.9139 159.284 71.4967C160.605 75.8112 161.806 80.1652 162.787 84.5707L162.919 85.1718C163.398 87.3705 164.164 89.8397 163.986 92.1048C163.919 92.9625 163.697 93.6972 163.371 94.3636L146.375 100.481L154.472 155.727C147.055 156.045 139.631 156.128 132.201 155.995C121.8 155.81 111.406 155.358 101.007 155.087C90.9332 154.825 80.8749 154.937 70.8114 155.439L68.2557 155.57C58.4079 156.063 48.6378 156.314 38.794 155.357L38.1233 155.291V155.291L38.1232 147.21L41.581 102.211L24.0575 98.911L6.85569 90.5529C6.33595 90.0332 5.91887 89.4265 5.68694 88.6988C5.28405 87.4348 5.58179 86.1555 5.91178 84.9145L5.99095 84.6186C6.62919 82.2368 7.35278 79.8782 8.15835 77.5478C11.4755 67.9539 16.1341 58.7744 22.1383 50.5846C28.0933 42.4618 35.3166 35.2837 43.7502 29.7558C47.9326 27.0144 52.3845 24.7078 57.0605 22.9358Z" fill="#EC7495"/>
<path fill-rule="evenodd" clip-rule="evenodd" d="M63.6413 20.1973C64.7158 20.1506 65.8115 20.3245 66.8834 20.43C66.9768 20.4391 67.0123 20.5832 66.9071 20.6052C64.9886 21.0061 63.0912 21.5547 61.207 22.1117L60.4003 22.3505C58.2756 22.9793 56.2132 23.6279 54.1563 24.4666C50.0568 26.1379 46.1634 28.3939 42.5801 30.9857C28.7818 40.9659 18.7951 56.0761 12.493 71.7205C10.7815 75.9691 9.3314 80.3233 8.15675 84.7509C7.87112 85.8281 7.60239 86.9096 7.3476 87.9945C7.27281 88.3126 6.94682 89.1271 7.12556 89.4526C7.28358 89.7402 7.89795 89.918 8.18337 90.0676L9.14699 90.5675C11.0266 91.5366 14.1576 93.1296 14.4715 93.2848L14.9612 93.526C22.9705 97.454 31.5284 100.785 40.5413 101.015L40.6119 100.245V100.245C41.0137 95.9886 41.541 91.7092 42.692 87.5832C42.7539 87.3615 43.036 87.4363 43.0618 87.6333C43.7029 92.5178 43.498 97.4404 43.2743 102.347C42.8782 111.039 42.3521 119.725 41.8846 128.413C41.6505 132.759 41.348 137.102 41.0748 141.445C40.8012 145.798 40.7127 150.255 40.0879 154.571C39.9487 155.533 38.8222 156.056 37.9691 155.955C37.0252 155.843 36.2991 155.011 36.2946 154.058C36.2832 151.543 36.5991 148.999 36.7746 146.49C36.9413 144.107 37.1203 141.725 37.3037 139.343C37.9738 130.65 38.7447 121.967 39.4577 113.278C39.7104 110.196 39.9834 107.117 40.2644 104.038C30.7165 103.73 21.7966 100.192 13.2872 96.0588C13.164 98.8564 12.8665 101.649 12.5786 104.435C11.7747 112.21 11.0659 119.981 10.5354 127.78C10.2675 131.719 10.0725 135.663 9.90267 139.607C9.81922 141.546 9.75119 143.485 9.69901 145.424C9.68154 146.071 9.66577 146.717 9.65181 147.364L9.62278 148.845C9.59903 149.784 9.50366 150.653 8.71429 151.336C7.91253 152.03 6.82957 152.067 6.03605 151.336C4.9738 150.358 5.16161 149.024 5.19309 147.71C5.21929 146.602 5.25077 145.493 5.28732 144.385C5.36063 142.169 5.45422 139.953 5.56809 137.738C5.96657 129.995 6.76274 122.283 7.80323 114.602L8.2094 111.637C8.96791 106.125 9.80065 100.488 11.4963 95.1778C10.836 94.8494 10.1777 94.5186 9.52196 94.1864C8.35872 93.5972 7.15598 93.0443 6.02527 92.3939C5.12823 91.878 4.35457 91.1704 4.10485 90.1262C3.82635 88.9626 4.25222 87.6901 4.53514 86.5552L4.55971 86.4554C4.83711 85.3124 5.13584 84.1745 5.45105 83.0415C6.72922 78.4469 8.30971 73.942 10.1594 69.547C13.8629 60.748 18.6432 52.3889 24.4825 44.8308C29.7386 38.0275 35.9477 31.8577 43.2251 27.2304C46.7828 24.9681 50.5742 23.1106 54.5839 21.7972C56.458 21.1835 58.4972 20.6496 60.4594 20.4298C61.5179 20.3114 62.5778 20.2436 63.6413 20.1973ZM82.6794 6.25459C83.9563 4.88293 86.4932 6.30236 85.8801 8.1187C84.438 12.392 82.1415 16.2899 78.5576 19.0979C75.1887 21.7377 71.1715 23.452 66.8451 23.0861C66.8117 23.0831 66.7828 23.0747 66.7572 23.0626L67.1301 23.5685C70.0571 27.5295 73.145 31.4357 76.8668 34.6732C84.4498 41.2696 94.7745 44.8275 104.744 42.2966C112.588 40.3054 119.499 34.1004 121.531 26.1925C121.24 26.3231 120.893 26.3677 120.513 26.2851C118.887 25.9319 117.277 24.2211 116.229 22.9944C115.094 21.6673 114.208 20.2344 113.559 18.6146C112.37 15.6502 111.989 11.8334 113.612 8.96178C113.812 8.60777 114.274 8.80623 114.313 9.15178L114.375 9.69118C114.688 12.3824 115.078 14.9857 116.346 17.439C116.967 18.6395 117.711 19.8112 118.617 20.8166C119.101 21.3545 119.627 21.8685 120.194 22.3195C120.747 22.7589 121.416 23.0767 121.911 23.5809L122.002 23.6777L122.005 23.6603C122.13 22.5949 122.877 22.1255 123.607 22.1549C124.315 22.1833 125.145 22.4947 125.467 22.6439L125.497 22.6583C130.431 25.0274 134.975 28.1155 139.251 31.5416C148.094 38.6269 154.719 47.8893 157.929 58.7967C159.505 64.1499 160.409 69.666 161.363 75.1563L161.951 78.5202C162.842 83.5887 163.837 88.7569 165.848 93.4719C166.368 94.6916 165.967 95.8354 164.691 96.315C163.099 96.9139 161.5 97.4939 159.899 98.0666C160.686 101.44 161.165 104.931 161.754 108.322C163.006 115.528 164.54 122.689 165.855 129.886C166.528 133.567 167.134 137.259 167.806 140.939C168.13 142.712 168.467 144.481 168.796 146.253C168.972 147.208 169.133 148.167 169.302 149.123L169.331 149.282C169.428 149.787 169.549 150.309 169.41 150.814C169.252 151.389 168.803 151.796 168.402 152.209C168.071 152.549 167.594 152.551 167.19 152.366L167.057 152.304C166.334 151.966 165.768 151.629 165.512 150.814C165.349 150.297 165.291 149.716 165.185 149.184C164.981 148.164 164.788 147.143 164.606 146.119C164.242 144.07 163.886 142.02 163.539 139.968L163.214 138.047C162.101 131.426 161.044 124.764 160.509 118.073C160.272 115.104 160.021 112.138 159.767 109.172L159.577 106.947C159.336 104.13 159.041 101.243 159 98.3885L158.042 98.7285V98.7285L153.371 100.381V100.381C152.213 100.79 150.738 101.629 149.492 101.476C148.882 101.402 148.417 101.209 148.057 100.86C148.488 106.933 149.07 112.995 149.846 119.026C150.552 124.514 151.335 129.995 152.259 135.45C152.717 138.152 153.187 140.851 153.698 143.543C153.954 144.889 154.218 146.233 154.489 147.576C154.625 148.246 154.786 148.916 154.892 149.592C155.012 150.365 154.799 150.841 154.367 151.478C154.013 152 153.303 152.269 152.728 151.908C151.966 151.43 151.568 151.016 151.344 150.145C151.141 149.354 151.017 148.528 150.859 147.726C150.568 146.247 150.287 144.767 150.016 143.284C149.448 140.183 148.925 137.074 148.457 133.956C146.811 122.973 145.766 111.897 145.238 100.804C144.977 95.3303 144.897 89.8521 144.943 84.373C144.967 81.5646 145.058 78.7482 145.257 75.9467C145.458 73.111 145.877 70.332 146.25 67.5236C146.263 67.4247 146.403 67.4189 146.408 67.5236C146.585 70.6723 146.863 73.8174 146.998 76.9743C147.128 79.9867 147.185 83.0037 147.288 86.0171C147.423 89.9783 147.611 93.9417 147.86 97.9024C148.31 97.4098 148.989 97.1257 149.668 97.2367C150.651 97.0302 151.71 96.5138 152.648 96.2004L156.183 95.019V95.019C158.042 94.398 159.9 93.7813 161.766 93.1832C160.098 87.5711 158.956 81.8754 157.98 76.0967L157.545 73.4978C156.684 68.3823 155.756 63.2644 154.196 58.3106C152.557 53.1025 150.103 48.2605 146.848 43.8756C143.639 39.5541 139.736 35.7489 135.717 32.1898C132.276 29.143 128.595 26.392 125.085 23.4289C125.122 23.6253 125.13 23.8415 125.098 24.079C124.351 29.5424 121.502 34.6303 117.532 38.4145C109.556 46.017 97.7485 47.5943 87.5396 44.0292C77.6643 40.5808 68.9333 32.4138 65.8486 22.3077C65.7957 22.1348 66.0273 22.0661 66.1203 22.1932C66.2914 22.4278 66.4634 22.6623 66.6355 22.8969C66.6239 22.8037 66.6723 22.7023 66.7872 22.6579C70.3864 21.2676 73.9207 19.296 76.6186 16.5068C77.9335 15.1472 79.0811 13.6068 79.987 11.9456C80.421 11.1499 80.8107 10.3258 81.1217 9.4743L81.2008 9.254C81.5777 8.18732 81.8926 7.09963 82.6794 6.25459Z" fill="black"/>
</svg>
