<svg width="173" height="165" viewBox="0 0 173 165" fill="none" xmlns="http://www.w3.org/2000/svg">
<path fill-rule="evenodd" clip-rule="evenodd" d="M161.441 92.1723C161.441 90.4622 159.075 87.4266 159.071 85.8775C161.06 85.5218 162.723 82.8256 162.282 81.1371C161.506 80.5434 159.471 79.3747 158.629 78.8289C153.501 78.9845 155.45 71.8475 154.87 68.2197C154.285 64.6703 153.851 60.959 152.996 57.3895C151.477 54.5333 150.764 51.3313 149.313 48.4895C148.664 47.5477 147.616 46.6844 147.303 45.5902C144.126 42.1198 139.754 40.0397 136.156 37.1005C137.552 36.6533 137.459 34.7691 137.369 33.5591C137.694 31.9805 137.347 30.0006 135.907 29.1112C135.421 27.5261 133.295 26.9728 132.052 27.9826C131.236 24.3214 128.041 22.1001 124.695 20.7415C124.698 20.7308 124.7 20.7202 124.704 20.7094C121.329 19.3695 117.283 18.7014 113.916 19.4547C115.693 -0.359147 100.524 -1.08647 92.8249 0.578631C88.8871 1.43033 82.9785 4.0819 81.6362 7.76804C80.8784 9.84912 78.7038 16.5608 78.3942 18.7014C72.5153 15.3454 65.6999 10.9201 60.6007 17.6765C59.5796 18.854 58.4498 19.7285 56.9219 20.1331C52.1515 21.3714 45.8198 21.4128 43.1084 26.2776C41.4877 29.2915 42.9453 31.2773 42.5099 34.2923C21.036 49.3782 3.0907 104.953 7.12 130.809C8.0893 140.061 12.8217 156.439 24.5025 154.397C30.4602 160.916 130.458 160.916 140.77 154.397C149.257 156.618 157.882 153.18 161.441 145.047C165.961 133.896 161.171 121.853 160.322 110.414C159.807 107.526 159.039 105.233 158.629 102.277C158.458 101.044 159.048 98.9947 158.629 97.859C158.827 97.1198 161.441 93.8825 161.441 92.1723Z" fill="#D08B5B"/>
<path fill-rule="evenodd" clip-rule="evenodd" d="M76.9556 17.3378L77.3083 17.4888L78.5192 18.0139L78.2653 18.5963C77.5509 20.2355 76.7479 21.8125 75.8677 23.2971L75.7017 23.5744L75.4472 23.9956L75.4601 24.0099C75.5699 24.1316 75.6818 24.2576 75.7962 24.3882L89.1229 38.7131C94.7443 44.7504 97.7121 47.9269 98.0263 48.2426C99.3367 49.5595 100.625 49.7239 101.804 48.6131L101.937 48.4872L102.155 48.2767L102.304 48.1305C103.074 47.37 103.839 46.5289 104.939 45.2603L117.248 27.7927L116.47 26.0551C115.043 22.846 114.264 20.9697 114.133 20.4263L114.073 20.1597L113.95 19.5863L114.512 19.4189C116.539 18.815 118.782 18.9733 121.327 19.7263L121.474 19.7704L121.898 19.9015C123.622 20.4376 124.599 20.7981 125.599 21.3323C126.959 22.0593 127.964 22.9619 128.591 24.1384C129.312 25.4923 129.864 26.1727 130.793 26.723L130.866 26.7654L130.956 26.8161L131.051 26.8674C131.133 26.911 131.225 26.9572 131.334 27.0112L131.725 27.1998C132.956 27.7903 133.522 28.1685 134.007 28.9143C134.542 29.7375 134.633 30.5083 134.467 31.6234L134.453 31.7198L134.427 31.8775L134.326 32.4568L134.302 32.6038C134.237 33.0184 134.226 33.3831 134.273 33.6897L134.285 33.7594L134.554 35.1942L134.019 34.8542L135.5 36.0616C137.572 37.7587 138.807 38.8117 140.099 39.9993L140.456 40.3296L140.526 40.395C142.853 42.5663 144.743 44.6601 146.325 46.895C148.041 49.3182 149.495 51.9684 150.669 54.7911L150.802 55.1143L150.813 55.1566C152.571 62.0512 153.984 69.0353 155.047 76.0869L155.149 76.7695L155.665 80.2692L153.966 77.1666C153.702 76.6837 152.97 76.2054 152.056 75.8488L151.97 75.8158L151.908 75.7924L151.777 75.7457C150.775 75.3969 149.765 75.3639 148.818 75.6575L148.72 75.6891L148.433 75.7855L148.178 75.6223C147.707 75.3215 147.179 75.0671 146.6 74.8577L146.454 74.8063L145.843 74.5965L146.064 73.9891C146.232 73.53 145.925 72.6288 145.482 72.2421C144.792 71.6433 143.8 71.4755 142.26 71.5889L142.051 71.6057L141.886 71.6207L141.638 71.6452L140.856 71.7291L140.856 71.7328C140.847 71.8678 140.841 71.9918 140.838 72.109L140.837 72.1956L140.837 72.28C140.84 72.571 140.865 72.8399 140.914 73.0908L140.936 73.1972L141.112 73.9841L140.306 73.9698L139.955 73.9646C138.778 73.9504 137.542 73.9689 136.087 74.0169L134.651 74.0704L130.988 74.2254L127.774 74.3382L126.816 74.3702L126.771 73.764C126.71 72.9641 126.027 72.4328 124.816 72.197L124.738 72.1823L123.472 71.9533L124.512 71.0099L124.596 70.9309L124.683 70.8462C125.518 70.0139 125.799 69.2514 125.455 68.5146C125.052 67.6512 123.811 67.3986 122.671 67.8678L122.592 67.9007L122.511 67.9369C122.297 68.0362 122.084 68.161 121.744 68.38L121.311 68.6623L121.153 68.7628C120.778 68.9999 120.529 69.1337 120.215 69.2635C119.383 69.6078 118.607 69.6318 117.333 69.4728L117.219 69.4583L116.949 69.4223L116.259 69.3261L116.088 69.3036L115.915 69.2821C114.613 69.1271 113.788 69.2109 113.092 69.6557C112.647 69.9402 112.395 70.3044 112.006 71.1546L111.821 71.5647L111.739 71.7407C111.271 72.7376 110.916 73.2161 110.217 73.6311C109.771 73.8968 109.348 74.0555 108.601 74.2727L108.069 74.4263L107.881 74.4833C107.767 74.5188 107.672 74.5505 107.572 74.5863C106.759 74.8755 106.023 75.291 105.332 75.8482L105.224 75.9355L105.108 76.0326C104.435 76.6008 103.86 77.2163 102.878 78.3708L102.162 79.2152L101.908 79.5113L101.698 79.752C101.675 79.7775 101.653 79.8028 101.631 79.8279L101.431 80.0505C99.8728 81.7614 98.3142 83.3387 96.7267 84.801L96.3935 85.1057L96.0504 85.4147L95.7681 85.6652C94.8447 86.4787 93.8476 87.3019 92.2986 88.546L90.3786 90.0847L89.7747 90.5722C87.9605 92.0421 86.8554 92.9903 85.7294 94.061L85.4501 94.3286L85.4303 94.4433C85.4195 94.5075 85.4077 94.5815 85.3948 94.6643C85.3948 94.6643 84.2957 101.448 85.2936 107.011C86.2915 112.574 86.6451 110.313 87.655 111.678L87.889 111.992C88.4428 112.729 88.8699 113.251 89.333 113.735L89.88 114.3L90.5092 114.81L90.9065 115.051C91.1936 115.224 91.4799 115.36 91.7668 115.458C92.1626 115.594 92.6914 115.326 92.9513 114.853L92.9756 114.807L93.145 114.467L93.5245 114.456C93.6135 114.454 93.7041 114.44 93.7927 114.415C94.6909 114.168 95.1378 113.098 94.6986 112.267L94.6743 112.223L94.4468 111.818L94.3301 111.615C94.1627 111.328 94.0078 111.085 93.8511 110.871L93.7922 110.793L92.9188 109.643L95.1175 109.849L95.2973 109.866L95.5444 109.893L96.3362 109.983C97.1603 110.075 97.9561 110.159 98.7323 110.235L99.3932 110.298L100.549 110.404L100.787 110.428L101.3 110.482L102.53 110.615L102.969 110.66L103.213 110.684C103.448 110.706 103.658 110.724 103.87 110.74L104.102 110.756C105.874 110.877 107.256 110.797 108.512 110.443C110.553 109.865 112.606 108.672 114.829 106.907C117.1 105.103 118.743 103.404 119.732 101.641C119.75 101.607 119.753 101.581 119.74 101.549L119.731 101.529L119.355 100.84L120.108 100.618C120.709 100.44 121.22 100.214 121.649 99.9239C122.969 99.0352 123.411 97.2566 122.454 96.327L122.411 96.2871L122.353 96.2344L121.544 95.0221L122.714 94.8495C123.105 94.7891 123.449 94.7208 123.77 94.6371C125.907 94.0814 127.006 92.3762 126.059 90.7354L126.028 90.6819L125.646 90.05L126.328 89.7678C126.474 89.7073 126.625 89.6503 126.793 89.5916L126.895 89.5561L126.998 89.5214L127.381 89.3944C128.192 89.1269 128.986 88.9232 129.778 88.7841C130.403 88.6766 131.029 88.6072 131.656 88.5759L131.891 88.5659L132.153 88.5568L132.155 88.5491L132.308 88.5513L132.844 88.5328L132.833 88.5604C133.629 88.58 134.428 88.6576 135.227 88.7922L135.416 88.8246C135.694 88.8733 135.958 88.9236 136.24 88.9811L137.46 89.2398C137.682 89.2858 137.875 89.3236 138.067 89.3581L138.253 89.3904L140.218 89.7228L138.422 90.587L138.376 90.61L138.33 90.6341L138.132 90.7435C136.911 91.4334 136.189 92.2203 136.019 93.1911C135.755 94.7057 136.616 95.403 138.646 95.6386L138.816 95.6569L138.995 95.6735L139.112 95.6829L144.196 96.0274L139.382 96.9513C138.217 97.1751 137.039 97.4775 135.849 97.8547C135.757 97.8838 135.657 97.9198 135.549 97.9629L135.466 97.9965L134.977 98.1993L134.507 98.5386C133.683 99.1501 133.453 99.7566 133.865 100.359L133.893 100.399L134.148 100.748L133.916 101.113C133.251 102.161 133.338 103.496 134.133 104.581C134.797 105.486 135.87 106.063 137.334 106.393L137.448 106.418L137.769 106.487L138.239 106.56L138.579 106.607L138.84 106.638L139.016 106.656L139.287 106.681L140.026 106.743C141.076 106.833 141.615 106.905 142.262 107.067C143.131 107.283 143.896 107.636 144.913 108.238L145.032 108.309L145.283 108.46L145.769 108.759L146.239 109.052L146.398 109.149L146.594 109.268C148.043 110.133 148.998 110.458 150.003 110.306C150.641 110.21 151.177 109.976 151.652 109.605L151.727 109.545L152.456 108.945L152.434 108.823L152.593 108.605C152.897 108.187 154.191 105.749 154.192 105.748C155.027 104.281 155.832 103.268 156.849 102.597L156.937 102.541L157.136 102.418L157.365 102.37L157.48 102.388C157.815 102.44 157.914 102.589 158.008 102.841C158.033 102.905 158.052 102.976 158.071 103.062L158.088 103.147L158.106 103.245L158.134 103.413L158.163 103.611L158.197 103.854L158.232 104.135C158.26 104.362 158.291 104.625 158.325 104.935L158.709 108.467L158.814 109.405L158.911 110.241C158.919 110.309 158.927 110.377 158.935 110.444L159.018 111.121L159.108 111.83C159.341 113.616 159.571 115.052 159.81 116.142L159.853 116.338L159.883 116.465L159.959 116.791C161.327 122.648 162.02 127.485 162.054 132.33C162.085 137.539 160.95 142.188 158.487 146.02C156.139 149.676 152.712 152.33 148.85 153.245C146.815 153.726 144.796 153.621 143.168 152.811C142.871 152.663 142.66 152.512 142.275 152.19L142.147 152.082C141.639 151.651 141.414 151.501 141.144 151.438C141.11 151.43 141.078 151.424 141.046 151.42L141 151.415L140.425 151.371L140.414 150.794C140.393 149.564 139.806 149.083 139.861 151.002C139.861 151.002 139.967 153.768 139.996 154.116L140.016 154.346L140.024 154.426L139.684 155.613C124.852 161.279 38.8683 161.378 25.6021 155.835L25.2225 155.665L22.8767 154.539C22.8767 154.539 27.5776 153.444 24.3634 153.85C20.9154 154.286 16.9013 152.172 14.7257 148.613L13.9326 147.304L13.6898 146.898L13.5553 146.669C13.2319 146.116 13.0016 145.692 12.7577 145.205C11.7739 143.24 10.957 141.125 10.2853 138.85C9.03543 134.617 8.38065 130.031 8.18517 124.844C7.83138 115.463 8.79919 105.561 10.9364 95.244C13.0092 85.237 16.1504 75.5104 20.295 66.3127C22.3668 61.7149 24.6505 57.3176 27.1542 53.1257L27.4233 52.6773L27.7163 52.193L28.0171 51.6994L28.3194 51.2074L28.5951 50.7629L28.8728 50.3193L29.153 49.8765C31.7107 45.8557 33.9847 42.8886 36.6132 40.3287C38.949 38.0541 41.4097 35.7463 43.9954 33.4054L43.9398 32.4254L43.9376 32.4073C43.8828 32.0848 42.9093 29.3294 43.8929 27.1826L44.005 26.9415C44.895 25.0567 45.0245 25.5414 45.8761 24.947L45.911 24.9223C47.7785 23.5842 50.1583 22.6668 52.98 22.0549C53.7037 21.8979 54.3849 21.8277 55.3445 21.7895L55.4771 21.7845L55.651 21.7786L56.3972 21.7559C57.8032 21.7109 58.8574 21.2149 59.6703 20.1885L59.7306 20.1112L59.7914 20.0305L59.8485 19.9522C60.0469 19.6747 60.2367 19.3579 60.5427 18.8138L60.7524 18.4418L60.8531 18.2659L60.9563 18.0889C61.3073 17.4935 61.5564 17.1431 61.9086 16.76C62.9723 15.6028 64.6227 14.9235 66.3627 14.8103C69.4482 14.6089 72.4858 15.4365 76.9556 17.3378ZM117.449 76.8678L117.198 78.1052C117.174 78.2221 117.161 78.3368 117.159 78.4485L117.16 78.5318L117.178 79.0962L116.619 79.179C116.168 79.2459 115.72 79.3158 115.276 79.3887L114.834 79.4624L110.666 80.1696L114.477 78.2544L114.554 78.2166L114.575 78.2059L114.722 78.136L115.18 77.9229L116.307 77.4052L117.449 76.8678Z" fill="#78E185"/>
<path fill-rule="evenodd" clip-rule="evenodd" d="M114.172 13.0507C114.409 14.0625 114.193 15.2031 114.232 16.2415C114.27 17.2338 114.387 18.2204 114.56 19.1981C116.373 18.244 118.515 18.1215 120.581 18.4286C123.254 18.8259 126.347 19.7051 128.442 21.4914C128.959 21.9327 129.387 22.4552 129.746 23.0311C130.177 23.7222 130.451 24.503 131.134 24.9982C132.19 25.7643 133.499 26.0608 134.514 26.9098C135.549 27.7753 136.192 29.0692 136.327 30.4045C136.4 31.1153 136.283 31.7798 136.148 32.473C136.027 33.0967 136.086 33.3526 136.251 33.9531C136.379 34.4244 136.134 34.9593 135.733 35.2193C136.592 35.8096 137.44 36.4181 138.273 37.0513C143.128 40.7372 147.233 45.332 150.079 50.7383L150.148 50.8726L150.227 51.034C150.921 52.4593 152.736 56.6264 152.961 57.5632C153.122 58.0525 153.278 58.5437 153.423 59.0378C153.807 60.3475 154.132 61.6733 154.401 63.0101L154.473 63.3749C154.692 64.4976 155.068 65.8275 155.008 67.0241C155.638 70.2912 156.196 73.572 156.673 76.8665C156.735 77.2981 156.563 77.6487 156.297 77.8814C156.934 77.9839 157.567 78.1099 158.194 78.2369L158.558 78.3134L158.74 78.3537C160.045 78.6481 161.332 79.0767 162.187 80.1729C163.108 81.3587 163.127 82.8826 162.201 84.0767C161.416 85.0912 160.268 85.5731 159.07 85.8774C158.834 85.9366 158.595 85.9915 158.356 86.0399C158.196 86.0738 158.09 85.8542 158.242 85.7696L158.496 85.6291L158.843 85.4389C159.746 84.941 160.683 84.379 161.183 83.4807C161.861 82.2612 161.325 81.1324 160.161 80.5133C159.186 79.9944 157.981 79.8615 156.898 79.6842L156.452 79.6103C155.32 79.4297 154.166 79.3123 153.024 79.4416C152.025 79.5557 151.013 79.8962 150.206 80.5068L150.131 80.5656L150.054 80.6305C149.346 81.2442 148.328 82.6226 149.663 83.02C150.683 83.3217 151.927 83.2468 152.999 83.3053L153.138 83.3137C154.036 83.375 154.974 83.375 155.882 83.4828C156.208 83.5206 156.529 83.5735 156.844 83.6477C157.746 83.8611 157.435 85.0616 156.641 85.1461C156.446 85.1673 156.248 85.1776 156.049 85.1821C155.53 85.5731 154.811 85.7506 154.197 85.9934C153.609 86.2261 153.02 86.4565 152.426 86.6827C152.938 86.7059 153.449 86.7482 153.958 86.8116C154.123 86.8304 154.125 87.0525 153.958 87.0694C152.732 87.1941 151.507 87.3294 150.286 87.5004C148.395 87.7626 146.517 88.1135 144.681 88.648C143.339 89.0405 142.014 89.5077 140.728 90.0531L140.339 90.2204L140.179 90.2905C139.012 90.7964 137.503 91.3884 136.832 92.503C136.482 93.0842 136.328 93.9825 136.822 94.5385C137.351 95.1374 138.458 95.069 139.199 95.0981L139.258 95.1007C140.826 95.1768 142.395 95.1872 143.965 95.1324C147.254 95.0162 150.546 94.6569 153.776 94.0248C154.372 93.9087 154.63 94.8027 154.03 94.9422C150.219 95.8278 146.367 96.3137 142.458 96.3363L142.03 96.3371C140.507 96.6284 139.013 97.0627 137.532 97.553L137.236 97.6517C136.361 97.9474 134.868 98.2414 134.352 99.1098C134.01 99.6868 134.13 100.082 134.469 100.351C135.064 100.822 136.332 100.911 136.949 100.934C139.42 101.027 141.894 101.044 144.368 100.991C145.604 100.963 146.84 100.919 148.076 100.856C149.285 100.792 150.575 100.613 151.78 100.729C152.297 100.78 152.471 101.54 151.909 101.682C150.424 102.058 148.758 102.026 147.224 102.074L147.047 102.08C145.399 102.138 143.75 102.164 142.102 102.16C140.687 102.154 139.273 102.126 137.86 102.074L136.611 102.024L136.39 102.014C135.724 101.978 135.044 101.901 134.454 101.627C133.909 102.54 134.316 103.764 135.02 104.487C135.689 105.176 136.655 105.514 137.58 105.725C137.667 105.744 137.754 105.763 137.84 105.78C139.873 106.194 141.943 106.159 143.845 107.093C145.444 107.879 146.908 109.189 148.699 109.5C150.301 109.779 151.465 109.073 152.318 107.767C152.365 107.695 152.411 107.623 152.456 107.551C153.127 106.469 153.611 105.277 154.319 104.216C154.68 103.675 155.088 103.155 155.587 102.733C155.811 102.54 157.378 101.708 157.623 101.458C158.678 100.376 157.744 98.0998 158.019 96.7429C158.339 95.1639 159.728 94.6083 160.56 93.3844C162.142 91.0555 157.803 88.8741 159.1 86.3274C159.117 86.2959 159.138 86.2726 159.165 86.2576C159.28 86.1963 159.461 86.2726 159.451 86.4227C159.307 88.3206 161.116 89.6268 161.769 91.2709C162.512 93.1415 161.325 94.2744 160.112 95.5234C158.557 97.1276 159.651 98.9241 159.305 100.856C159.26 101.109 159.187 101.332 159.093 101.532C159.359 101.697 159.564 101.97 159.609 102.351C160.142 106.874 160.715 111.383 161.651 115.843L161.851 116.791L162.119 118.055C162.786 121.217 163.409 124.392 163.527 127.624C163.899 130.352 164.046 133.103 163.826 135.849C163.159 144.208 158.487 152.954 150.001 155.519C148.036 156.113 145.953 156.267 143.937 155.851C143.247 155.71 142.279 155.397 141.411 154.923C141.462 155.48 141.503 156.037 141.52 156.593C141.807 156.912 141.936 157.394 141.773 157.805C141.081 157.578 140.452 157.217 139.885 156.723L139.792 156.64C139.456 155.392 139.358 154.026 139.309 152.711L139.296 152.337C139.283 151.973 139.275 151.616 139.262 151.267C139.19 149.097 139.241 146.922 139.353 144.753L139.435 143.157C139.624 139.434 139.777 135.719 139.674 131.986C139.556 127.689 139.188 123.411 138.728 119.138C138.489 116.933 138.219 114.733 137.942 112.533C137.72 110.762 137.348 108.855 137.342 107.029C135.92 106.725 134.523 106.141 133.649 104.948C132.721 103.682 132.584 102.063 133.408 100.765C132.611 99.6744 133.264 98.6472 134.249 97.954C132.736 97.1062 131.893 94.7941 131.669 93.1859C131.517 92.0824 131.469 90.4318 131.939 89.1912C131.264 89.2146 130.588 89.2844 129.911 89.4006C129.13 89.538 128.363 89.7386 127.606 89.9882L127.223 90.1149C127.03 90.1796 126.813 90.256 126.596 90.3453C127.964 92.6066 126.208 94.6569 123.956 95.2423C123.527 95.3541 123.09 95.4326 122.648 95.4957C121.653 95.6333 120.637 95.6754 119.65 95.7665C117.761 95.9396 115.862 96.1871 113.967 96.2674C113.551 96.2864 113.283 96.092 113.156 95.8212C113.152 95.8172 113.15 95.8149 113.15 95.8109C113.105 95.739 113.075 95.6627 113.065 95.5826C113.071 95.589 113.08 95.5932 113.086 95.5974C112.995 95.09 113.3 94.473 113.967 94.3991C116.703 94.0903 119.477 94.0757 122.221 93.8495L122.397 93.8349C123.258 93.7606 124.273 93.6238 124.955 93.0781C125.589 92.5709 125.646 91.9112 125.392 91.3155C125.388 91.33 125.384 91.3469 125.382 91.3619C125.363 91.4801 125.2 91.4761 125.147 91.3934C124.989 91.1527 124.949 90.9158 124.989 90.6875C124.799 90.4679 124.569 90.2733 124.319 90.1232C123.214 89.4513 121.761 89.2675 120.504 89.0686C119.128 88.8511 117.742 88.7516 116.354 88.6863C113.623 88.5571 110.882 88.7792 108.195 89.2694C108.083 89.2886 108.037 89.1322 108.147 89.0963C109.194 88.7494 110.265 88.458 111.349 88.2276C111.324 88.2232 111.299 88.2192 111.273 88.2126C111.178 88.1894 111.111 88.0733 111.142 87.9803C111.146 87.9653 111.153 87.9508 111.159 87.9381C110.699 87.7267 110.507 87.0166 111.064 86.7291C112.803 85.8309 114.844 85.4249 116.752 85.055C118.583 84.7021 120.434 84.4548 122.287 84.2352C125.42 83.8675 128.836 83.8759 131.851 82.8866L131.975 82.845C133.202 82.4214 134.668 81.5632 134.754 80.1139C134.88 77.922 131.625 78.4928 130.268 78.5457C126.557 78.6873 122.849 78.9451 119.154 79.3425C118.399 79.4228 117.645 79.505 116.891 79.5897C115.735 79.7184 114.578 79.8539 113.424 79.9974C112.78 80.078 112.121 80.1836 111.457 80.2851C111.25 80.3358 111.047 80.3717 110.845 80.3908C110.83 80.3927 110.817 80.3886 110.807 80.3823C109.841 80.5176 108.871 80.6209 107.929 80.5915C107.821 80.5894 107.754 80.4201 107.868 80.3694C109.085 79.8539 110.439 79.5496 111.797 79.3105C112.638 78.683 113.654 78.18 114.489 77.6939C115.634 77.0261 116.946 76.0433 118.245 75.6438C118.83 75.1831 119.494 74.8132 120.104 74.5617C119.929 74.2891 119.866 73.9105 119.897 73.5916C120.014 72.4482 120.928 71.8097 121.985 71.5857C122.312 71.5183 122.69 71.4675 123.094 71.4485C123.102 71.2351 123.197 71.0258 123.408 70.8694L123.471 70.8221L123.515 70.7868C124.224 70.2108 125.632 68.589 123.937 68.4706C123.037 68.407 122.276 69.0666 121.56 69.5126C120.073 70.4404 118.634 70.4867 116.935 70.2563L116.172 70.1467L116.045 70.1296C114.817 69.9684 113.571 69.9462 112.885 71.1989C112.15 72.5391 111.892 73.7607 110.409 74.4983C108.992 75.2021 107.418 75.3416 106.116 76.3096C104.722 77.345 103.674 78.7991 102.533 80.0883C100.017 82.9289 97.1375 85.4378 94.1713 87.7965L93.6437 88.2148C90.912 90.3744 88.0923 92.5007 85.034 94.1644C85.0129 94.1748 84.9916 94.1792 84.9727 94.1792C84.8904 94.1708 84.8289 94.0651 84.903 93.9933C88.4756 90.5208 92.6544 87.7056 96.3239 84.3261C97.9507 82.8276 99.4993 81.2507 100.989 79.6151C102.29 78.18 103.444 76.5674 104.961 75.3458C105.698 74.7517 106.495 74.2975 107.386 73.9805C108.219 73.6823 109.152 73.5343 109.919 73.0778C111.421 72.1861 111.276 70.0726 112.778 69.1129C114.066 68.2898 115.635 68.5906 117.063 68.7859L117.233 68.8088C118.159 68.9313 119.116 69.0349 119.999 68.6693C120.873 68.3079 121.577 67.6315 122.458 67.2722C123.685 66.7671 125.426 66.8876 126.056 68.2381C126.658 69.5273 125.836 70.694 124.877 71.55C126.185 71.7867 127.332 72.4186 127.429 73.7079C128.388 73.6759 129.345 73.6421 130.304 73.6085C133.645 73.4923 137.001 73.268 140.344 73.3274C140.268 72.9869 140.234 72.6361 140.23 72.2791C140.228 72.0805 140.236 71.8818 140.251 71.6789C140.276 71.3321 140.504 71.1228 140.842 71.0869L141.597 71.0063L141.85 70.9813C143.264 70.8475 144.846 70.8194 145.923 71.7548C146.502 72.2601 146.969 73.4225 146.686 74.1982C147.345 74.4243 147.973 74.7137 148.545 75.0795C149.68 74.6989 150.871 74.7414 152.012 75.1385L152.147 75.1869C152.958 75.4848 154.108 76.0489 154.548 76.8536C153.479 69.6005 152.037 62.4093 150.225 55.305C149.069 52.4678 147.607 49.756 145.835 47.2531C141.371 40.9464 134.939 36.6095 129.164 31.6238C128.654 32.1849 128.105 32.7188 127.592 33.2326L127.374 33.4515C126.328 34.511 125.237 35.5249 124.123 36.5108C121.792 38.5715 119.34 40.4734 116.905 42.4058C111.996 46.3016 107.558 50.4384 103.865 55.5245C103.799 55.6163 103.615 55.5628 103.666 55.4409C106.199 49.418 111.449 44.8391 116.219 40.5903C118.727 38.3561 121.294 36.1758 123.706 33.8362C124.83 32.7454 125.919 31.617 126.947 30.4342L127.202 30.1374C127.874 29.3507 129.447 26.9489 130.487 28.6818C130.705 29.0443 130.695 29.508 130.487 29.8708C130.191 30.3865 129.816 30.8784 129.406 31.3507C130.864 32.1439 132.292 32.9815 133.688 33.8681C133.608 33.441 133.628 32.9688 133.703 32.4965L133.727 32.3464L133.829 31.7606C133.975 30.8969 134.05 30.094 133.502 29.2516C132.817 28.1978 131.526 27.8691 130.497 27.2602C129.311 26.5586 128.692 25.6197 128.058 24.4282C126.842 22.1471 124.097 21.2324 121.737 20.4985L121.44 20.4064C119.259 19.7303 116.9 19.3684 114.72 20.0181C114.924 20.9705 115.192 21.9093 115.526 22.8238C115.882 23.7973 116.695 24.8796 116.612 25.9311C116.555 26.6587 115.682 27.4365 114.958 26.8805C113.933 26.0934 113.728 24.8115 113.453 23.5904C113.187 22.4093 113.017 21.1996 112.945 19.9913C112.876 18.8268 112.93 17.6631 113.074 16.5065L113.184 15.6572L113.21 15.4599C113.33 14.6013 113.508 13.7001 113.991 13.0271C114.038 12.9624 114.151 12.9609 114.172 13.0507ZM84.4199 8.22287C84.4353 8.29156 84.4461 8.3594 84.4558 8.42725C84.5263 8.7168 84.5527 8.99514 84.5441 9.27476C84.5483 9.37558 84.5409 9.4766 84.5221 9.57657C84.4843 9.90564 84.4051 10.2434 84.298 10.6126C84.07 11.3982 83.8089 12.1743 83.5171 12.9387C82.9404 14.4505 82.2594 15.893 81.4177 17.2756C79.8972 19.7732 77.9644 21.8463 75.6856 23.6383C76.1181 23.9953 76.5408 24.3667 76.9644 24.7312C79.0118 26.4939 81.0039 28.3364 82.9334 30.2276C86.3599 33.5866 89.7176 37.0079 92.9965 40.5113C94.6137 42.2391 96.201 43.9895 97.7796 45.7517L97.8313 45.811L97.8873 45.8777C98.4478 46.5558 99.5684 48.1732 100.404 47.9134C100.826 47.7819 101.271 47.1519 101.559 46.8514L102.089 46.2985C102.265 46.1136 102.44 45.9278 102.612 45.7392C105.696 42.3593 108.614 38.8496 111.353 35.1812C112.69 33.3913 113.983 31.5678 115.228 29.7125C115.868 28.7587 116.496 27.7964 117.112 26.8261C117.707 25.8877 118.189 24.8792 119.066 24.1788C119.71 23.6648 120.602 24.1361 120.44 24.9787C120.184 26.3058 119.266 27.4281 118.543 28.5497C117.817 29.6768 117.074 30.793 116.314 31.8973C114.851 34.0235 113.325 36.1048 111.745 38.1444C110.384 39.9008 108.964 41.6121 107.506 43.2887L107.107 43.7452C105.538 45.5342 103.998 47.4334 102.265 49.0663C100.713 50.5287 99.0176 50.1026 97.6036 48.6814C95.8152 46.8848 94.1549 44.9416 92.4341 43.0794C88.9955 39.3579 85.521 35.6648 82.0106 32.011L80.8566 30.8084C79.511 29.4034 78.171 27.9896 76.866 26.5499L76.6976 26.3622C75.2093 24.6873 73.6959 22.5892 71.5801 21.7377C71.4271 21.6762 71.4833 21.4589 71.6485 21.4893C73.003 21.7398 74.1337 22.4224 75.1858 23.238C76.1314 21.6726 76.9752 20.0223 77.7108 18.3345L77.2389 18.1295C73.862 16.6698 70.0559 15.198 66.4304 15.4346C64.9693 15.5297 63.4103 16.0834 62.4015 17.1807C61.488 18.1747 61.0319 19.5151 60.1936 20.5738C59.2334 21.7863 57.981 22.332 56.444 22.3812L55.6966 22.4039C54.8371 22.4318 54.0127 22.4769 53.1408 22.6661C50.7784 23.1784 48.2878 24.0097 46.3065 25.4293C45.5878 25.9442 44.8458 26.6522 44.4983 27.4323C44.1537 28.2052 44.0546 29.1096 44.0211 29.9438C44.0048 30.3504 44.1267 30.8874 44.0249 31.2765C44.0365 31.2319 44.0418 31.2556 44.0432 31.3021C44.3599 31.5519 44.5756 31.9672 44.5991 32.3811C46.574 31.3514 48.6184 30.4489 50.7026 29.6354C53.0232 28.7298 55.4158 28.004 57.8088 27.3167C60.1509 26.6444 62.6025 26.3662 64.99 25.8869C65.294 25.8258 65.3996 26.2365 65.1163 26.3455C62.6069 27.3097 60.1788 28.4527 57.6484 29.3598C55.1194 30.2667 52.6091 31.2482 50.1533 32.3392C45.4065 34.4487 40.8214 37.1328 37.0818 40.7746C33.4294 44.3316 30.6121 48.6527 27.992 52.9972C25.3532 57.3724 22.9982 61.9069 20.8993 66.5649C16.747 75.7795 13.6334 85.468 11.5835 95.3643C9.58845 104.995 8.4738 114.969 8.845 124.812C9.0212 129.487 9.59204 134.166 10.9196 138.662C11.5539 140.81 12.3478 142.909 13.3509 144.913C14.4087 147.026 15.8339 148.908 16.7999 151.056C16.8793 151.233 16.9097 151.403 16.9053 151.56C21.025 155.131 27.4733 152.725 31.9319 150.593C42.1911 145.685 52.2601 140.315 61.8305 134.152C71.2763 128.069 80.2277 121.28 88.9678 114.234C88.2918 113.537 87.6958 112.755 87.172 112.047C86.0903 110.584 85.277 108.927 84.7171 107.198C84.0622 105.173 83.8592 103.007 84.0453 100.892L84.0981 100.293C84.2761 98.2957 84.4818 96.2685 84.9199 94.3164C84.9239 94.2913 84.9432 94.2805 84.9643 94.2805C84.9852 94.2805 85.0065 94.2934 85.015 94.3164C86.196 98.0977 86.2911 102.162 87.6176 105.894C88.1521 107.395 88.9803 108.845 89.9734 110.09C90.4023 110.628 90.9051 111.096 91.4183 111.552C91.4523 111.32 91.4986 111.089 91.5683 110.863L91.6236 110.684C91.6924 110.467 91.7775 110.225 91.8958 110.011C91.7289 109.963 91.5664 109.91 91.4058 109.851C91.2789 109.804 91.2514 109.599 91.4058 109.566C91.8263 109.468 92.2594 109.42 92.7009 109.399C92.7706 109.388 92.838 109.386 92.9056 109.39C93.7319 109.365 94.5727 109.424 95.3692 109.437C96.7488 109.458 98.1242 109.483 99.5014 109.544C102.138 109.658 105.115 110.164 107.709 109.551C110.067 108.993 112.391 107.42 114.282 105.941C115.934 104.647 117.208 103.111 118.579 101.579C118.48 101.594 118.383 101.609 118.285 101.622L117.401 101.743C116.285 101.892 114.961 102.009 114.075 101.473C113.737 101.268 113.834 100.803 114.178 100.676C115.082 100.344 116.204 100.619 117.168 100.573C117.924 100.536 118.689 100.456 119.435 100.3C119.68 100.249 119.923 100.19 120.163 100.12C121.93 99.611 124.004 97.8187 122.602 95.8616C122.549 95.7876 122.608 95.72 122.68 95.7071C122.711 95.701 122.745 95.7071 122.773 95.7306C124.37 97.0534 123.539 99.4248 122.029 100.442C121.509 100.792 120.922 101.038 120.314 101.217C120.43 101.43 120.451 101.693 120.311 101.942C119.128 104.051 117.126 105.905 115.249 107.395C113.323 108.925 111.1 110.368 108.711 111.045C105.951 111.823 102.92 111.237 100.121 110.99C98.6035 110.857 97.0911 110.698 95.5763 110.523C95.1704 110.476 94.7502 110.441 94.3232 110.4C94.7249 110.929 95.0439 111.537 95.253 111.903C95.9333 113.091 95.3058 114.655 93.9875 115.018C93.85 115.056 93.7084 115.078 93.5692 115.082C93.2141 115.794 92.369 116.318 91.5873 116.05C91.2474 115.934 90.9197 115.775 90.6051 115.585C85.6887 119.905 80.5127 123.958 75.1889 127.759C65.3164 134.805 54.9683 141.241 44.2382 146.898C41.8214 148.173 39.386 149.413 36.93 150.605L34.8161 151.624C32.4763 152.751 30.0816 153.871 27.5967 154.57C27.1123 154.707 26.605 154.817 26.0853 154.901C26.0786 154.948 26.0769 154.992 26.0799 155.035C25.6127 155.097 25.205 155.107 24.8568 155.063L24.7775 155.052C21.7317 155.265 18.4737 154.521 16.5142 152.296C16.1876 152.525 15.7114 152.551 15.2912 152.221C13.1779 150.562 11.9181 148.036 10.8125 145.625C9.69155 143.179 8.81289 140.63 8.16725 138.018C6.87768 132.803 6.3662 127.423 6.33924 122.057C6.24176 101.383 11.4174 80.5277 20.4073 61.9671C22.6873 57.2597 25.2005 52.6403 27.9905 48.2152C30.7729 43.8022 34.0038 39.701 38.1415 36.4825C39.3313 35.5572 40.5692 34.7112 41.8458 33.9317C40.9889 33.5069 40.6486 32.4263 40.5886 31.4663C40.4555 29.3344 40.7094 26.8783 41.9572 25.0795C43.7075 22.556 46.8408 21.0001 49.7462 20.2434C51.2629 19.8486 52.8318 19.6185 54.3962 19.5407C55.2028 19.5003 56.0409 19.633 56.8378 19.546C57.5409 19.4695 57.9757 19.0497 58.3801 18.4979C59.4159 17.0833 60.0903 15.5996 61.5761 14.5627C63.1006 13.499 65.0762 13.092 66.9127 13.2023C69.0522 13.331 71.0041 14.1743 72.8884 15.1433C74.5891 16.0179 76.24 16.9867 77.8488 18.0202C78.1437 17.3289 78.4215 16.6323 78.6799 15.9334C79.181 14.5782 79.6169 13.1799 79.9706 11.7791C80.3291 10.3586 80.2767 8.48262 81.3596 7.41446C82.3013 6.48599 84.1146 6.85057 84.4199 8.22287ZM157.408 103.006L157.401 103.008C155.21 104.306 154.163 107.551 153.132 108.969C153.216 109.445 153.275 109.929 153.392 110.379C153.658 111.413 154.006 112.438 154.41 113.423C155.12 115.162 156.009 116.819 156.831 118.505C157.492 119.862 158.14 121.243 158.644 122.671C158.59 122.725 158.539 122.79 158.496 122.871C157.95 123.895 157.522 123.694 156.513 123.47L156.512 123.468C155.935 121.701 155.103 120.042 154.355 118.347L154.173 117.933L153.993 117.519C153.368 116.068 152.798 114.604 152.466 113.049C152.255 112.057 152.168 111.038 152.156 110.026C151.609 110.476 150.951 110.8 150.123 110.924C148.351 111.192 146.747 110.082 145.303 109.191L144.977 108.992C144.073 108.442 143.177 107.934 142.135 107.674C140.952 107.378 139.729 107.378 138.527 107.228C138.383 107.209 138.238 107.19 138.092 107.167C138.561 108.72 138.778 110.407 139.057 111.962C139.446 114.143 139.763 116.344 140.067 118.537C140.659 122.79 141.071 127.076 141.28 131.364C141.482 135.516 141.38 139.653 141.23 143.804L141.155 145.828C141.095 147.476 141.046 149.126 141.075 150.775C141.155 150.781 141.235 150.794 141.316 150.813C142.148 151.007 142.716 151.857 143.477 152.235C145.082 153.034 147.022 153.023 148.731 152.62C152.619 151.698 155.851 148.984 157.98 145.668C160.537 141.691 161.475 137.009 161.445 132.326C161.41 127.055 160.557 122.015 159.369 116.926L159.292 116.601C158.293 112.362 157.666 103.046 157.408 103.006ZM48.5547 92.3706C48.5769 93.7884 48.0006 95.3048 47.6839 96.6824C47.3429 98.1667 47.0028 99.651 46.658 101.135L46.3479 102.464C46.0897 103.572 45.8351 104.68 45.6069 105.795C45.4193 106.711 45.3407 107.918 45.0333 108.928C48.6897 107.449 52.3518 105.985 56.0078 104.51C60.5121 102.693 65.0374 100.925 69.5522 99.1374C74.0501 97.3579 78.5226 95.3331 83.1116 93.8114C84.2038 93.4479 84.9432 95.1915 83.8973 95.6753C79.2367 97.8376 74.3057 99.5306 69.5311 101.424L62.6244 104.167C56.2929 106.681 49.9571 109.182 43.5895 111.597C39.2522 113.241 34.9318 114.934 30.567 116.496C28.486 117.24 26.3862 117.944 24.3156 118.715C22.5811 119.362 20.705 120.321 20.0628 122.185C20.029 122.282 19.8959 122.242 19.9106 122.143C20.1705 120.338 21.5102 119.209 23.0205 118.356C25.0252 117.219 27.227 116.393 29.3431 115.481L29.6311 115.357C33.9521 113.471 38.308 111.662 42.6768 109.884C42.6335 109.778 42.608 109.665 42.6061 109.546L42.5936 109.55C42.5142 108.742 42.8845 108.021 43.1509 107.27L43.9151 105.113C44.4242 103.677 44.881 102.223 45.3515 100.774C45.8435 99.2596 46.3402 97.7465 46.8361 96.2333C47.2561 94.9514 47.5383 93.4236 48.2568 92.2779C48.3435 92.1398 48.5822 92.2174 48.5547 92.3706ZM132.7 89.1829L132.646 89.4582C132.582 89.7801 132.523 90.1044 132.508 90.4299C132.465 91.2816 132.563 92.1332 132.789 92.9555C133.011 93.769 133.321 94.5555 133.763 95.2762C134.181 95.9544 134.788 96.4872 135.174 97.1825C135.214 97.2563 135.239 97.3303 135.25 97.4023C135.398 97.3411 135.544 97.2861 135.685 97.2415C136.864 96.8676 138.068 96.5546 139.289 96.3202L139.096 96.3071L138.971 96.2971C136.93 96.1244 135.005 95.4567 135.421 93.0737C135.657 91.7266 136.714 90.8233 137.846 90.1831L137.988 90.1044C138.049 90.0704 138.113 90.0366 138.174 90.0072C137.149 89.8339 136.406 89.6204 135.149 89.4091C134.333 89.2717 133.515 89.1956 132.7 89.1829ZM39.4909 59.8301C41.4971 63.885 43.0064 68.1966 44.1452 72.5709C44.6949 74.6834 45.1615 76.8166 45.5366 78.9669L45.6598 79.6849L45.7298 80.0746C46.0803 81.9913 46.5253 84.0676 46.0106 85.9378C45.8427 86.5488 44.8286 86.7905 44.5447 86.1297C43.6882 84.1345 43.8086 81.8411 43.5604 79.7061C43.2995 77.4658 42.9435 75.236 42.4998 73.0247C41.6476 68.7756 40.4515 64.626 39.1182 60.5076L38.9695 60.0501C38.8563 59.7451 39.3494 59.5441 39.4909 59.8301ZM116.604 77.9706C116.006 78.2519 115.408 78.5097 114.88 78.7674C114.84 78.7887 114.797 78.8075 114.755 78.8289C115.353 78.7274 115.953 78.6323 116.553 78.5433C116.547 78.3489 116.566 78.1568 116.604 77.9706ZM139.998 75.9397C139.908 75.9689 139.829 76.0161 139.76 76.0807L139.726 76.1145C139.644 76.1912 139.585 76.2819 139.551 76.3865C139.499 76.4875 139.474 76.5962 139.479 76.7124L139.509 76.9371C139.549 77.0804 139.621 77.2044 139.726 77.3101L139.897 77.4422C140.012 77.5092 140.136 77.547 140.267 77.5558L140.324 77.5578L140.495 77.5579C140.593 77.5546 140.684 77.5304 140.771 77.4849C140.861 77.4557 140.94 77.4087 141.009 77.344L141.043 77.3101C141.125 77.2334 141.183 77.1427 141.217 77.0381C141.263 76.9517 141.287 76.8595 141.29 76.7618L141.29 76.7124L141.26 76.4875C141.225 76.3622 141.165 76.2513 141.081 76.1549L141.043 76.1145L140.872 75.9822C140.756 75.9154 140.633 75.8776 140.502 75.869L140.445 75.867H140.324C140.207 75.8626 140.099 75.8869 139.998 75.9397ZM134.501 75.6538C134.052 75.7362 133.798 76.2806 133.911 76.6934C134.037 77.1505 134.471 77.3537 134.907 77.2912L134.95 77.2841C135.461 77.1901 135.962 77.2264 136.448 77.4059C136.876 77.5639 137.374 77.229 137.488 76.8153C137.617 76.3432 137.327 75.934 136.897 75.7755C136.126 75.4906 135.299 75.5067 134.501 75.6538ZM45.4917 45.6304C46.5139 47.129 47.1522 49.1213 47.7818 50.8339L47.8448 51.0042C48.5141 52.8041 49.1597 54.6181 49.7618 56.4418C50.9637 60.0824 52.53 63.8919 52.8195 67.7377C52.8729 68.4474 51.7872 68.7319 51.4724 68.1029C50.568 66.2944 50.0817 64.4091 49.5465 62.4702C49.0361 60.6211 48.5043 58.7783 47.9724 56.9354C47.4406 55.0934 46.9262 53.246 46.4024 51.4018C45.8931 49.6076 45.1839 47.6127 45.0672 45.7454C45.052 45.5028 45.3742 45.458 45.4917 45.6304ZM68.5641 33.5654C69.9286 34.5129 71.0462 35.8987 72.201 37.084C73.3725 38.2866 74.5283 39.5004 75.6734 40.7283C77.5869 42.7805 79.4657 44.8663 81.4062 46.8936C85.2732 50.9336 89.6479 54.6512 94.985 56.55C96.2764 57.0095 95.7107 59.0828 94.4162 58.6136C88.9573 56.6337 84.4351 52.9729 80.4462 48.8315C78.3802 46.6867 76.4845 44.3948 74.6361 42.0621C73.7711 40.9705 72.9126 39.8755 72.0663 38.7699L71.56 38.1052C70.4959 36.7006 69.1938 35.3006 68.4151 33.7147C68.3714 33.6255 68.4673 33.4984 68.5641 33.5654Z" fill="black"/>
</svg>
