<svg width="216" height="160" viewBox="0 0 216 160" fill="none" xmlns="http://www.w3.org/2000/svg">
<path fill-rule="evenodd" clip-rule="evenodd" d="M210.44 49.3444C207.423 49.6407 204.406 49.9366 201.389 50.2329C186.941 51.3372 172.499 53.6435 158.161 55.0276C157.804 54.4464 157.106 54.5421 156.681 54.946C155.251 54.8207 153.647 53.7268 152.351 54.8647C152.309 54.8587 152.267 54.8518 152.225 54.8478C149.917 50.4172 148.322 45.6916 146.774 40.9597C145.786 38.0505 144.457 35.2342 142 33.2809C137.808 30.3696 128.202 24.4659 123.279 24.7141C123.197 23.8323 122.786 22.9235 122.112 22.3364C123.599 19.8004 117.653 18.1457 117.234 18.4397C117.503 9.9671 113.519 2.60915 104.734 0.921939C96.8645 -0.718562 85.6711 -0.994163 81.4385 7.23349C80.9732 7.18108 76.2174 7.15631 75.7572 7.20788C75.0417 6.3014 67.1848 14.8911 70.405 17.8815C41.615 30.6221 25.245 29.1019 17.2764 64.9192C16.1991 68.2839 16.1207 71.9659 14.9831 75.2555C10.936 84.7094 7.65338 94.7763 6.83643 105.063C4.86331 105.569 4.63639 109.049 6.92187 109.553C7.79486 109.745 8.5249 110.008 9.16145 110.507C8.66384 118.937 10.7019 138.194 11.986 138.134C14.6043 146.47 26.2835 148.823 34.552 145.894C33.1267 148.576 34.552 150.263 34.552 151.696C64.3042 152.822 96.8351 152.174 126.579 153.718C130.384 153.664 134.386 154.653 138.138 154.084C140.427 153.535 140.431 149.935 138.109 149.49L148.253 147.286C148.026 147.2 152.434 144.267 155.766 138.786C158.867 132.655 156.756 125.254 158.161 118.585C169.135 117.687 180.291 117.303 191.145 115.444C192.625 119.873 199.031 114.576 201.068 112.445C201.065 112.441 201.063 112.438 201.06 112.435C202.046 112.165 202.836 111.241 202.862 110.147C203.554 109.159 203.699 107.767 203.036 106.812C206.074 89.2769 210.705 71.373 212.378 53.6729C212.97 53.5418 213.527 53.2823 214 52.8824L213.962 52.8442C214.762 51.9514 214.918 50.4105 213.583 49.6519C212.507 49.0394 211.608 49.2294 210.44 49.3444Z" fill="#D08B5B"/>
<path fill-rule="evenodd" clip-rule="evenodd" d="M95.7043 114.975L98.0282 116.454L117.042 122.583L128.662 124.063L138.169 122.583V138.857L140.07 154.075C139.225 155.624 131.197 155.624 115.986 154.075C106.289 153.087 70.8499 152.607 62.7812 152.396L62.324 152.384C52.8424 152.11 43.4762 152.11 34.2254 152.384V146.677L60.6338 133.574L84.2958 120.258L95.7043 114.975ZM82.2315 5.90356L83.9778 7.20803L80.1651 13.4746L98.7382 28.5039V40.5083L104.618 46.0721L107.979 40.5083L112.715 34.2077L116.081 23.9944L114.935 17.2657L117.24 17.0485C117.251 17.5084 117.249 17.9724 117.234 18.4399C117.653 18.1459 123.599 19.8005 122.112 22.3365C122.786 22.9237 123.197 23.8325 123.279 24.7142C128.202 24.4661 137.808 30.3697 142 33.2811C144.457 35.2344 145.786 38.0506 146.774 40.9599L147.007 41.6696L147.247 42.3981L147.489 43.1261C148.826 47.1281 150.27 51.0939 152.225 54.8479C152.267 54.8519 152.309 54.8589 152.351 54.8648C153.647 53.7269 155.251 54.8209 156.681 54.9462C157.096 54.5517 157.772 54.4512 158.136 54.9883L158.161 55.0278L140.336 58.5406L128.577 99.8055L118.336 91.4897L112.84 92.3074L98.3237 97.545L81.4407 101.932L42.8991 112.562H37.9909L9.4308 105.662L6.85693 104.812C7.70689 94.6128 10.969 84.6328 14.9832 75.2557C16.1208 71.966 16.1992 68.2841 17.2765 64.9194C25.2451 29.1021 41.6151 30.6223 70.4051 17.8817C67.1849 14.8913 75.0418 6.30155 75.7573 7.20803L75.8024 7.20412L75.8999 7.1989L76.0255 7.19451C77.1486 7.16184 81.0211 7.18661 81.4386 7.23365C81.6807 6.7629 81.9457 6.31998 82.2315 5.90356Z" fill="#FFCF77"/>
<path fill-rule="evenodd" clip-rule="evenodd" d="M213.289 50.5974L212.758 53.5573C212.632 53.5987 212.503 53.6337 212.373 53.6625C212.206 55.427 212.01 57.1935 211.789 58.9615L208.497 77.315C207.93 80.5621 207.391 83.816 206.856 87.0711L206.147 90.5675L205.707 92.7405C204.76 97.4466 203.839 102.137 203.031 106.802C203.153 106.978 203.247 107.168 203.316 107.368L203.254 107.631L203.211 107.806L203.166 107.979C202.529 110.431 201.42 112.809 198.805 113.53C196.833 114.074 194.669 114.124 192.633 114.338L192.407 114.363L156.775 118.372C152.47 118.856 148.166 119.355 143.863 119.859L140.133 120.296C134.934 120.899 129.704 121.373 124.582 122.463C124.393 122.503 124.237 122.578 124.11 122.677C125.142 118.771 126.129 114.87 127.024 110.924C128.032 106.483 128.988 102.033 130.065 97.6078C132.236 88.6931 134.669 79.8369 137.332 71.0568C137.891 69.214 138.463 67.3748 139.048 65.54L139.458 64.2574L139.773 63.2353C140.262 61.6769 140.866 60.0752 142.298 59.2156C143.975 58.2096 146.26 58.0428 148.161 57.6948L149.449 57.4529C151.375 57.0935 153.303 56.7476 155.234 56.4155C164.478 54.8248 173.775 53.5489 183.105 52.5904C192.815 51.5929 202.558 50.9448 212.313 50.628L213.289 50.5974ZM124.849 111.792L124.939 111.8L123.608 122.444C123.396 122.295 123.126 122.204 122.796 122.204C118.43 122.217 114.245 120.821 110.197 119.287L109.581 119.052L107.862 118.391C106.115 117.721 104.359 117.067 102.57 116.523L101.847 116.305L101.479 116.197C100.125 115.801 98.6996 115.441 97.2907 115.352L97.0986 115.341L97.5089 115.126C97.5689 115.095 97.6215 115.059 97.6682 115.021C98.4438 115.079 99.2208 115.063 100.039 114.916C101.577 114.638 103.073 114.103 104.447 113.358L105.06 113.025L105.312 112.892L105.478 112.806L105.643 112.722C106.822 112.134 107.95 111.765 109.44 112.079C111.131 112.435 112.613 113.347 114.137 114.117L114.408 114.252L114.59 114.34L114.775 114.427L114.963 114.513C117.024 115.441 120.305 116.442 121.095 113.638C121.413 112.512 121.164 111.457 120.613 110.532C121.64 110.443 123.474 111.654 124.849 111.792ZM176.161 76.7235L176.186 76.8512C176.477 78.421 175.746 79.9227 174.64 81.0175C173.733 81.9153 172.127 82.4143 171.672 83.7059C171.413 84.4407 171.688 85.1375 172.22 85.6234L172.098 85.684L171.978 85.7452L171.861 85.8071L171.747 85.8694L171.636 85.9322C169.829 86.9708 168.357 88.6599 169.987 90.7001C171.836 93.0145 175.699 93.0895 178.421 92.9084L178.605 92.8956C181.244 92.6976 184.371 91.8106 185.802 89.3726C186.458 88.2541 186.386 86.9015 185.471 85.9443C184.919 85.3669 183.934 84.7738 183.031 84.7036C183.071 84.1947 183.01 83.7031 182.831 83.2882C182.444 82.3915 181.414 81.7876 180.421 81.7659C180.501 79.8617 178.977 77.9821 177.854 76.4598L177.74 76.3036L177.628 76.1501C177.113 75.4332 176.011 75.8348 176.161 76.7235ZM177.667 78.7503L178.69 82.583L178.672 82.6145C178.312 83.2989 179.256 84.0757 179.816 83.5007L179.873 83.4399C180.538 82.753 181.558 83.6763 181.571 84.4073C181.589 85.4365 180.919 86.2321 180.121 86.7578L180.065 86.794L179.918 86.8855C179.264 87.3184 179.759 88.2235 180.479 88.1134C181.37 87.977 182.1 87.2703 182.55 86.3879C183.031 86.5257 183.578 86.509 184.084 86.7924C185.36 87.5064 184.626 88.7554 183.795 89.5103L183.762 89.5406L183.694 89.5996C182.169 90.9002 180.094 91.3519 178.137 91.4488L178.024 91.454C176.048 91.5385 173.473 91.5668 171.779 90.404C170.725 89.6803 170.42 88.654 171.312 87.682C171.816 87.1327 172.326 86.5785 172.85 86.043C173.635 86.4177 174.336 86.2657 175.138 85.9111C175.241 85.8654 175.184 85.708 175.084 85.708C174.641 85.7076 173.016 84.8852 172.937 84.3598C172.864 83.8735 173.763 83.4635 174.2 83.2285L174.263 83.1938L174.318 83.1618C174.775 82.8848 175.206 82.5622 175.599 82.2C176.597 81.2806 177.323 80.1274 177.639 78.8654L177.667 78.7503Z" fill="white"/>
<path fill-rule="evenodd" clip-rule="evenodd" d="M81.9871 5.32262C82.8835 3.06899 85.9137 3.94504 85.5759 6.31259C85.3737 7.73075 84.5973 9.22859 83.8999 10.4715C83.332 11.4833 82.6843 12.4707 81.806 13.229C83.3694 14.6882 84.9921 16.0941 86.6561 17.429C88.4717 18.8854 90.3809 20.2279 92.3544 21.4618C94.0849 22.5439 95.8935 23.5026 97.5247 24.7373C99.0414 25.8851 100.423 27.2656 101.126 29.0678C101.875 30.987 101.55 32.9689 100.998 34.8867L100.935 35.1036C100.371 37.0036 99.3959 39.294 100.748 41.0842C101.437 41.9955 102.438 42.641 103.302 43.3695C104.07 44.0171 104.792 44.7213 105.453 45.4777C106.895 47.1267 108.067 48.9821 108.807 51.0495L108.874 51.2374C109.508 53.0675 109.972 55.3095 109.114 57.1064C108.869 57.6215 108.075 57.4541 107.938 56.9525C107.626 55.8163 107.643 54.6264 107.381 53.4741C107.11 52.2758 106.658 51.1383 106.067 50.0621C104.925 47.9801 103.377 46.2017 101.549 44.6982L101.002 44.253C99.576 43.0822 98.2657 41.8402 97.9762 39.9025C97.6665 37.8294 98.4968 35.8545 99.0307 33.8923C99.4027 32.5249 99.5242 31.2141 99.1221 29.9783C98.6309 30.7804 97.9608 31.5417 97.4307 32.2208C96.375 33.5736 95.3094 34.9182 94.2465 36.2654C93.1568 37.6467 92.0939 39.0499 91.0817 40.4894C90.629 41.1334 90.1811 41.7812 89.7347 42.4296C89.399 42.917 88.9308 43.4039 88.5649 43.901C88.6538 44.1669 88.6471 44.4734 88.4859 44.6911C86.5454 47.3139 83.7847 41.8412 83.0647 40.4586C81.5985 37.6427 80.5074 34.6513 79.0363 31.8361C77.512 28.9178 75.7762 26.0772 73.8417 23.4129C72.6714 21.8014 71.3599 20.2877 70.2894 18.625C67.7675 20.9127 64.4489 22.4462 61.4007 23.8369C58.0516 25.3647 54.5722 26.6127 51.1385 27.938L50.1241 28.3322C44.2077 30.6421 38.1466 33.1798 33.2288 37.2828C27.45 42.1043 24.0313 48.8244 21.4862 55.7834C18.5563 63.7946 16.1324 72.022 13.8729 80.2442C12.7167 84.4511 11.6195 88.6771 10.5881 92.9165C9.67926 96.6515 8.92588 100.424 7.87377 104.12C10.0076 104.045 12.4412 104.871 14.2629 105.11C22.5655 106.197 30.7564 107.93 38.595 110.931C39.5633 111.301 39.8434 112.269 39.6326 113.053C40.1909 112.895 40.7489 112.735 41.3073 112.578C40.6955 111.641 40.9875 109.964 41.0356 108.925L41.0386 108.853C41.088 107.468 41.2382 106.082 41.3356 104.7C41.5211 102.064 41.7625 99.4482 42.0835 96.828L42.1655 96.1728C42.5293 93.3221 42.7982 90.4547 43.1952 87.6089L43.2421 87.2832C43.0517 86.5551 42.8301 85.8359 42.5975 85.1198C41.9776 83.2124 41.1028 81.417 40.3361 79.5696C40.2457 79.3521 40.5554 79.2272 40.7001 79.3576C41.9986 80.5261 43.03 82.0085 43.8586 83.559C43.8729 83.4859 43.8856 83.4125 43.9006 83.3394L43.9951 82.8739C44.2283 81.7385 44.5119 80.5439 45.2081 79.623C45.2823 79.5252 45.4289 79.5047 45.499 79.623C46.1654 80.751 46.24 82.1795 46.3424 83.4631C46.4584 84.915 46.473 86.3854 46.4525 87.8414C46.4126 90.6868 46.2121 93.5402 46.0524 96.381C45.8957 99.1726 45.588 101.929 45.1914 104.693L45.116 105.211C44.9222 106.527 44.7635 107.859 44.5078 109.166L44.4355 109.521C44.2988 110.169 44.2147 111.083 43.9426 111.842C50.9436 109.888 57.9554 107.979 64.9804 106.104C70.0578 104.749 75.1405 103.413 80.2211 102.069C80.4892 101.586 80.823 101.135 81.2396 100.731C82.6122 99.4014 84.4312 98.8081 86.0996 99.8317C86.2352 99.9152 86.2466 100.128 86.0996 100.208C85.78 100.383 85.4597 100.562 85.1451 100.749L88.1958 99.9226C90.476 99.3044 92.7835 98.5319 95.1174 98.101C99.416 95.9788 104.039 94.4427 108.568 92.9246L109.101 92.744C111.42 91.9532 113.818 91.068 116.214 90.6295C117.967 90.3087 120.026 90.6959 120.731 92.4932C121.624 93.0818 122.464 93.7736 123.275 94.4539C123.861 94.9455 124.422 95.4682 124.994 95.9771L125.099 96.0696C125.566 96.475 125.936 96.7465 126.051 97.3917C126.11 97.725 125.898 98.1756 125.487 98.1314C124.23 97.9968 123.208 96.5389 122.355 95.6683C121.696 94.9954 121.032 94.2996 120.431 93.5601C120.081 93.751 119.6 93.7167 119.377 93.294C118.22 91.1025 115.051 92.6211 113.297 93.1408L110.785 93.8846C109.529 94.257 108.274 94.6313 107.021 95.0121C103.576 96.0585 100.149 97.2296 96.6729 98.1906C96.9839 98.5325 96.941 99.1408 96.3503 99.3722C93.6296 100.44 90.6448 100.992 87.8183 101.725C86.0337 102.188 84.2502 102.654 82.4673 103.123C82.1616 103.618 81.9416 104.179 81.8491 104.831C81.5089 107.23 82.1651 109.998 82.8043 112.318L82.9005 112.664C83.426 114.53 84.199 116.816 85.8078 117.994C86.2006 118.282 86.7007 118.481 87.2047 118.527C90.3541 116.905 93.5033 115.284 96.6543 113.665C97.2381 113.365 97.7774 113.771 97.9084 114.254C99.0195 114.071 100.128 113.784 101.138 113.441C102.834 112.865 104.159 111.766 105.749 111.005C108.827 109.535 111.969 111.341 114.724 112.715L115.359 113.027C116.595 113.626 119.165 114.779 119.758 113.138C120.332 111.552 118.519 109.856 117.348 109.141C115.952 108.29 114.327 107.834 112.75 107.455C111.849 107.238 110.938 107.061 110.021 106.932C108.98 106.785 107.906 106.807 106.904 106.47C106.406 106.302 106.33 105.512 106.904 105.381C108.446 105.03 110.286 105.413 111.895 105.804L112.736 106.011C114.357 106.409 115.994 106.909 117.471 107.703C118.544 108.28 119.677 109.157 120.418 110.231C121.061 109.633 121.861 109.654 122.694 109.875L123.147 110.001C123.894 110.208 124.499 110.351 125.226 110.207C125.323 109.678 125.422 109.149 125.527 108.62C126.563 103.417 127.699 98.2352 128.952 93.0806C131.114 84.1895 133.616 75.3961 136.437 66.6927L136.72 65.8227C137.37 63.832 137.894 61.6631 138.942 59.8343C139.934 58.105 141.524 57.1089 143.412 56.5814C145.554 55.9829 147.806 55.6696 149.992 55.2653C150.479 55.1753 150.968 55.0897 151.456 55.0011C151.044 54.2562 150.736 53.4106 150.459 52.7617L150.41 52.6492C149.814 51.2905 149.279 49.9073 148.762 48.5168L148.376 47.4714C147.443 44.954 146.48 42.478 145.168 40.1236C143.787 37.6457 141.955 35.6199 139.671 33.9433C135.015 30.5245 129.404 28.7806 124.888 25.127C124.703 24.9774 124.94 24.7214 125.128 24.8161C128.177 26.3488 131.469 27.391 134.64 28.6388L135.266 28.8857C137.773 29.8799 140.318 30.9621 142.488 32.5716C144.907 34.3664 146.812 36.5953 148.244 39.2458C149.656 41.8585 150.558 44.783 151.554 47.5737L151.82 48.3172C152.222 49.4323 152.637 50.544 153.112 51.6291C153.49 52.4905 154.194 53.4739 154.514 54.458C155.389 54.306 156.265 54.1536 157.142 54.0072C176.127 50.8361 195.326 48.9728 214.566 48.4277C215.319 48.4064 215.708 49.125 215.598 49.7819C213.751 60.7046 212.11 71.6648 210.31 82.5959C209.524 87.3667 208.722 92.1339 207.902 96.8988C207.486 99.3129 207.006 101.718 206.612 104.135C206.295 106.088 206.064 108.055 205.518 109.963C205.029 111.673 204.278 113.322 203.045 114.626C201.716 116.033 199.86 116.713 197.993 117.035C193.252 117.851 188.389 118.185 183.609 118.728L158.163 121.624C158.535 125.006 158.562 128.334 158.392 131.755L158.295 133.623C158.215 135.125 158.12 136.629 157.904 138.115C157.634 139.98 156.781 141.559 155.525 142.952C154.372 144.231 152.971 145.322 151.608 146.368C150.193 147.454 148.732 148.502 147.068 149.174L146.852 149.259C145.393 149.829 142.656 150.712 140.661 150.389C140.922 151.696 141.427 153.101 140.979 154.394C140.772 154.995 139.987 155.294 139.506 154.783C138.554 153.771 138.479 152.433 138.254 151.112C138.019 149.738 137.816 148.358 137.637 146.975C137.289 144.302 137.018 141.603 136.936 138.907C136.851 136.138 136.883 133.365 137.033 130.599C137.109 129.178 137.204 127.758 137.385 126.347C137.462 125.745 137.54 125.143 137.63 124.542C137.663 124.323 137.699 124.106 137.738 123.888L135.454 124.146C131.952 124.537 128.448 124.89 124.921 124.945C124.504 124.951 124.182 124.761 123.972 124.484C123.749 124.849 123.359 125.109 122.801 125.107C117.876 125.089 113.289 123.478 108.809 121.579C106.551 120.622 104.328 119.585 102.067 118.636C99.9562 117.75 97.6997 117.118 95.6398 116.12L90.2271 118.96C90.1874 119.1 90.1365 119.232 90.0824 119.342C89.73 120.062 89.0352 120.452 88.3255 120.746C87.6444 121.029 86.939 121.117 86.2517 121.046C82.1467 123.198 78.0408 125.348 73.9321 127.492L69.8225 129.635C61.6346 133.9 53.479 138.235 45.2396 142.4L44.633 142.705C41.7871 144.133 38.7311 145.58 35.5728 146.66C35.5167 147.46 35.5521 148.237 35.6191 149.084L35.6352 149.268C35.7294 150.268 35.9313 151.522 35.1292 152.234C34.7119 152.604 33.9666 152.606 33.6828 152.047C33.168 151.035 33.6302 149.438 33.7933 148.338C33.8512 147.947 33.9218 147.545 34.0262 147.155C30.4055 148.233 26.6751 148.756 22.9906 148.15C19.4033 147.561 16.6249 145.301 14.385 142.535C12.0212 139.617 10.3414 136.216 9.4401 132.571C8.4144 128.422 8.34743 124.138 8.37151 119.889C8.39708 115.364 8.5644 110.817 9.11454 106.323C8.51179 106.181 7.84334 106.058 7.23426 106.101C6.93257 106.584 6.34736 106.787 5.81856 106.724C4.66863 107.993 7.58539 109.289 8.5175 109.614C8.84116 109.727 8.80651 110.253 8.4332 110.237L8.19806 110.226C6.75777 110.149 5.26976 109.903 4.42292 108.564C3.74433 107.491 3.9482 106.219 4.75715 105.344C5.29144 100.29 6.56877 95.3691 7.75757 90.4391C8.92419 85.6002 10.2216 80.7924 11.5967 76.0089L12.2132 73.8679C14.3783 66.3674 16.6414 58.8064 19.6281 51.6039C21.1194 48.0076 22.8374 44.4774 25.1662 41.3416C27.337 38.4184 29.8999 35.9171 32.8458 33.7807C38.3377 29.7977 44.7819 27.391 51.1136 25.0981L51.397 24.9955C54.6782 23.8082 57.9514 22.6066 61.1952 21.3201C64.064 20.1825 66.8124 18.74 69.6676 17.5852C69.5749 17.4167 69.4853 17.2464 69.3991 17.0741L69.3463 17.1185C69.3373 17.1257 69.3281 17.1327 69.3184 17.1392C69.0313 17.3383 68.6086 17.2405 68.3719 17.0171C67.7038 16.3864 67.93 15.6863 68.376 15.0322L68.434 14.949C68.9795 14.1845 69.4661 13.3763 69.9695 12.5842L70.2848 12.0888C71.1299 10.7654 72.0179 9.4332 73.1447 8.33944C73.6665 7.83262 74.2378 7.45346 74.8431 7.17088C74.7913 7.0614 75.2451 6.83758 75.3738 6.95023C77.2914 6.24812 79.4977 6.39522 81.5884 6.58882M156.932 121.764L154.265 122.068C151.332 122.402 148.398 122.724 145.463 123.044L139.088 123.737C139.072 124.101 139.028 124.456 139.02 124.731C138.978 126.146 138.947 127.562 138.918 128.978C138.859 131.816 138.924 134.657 139.11 137.489C139.291 140.234 139.53 142.979 139.9 145.705L139.976 146.25L140.02 146.537C140.322 146.566 140.62 146.709 140.867 147.005C141.406 147.649 143.358 147.023 144.12 146.751C145.374 146.305 146.555 145.551 147.645 144.795C148.709 144.056 149.667 143.195 150.587 142.288L151.341 141.543C152.09 140.798 152.84 140.004 153.299 139.067C153.922 137.797 154.002 136.237 154.185 134.853C154.41 133.151 154.677 131.449 154.96 129.755M79.5326 103.896L79.256 103.969C69.21 106.64 59.179 109.389 49.1022 111.941C44.1155 113.205 39.105 114.376 34.1121 115.615L33.3038 115.818C29.3649 116.814 25.3788 118.012 22.3625 120.87C22.2512 120.975 22.0895 120.814 22.1943 120.702C25.4451 117.24 30.0685 115.775 34.5076 114.504C35.3282 114.269 36.1498 114.04 36.9706 113.806C30.9334 111.653 24.8009 109.78 18.5269 108.444C16.9114 108.1 15.277 107.848 13.6627 107.502C12.5369 107.261 11.4374 106.913 10.3235 106.624L9.44729 106.403L9.43565 109.174C9.42107 113.097 9.42803 117.018 9.62813 120.941L9.66601 121.668C9.89948 126.034 10.2639 130.49 11.8126 134.607C13.0712 137.952 15.0771 141.104 17.7005 143.54C19.0279 144.773 20.455 145.733 22.219 146.207C23.857 146.647 25.5731 146.698 27.2569 146.581C35.3335 146.017 42.5229 141.628 49.5387 137.994C61.0141 132.05 72.4908 126.11 83.9778 120.189C83.6673 119.976 83.3749 119.731 83.1089 119.456C81.5685 117.865 80.756 115.686 80.2224 113.576C79.6543 111.331 79.3145 108.924 79.275 106.605M94.1487 122.483C94.2501 122.428 94.3676 122.497 94.3722 122.611C94.4077 123.489 93.9229 124.355 93.5606 125.145L93.5223 125.23C93.0822 126.209 92.6003 127.175 92.102 128.126C91.1058 130.027 90.0706 131.907 88.9902 133.76C86.8175 137.488 84.4031 141.06 81.5493 144.306C80.9048 145.04 79.8446 144.099 80.2583 143.31C82.2527 139.503 84.5777 135.909 86.9709 132.347C88.169 130.563 89.3662 128.777 90.5762 127.001C91.0809 126.26 91.5921 125.522 92.1171 124.795L92.4339 124.36M213.294 50.6078C203.213 50.9124 193.144 51.5701 183.111 52.6008C173.78 53.5593 164.483 54.8352 155.239 56.4259C153.308 56.758 151.38 57.1038 149.454 57.4633L148.298 57.6806C146.372 58.0459 144.019 58.1965 142.304 59.226C140.496 60.3113 140.007 62.5795 139.405 64.45C138.698 66.6497 138.008 68.8558 137.338 71.0671C134.674 79.8473 132.241 88.7035 130.07 97.6182C128.993 102.043 128.037 106.493 127.03 110.934C126.135 114.88 125.147 118.781 124.116 122.688C124.243 122.589 124.399 122.514 124.587 122.473C129.71 121.383 134.939 120.909 140.138 120.307L140.641 120.248C146.02 119.615 151.399 118.987 156.78 118.382L192.413 114.373C194.514 114.137 196.765 114.105 198.81 113.541C202.287 112.581 203.102 108.692 203.686 105.595L203.703 105.502C205.462 96.1447 206.862 86.7062 208.503 77.3254M124.945 111.81C123.561 111.719 121.668 110.452 120.618 110.543C121.169 111.467 121.418 112.522 121.101 113.649C120.217 116.783 116.22 115.162 114.295 114.204C112.717 113.418 111.193 112.457 109.445 112.089C107.466 111.673 106.125 112.46 104.452 113.368C103.079 114.113 101.583 114.649 100.044 114.926C99.2261 115.073 98.449 115.089 97.6735 115.032C97.6268 115.07 97.5742 115.105 97.5142 115.136L97.1039 115.352C98.959 115.437 100.849 116.01 102.575 116.534C104.364 117.077 106.12 117.732 107.867 118.401L109.586 119.062C113.825 120.686 118.213 122.228 122.801 122.215C123.131 122.214 123.401 122.305 123.614 122.454M117.205 101.988C118.571 101.821 119.833 102 120.925 102.89C122.242 103.963 123.127 105.743 125.02 105.86C125.572 105.894 125.701 106.671 125.152 106.833C123.742 107.251 122.601 106.488 121.641 105.497L120.996 104.823C120.047 103.84 119.172 103.08 117.561 103.139C115.837 103.201 114.11 103.6 112.397 103.803C110.456 104.032 108.516 104.228 106.569 104.397C106.478 104.405 106.463 104.262 106.548 104.241L108.728 103.698M115.886 96.3987L116.111 96.3761C118.096 96.1834 119.911 96.1759 121.683 97.2439L122.023 97.4496C123.621 98.4212 125.36 99.5659 126.36 101.139C126.523 101.397 126.253 101.7 125.979 101.634C124.059 101.173 122.655 99.7632 121.039 98.7081C119.227 97.5242 117.354 97.7194 115.287 97.9033C113.286 98.0815 111.286 98.3262 109.305 98.6599C107.443 98.9732 105.575 99.4677 103.694 99.6254L103.695 99.6216C103.48 99.6212 103.357 99.2984 103.576 99.189C105.485 98.2356 107.696 97.7843 109.772 97.3487M176.174 76.7759C175.982 75.858 177.111 75.4324 177.634 76.1605L177.745 76.314C178.875 77.8629 180.51 79.8064 180.426 81.7763C181.42 81.798 182.45 82.4019 182.837 83.2986C183.016 83.7135 183.076 84.2051 183.037 84.714C183.94 84.7842 184.924 85.3772 185.476 85.9547C186.391 86.9119 186.464 88.2645 185.807 89.383C184.376 91.821 181.25 92.708 178.61 92.906L178.516 92.9127C175.79 93.1013 171.862 93.0503 169.992 90.7105C168.189 88.4535 170.182 86.6261 172.226 85.6338C171.694 85.1479 171.418 84.4511 171.677 83.7162C172.132 82.4247 173.738 81.9257 174.645 81.0279C175.751 79.9331 176.482 78.4314 176.191 76.8616M177.672 78.7607C177.372 80.0677 176.633 81.2631 175.604 82.2104C175.211 82.5726 174.781 82.8952 174.323 83.1722L174.268 83.2041C173.863 83.432 172.865 83.8589 172.942 84.3702C173.021 84.8956 174.646 85.7179 175.089 85.7184C175.19 85.7184 175.247 85.8758 175.144 85.9215C174.341 86.2761 173.64 86.4281 172.855 86.0534C172.331 86.5889 171.822 87.1431 171.317 87.6924C170.425 88.6644 170.73 89.6907 171.784 90.4144C173.478 91.5772 176.053 91.5489 178.03 91.4644C180.019 91.3794 182.145 90.9356 183.699 89.61L183.767 89.551C184.611 88.7996 185.383 87.5264 184.089 86.8028C183.583 86.5194 183.036 86.5361 182.555 86.3983C182.105 87.2807 181.375 87.9874 180.484 88.1237C179.765 88.2339 179.269 87.3288 179.924 86.8958L180.071 86.8044C180.893 86.2794 181.595 85.4708 181.576 84.4177C181.563 83.6867 180.543 82.7634 179.878 83.4503L179.848 83.4831C179.291 84.1104 178.312 83.3199 178.677 82.6249L178.695 82.5933M47.9287 42.4128C47.9262 42.2558 48.147 42.197 48.2241 42.3329C49.5154 44.6056 50.1904 47.3914 50.8783 49.8953C51.5987 52.5181 52.1803 55.1676 52.7028 57.8365C53.761 63.241 54.3249 68.6143 54.3632 74.1226C54.3684 74.909 53.0877 75.1182 52.9624 74.3124C52.1307 68.9544 51.3338 63.591 50.4957 58.2345C50.074 55.5404 49.5832 52.8567 49.1136 50.1707M60.7122 46.3713C60.6171 46.0579 61.073 45.953 61.1896 46.2396C63.781 52.6032 64.6586 59.8149 62.9949 66.5284C62.7403 67.5554 61.2367 67.1105 61.4288 66.0964M94.1384 40.7169C94.1253 40.4823 94.4297 40.4453 94.5444 40.6068C95.7723 42.3375 96.2817 44.6554 98.436 45.5498C99.5115 45.9964 100.722 45.9186 101.672 46.6729C102.307 47.1774 102.795 47.9738 102.318 48.7378C102.164 48.9847 101.733 49.1083 101.525 48.8401C101.22 48.4493 101.059 47.9814 100.645 47.6885C100.061 47.2753 99.2741 47.2497 98.6048 47.0555C97.739 46.8044 96.9759 46.365 96.351 45.7122M114.652 11.8498C114.779 11.7854 114.9 11.8266 114.981 11.9361C115.097 12.092 115.082 12.2438 114.941 12.3507C115.13 12.7373 115.353 13.7057 115.385 13.8467C115.514 14.4182 115.652 14.9863 115.796 15.554C116.086 16.6988 116.341 17.8526 116.631 18.9979C116.939 20.2119 117.306 21.413 117.714 22.5968C117.741 22.6734 117.77 22.7517 117.8 22.8311L117.847 22.951L117.858 22.9328C117.941 22.8016 118.114 22.8933 118.093 23.032C118.074 23.1583 118.049 23.2841 118.027 23.4105L118.07 23.5237C118.337 24.243 118.52 25.0005 118.03 25.6352C117.847 25.8725 117.645 26.0131 117.393 26.0549C116.99 27.3843 116.485 28.689 115.943 29.9418L115.784 30.3077C114.988 32.136 114.138 33.9402 112.87 35.4966C111.486 37.1958 109.581 38.3561 108.375 40.2181C107.814 41.0842 107.423 41.9949 107.106 42.9731L106.987 43.3443C106.762 44.0362 106.503 44.7068 105.854 45.1126C105.647 45.2419 105.337 45.2007 105.17 45.0242C103.84 43.6164 105.232 40.9876 106.034 39.6247C107.15 37.7293 108.763 36.5167 110.379 35.0867C112.121 33.5454 113.232 31.4834 114.307 29.4521C114.965 28.2077 115.601 26.9364 116.27 25.6865C115.571 25.0684 115.347 23.8407 115.11 22.9874L115.089 22.9109C114.697 21.5443 114.386 20.1422 114.19 18.7339C114.001 17.3799 113.922 16.0453 113.972 14.6837L113.986 14.3369M117.251 18.2943C117.097 18.0825 117.352 17.8426 117.564 17.8868C118.853 18.1533 120.112 18.9335 121.268 19.5643L121.392 19.6313C122.315 20.1292 123.244 20.7392 123.728 21.7065C124.256 22.7579 124.212 23.9689 124.14 25.1114L124.133 25.2183C124.045 26.5885 124.031 28.0122 123.741 29.3576C123.593 30.0462 122.97 30.2402 122.436 30.0775C121.802 32.0809 120.021 33.5569 118.719 35.1378C117.06 37.1533 117.372 39.8744 117.546 42.3018C117.616 43.2846 116.394 43.564 115.764 43.0396L114.314 41.8344C114.073 41.6333 113.831 41.4317 113.591 41.2294C113.385 41.0559 113.18 40.8812 112.978 40.7042L112.676 40.437C112.541 40.317 111.95 39.6557 111.777 39.6282C111.357 39.5616 110.362 40.6665 110.021 41.0131L109.978 41.0563C109.336 41.6855 108.757 42.3624 108.217 43.0804C108.118 43.2123 107.924 43.1028 107.995 42.9504C108.478 41.9139 109.041 40.923 109.708 39.9955L109.843 39.8108C110.288 39.2118 110.884 38.1542 111.668 37.9773C112.626 37.7615 113.582 38.7222 114.279 39.2553L114.323 39.2888C114.654 39.5375 114.982 39.7907 115.309 40.0456C115.275 38.2384 115.503 36.4123 116.436 34.8549C117.094 33.7565 118.079 32.943 118.922 31.9991C119.861 30.948 120.351 29.6563 121.201 28.5617C121.31 28.4209 121.461 28.3451 121.624 28.321C121.657 27.441 121.786 26.5523 121.886 25.6818L121.916 25.4212C122.017 24.4754 122.256 23.3202 121.793 22.4344C121.356 21.5978 120.352 21.0072 119.61 20.4396L119.003 19.9689M75.4382 8.29357C75.0503 8.51803 74.6878 8.79722 74.3588 9.14616C73.3234 10.245 72.5831 11.6124 71.8627 12.9279C71.4748 13.6363 71.1009 14.3526 70.7098 15.0593C70.5398 15.3668 70.3648 15.671 70.188 15.9747C70.1062 16.1146 69.8633 16.3927 69.7429 16.5641C69.8767 16.7517 70.015 16.9364 70.1561 17.119C70.21 17.1887 73.9242 21.2364 75.2189 22.8205C77.2014 25.247 78.9736 27.8101 80.4886 30.5534C81.9721 33.2399 83.1015 36.0842 84.4758 38.8227C85.1637 40.1937 85.9319 41.555 86.9111 42.7416C86.9489 42.7878 86.9888 42.8316 87.0275 42.8772C87.4012 41.8672 88.3588 40.7858 88.8292 40.1649L88.8731 40.1062C89.9398 38.6678 91.0663 37.2727 92.2173 35.9012C93.2686 34.6489 94.3465 33.4236 95.4506 32.2186L95.8659 31.7676C96.6351 30.9364 97.6122 29.6926 98.7383 29.0987C98.6176 28.8835 98.478 28.6707 98.3174 28.4606C97.2624 27.0814 95.7709 26.0805 94.2993 25.1773L93.3449 24.5965C89.7475 22.4034 86.2061 20.1086 83.0829 17.2591C81.4306 15.7513 79.8011 14.1719 78.4122 12.4132L77.921 11.7914M81.4407 7.20787C79.7561 7.34926 77.9369 7.31566 76.38 7.86474C77.764 9.17364 79.0796 10.5869 80.4311 11.9178C80.5513 11.0177 80.7972 10.1285 81.0055 9.25078" fill="black"/>
</svg>
