<svg width="173" height="162" viewBox="0 0 173 162" fill="none" xmlns="http://www.w3.org/2000/svg">
<path fill-rule="evenodd" clip-rule="evenodd" d="M150.022 48.0964C148.181 40.9527 146.488 37.9239 143.216 35.441C140.157 33.1186 135.69 31.168 129.173 29.7432C122.385 28.5561 122.193 25.0275 120.491 19.3561C119.994 17.6511 117.534 17.1974 116.472 18.4263C116.322 18.2647 116.166 18.1167 116.004 17.9829C116.149 17.1698 114.965 14.8392 115.005 14.0614C115.418 5.94288 112.763 1.86604 106.136 0.350526C104.695 0.0207934 94.9065 -0.173278 93.5013 0.215283C87.3585 1.91398 81.3114 7.30735 82.2368 13.8044C80.3086 16.3248 78.4214 17.8632 75.4466 18.6753C70.8139 19.2636 73.1411 84.9091 81.187 124.238C84.6392 141.112 167.184 112.391 163.454 103.94C163.982 102.391 163.019 100.688 163.454 99.0886C163.768 97.9309 164.575 97.4521 164.98 96.3057C165.551 94.6926 164.93 92.5284 164.288 90.8823C164.024 90.0619 164.773 89.1788 164.98 88.3416C165.967 84.393 163.708 84.741 162.08 82.1013C162.104 82.0931 162.527 80.2086 162.526 80.218C162.775 78.8726 162.15 77.149 161.605 76.0259C161.237 75.2669 160.448 74.7918 159.665 74.8789C160.454 72.1987 161.452 69.9686 162.526 67.3864C164.424 62.8349 166.229 58.0735 168.955 53.9536C170.072 52.2666 169.17 50.715 167.364 50.6C161.516 50.2284 155.733 49.3864 150.022 48.0964Z" fill="#D08B5B"/>
<path fill-rule="evenodd" clip-rule="evenodd" d="M140.894 48.6482L127.546 71.2434C127.546 71.2434 130.713 71.5595 131.994 72.1752C133.276 72.791 139.16 80.273 139.16 80.273L140.095 84.393L137.879 87.7146L138.743 89.8001C138.743 89.8001 139.36 88.3871 140.894 87.2903C142.429 86.1935 145.813 84.393 145.813 84.393C145.813 84.393 144.688 83.7911 144.688 83.0845C144.688 82.378 143.698 79.3637 145.813 78.2251C147.928 77.0864 158.859 74.4216 158.859 74.4216L169.937 51.0481L140.894 48.6482Z" fill="#EC7495"/>
<path fill-rule="evenodd" clip-rule="evenodd" d="M81.3504 18.8286L123.734 26.2692L143.216 35.441L146.397 37.8918L127.547 71.2434L98.44 76.5554L91.0245 95.8218L92.5382 117.539L139.889 111.892L160.313 109.465L165.115 128.853L164.247 136.829L162.986 140.874L112.351 154.548C112.351 154.548 86.5677 152.048 81.9971 152.048C77.4265 152.048 43.9156 155.377 43.9156 155.377L36.1621 154.548C36.1621 154.548 19.0074 136.463 16.3468 130.026C13.6861 123.59 7.93262 84.4635 7.93262 84.4635L8.56613 78.4518L23.3873 40.2996C23.3873 40.2996 25.3665 38.5019 27.8617 35.441C30.3569 32.38 81.3504 18.8286 81.3504 18.8286Z" fill="#9DDADB"/>
<path fill-rule="evenodd" clip-rule="evenodd" d="M158.06 73.9398C154.23 74.1345 150.395 75.0454 146.93 76.6959C145.513 77.3722 144.228 78.3486 143.852 79.9549C143.662 80.7751 143.708 81.6226 143.81 82.4511C143.886 83.0786 143.905 83.8796 144.45 84.3045C144.543 84.3763 144.642 84.4313 144.746 84.4714C143.468 85.0484 142.251 85.7419 141.169 86.456C140.18 87.1091 139.164 88.1151 138.708 89.2501C138.67 89.1211 138.632 89.0009 138.594 88.8865C137.816 86.5873 136.618 84.7041 134.732 83.4379C134.517 82.657 132.218 79.2956 130.083 79.4224C127.744 79.5598 125.863 79.7308 123.748 80.8066C122.977 80.7897 122.208 80.8003 121.447 80.8341C121.316 80.8383 121.323 81.0161 121.447 81.0306C122.064 81.1091 122.681 81.1955 123.298 81.2969C124.764 81.5318 126.226 81.8295 127.656 82.1994C129.372 82.6435 131.147 83.0892 132.75 83.8649C135.86 85.372 137.785 89.3116 137.389 92.7395C137.324 93.3016 137.106 95.0009 136.327 94.8255C135.668 94.6775 135.406 93.3016 135.175 92.7923C134.558 91.4396 133.447 90.5562 132.114 89.9581C130.549 89.2543 128.873 88.7787 127.251 88.2252C126.332 87.9103 125.413 87.5952 124.492 87.2824C123.549 86.9592 122.654 86.5131 121.65 86.7392C121.044 86.8766 120.974 87.5994 121.314 88.0139C121.832 88.6456 122.601 88.8316 123.347 89.0915C124.331 89.4339 125.313 89.7765 126.296 90.1187C127.815 90.6471 129.406 91.093 130.886 91.7398L130.84 91.8454C130.72 91.8116 130.578 91.9321 130.601 92.08C130.823 93.4475 131.132 95.0284 130.789 96.3981C130.519 97.4843 129.566 98.6871 128.328 98.3677C128.523 98.1902 128.594 97.8837 128.463 97.6005C127.973 96.5522 121.551 92.414 120.978 93.9507C120.959 94.0054 121.018 94.0456 121.065 94.0374C121.553 93.9357 122.37 94.7684 122.761 95.0326C123.325 95.4132 123.898 95.785 124.456 96.176C125.066 96.6031 125.662 97.0512 126.243 97.5139C126.699 97.8776 127.044 98.2557 127.567 98.4398C127.293 98.5706 127.075 98.8137 126.982 99.1243C126.746 99.9338 126.289 100.621 125.497 100.978C124.667 101.35 123.731 101.115 122.856 101.206C121.665 101.327 120.625 101.893 119.757 102.703C117.934 104.406 117.019 107.407 114.469 108.212C112.946 108.692 111.256 108.39 109.713 108.172C107.992 107.929 106.314 107.737 104.58 107.99C102.919 108.234 101.349 108.808 99.8324 109.51C98.4106 110.167 96.8388 110.912 95.5775 111.892C95.3176 111.091 95.0557 110.298 94.8569 109.481C94.3881 107.547 94.1345 105.577 94.0731 103.59C94.0162 101.699 94.1219 99.7988 94.2843 97.9154C94.3648 96.9749 94.4916 96.0386 94.5719 95.0981C94.5928 94.8614 94.6352 94.6078 94.6669 94.3544C96.919 93.0248 99.285 92.0063 101.67 90.958C101.677 90.9559 101.683 90.9514 101.689 90.9495C101.763 90.9155 101.835 90.884 101.909 90.8523C101.907 90.8479 101.905 90.8439 101.901 90.8394C102.173 90.6727 102.363 90.4505 102.477 90.2011C105.915 87.9207 108.788 84.8077 110.93 81.1765C111.828 79.6548 112.692 78.076 113.867 76.7426C115.118 75.32 116.603 74.4746 118.441 74.035C120.589 73.5195 122.804 73.2107 125.005 73.0353C126.207 72.9404 127.551 72.7922 128.861 72.7988C129.773 72.8049 130.667 72.8831 131.487 73.1092C132.701 73.4432 133.411 74.367 134.174 75.3009C134.903 76.1973 135.627 77.0955 136.308 78.0297C136.952 78.915 137.561 79.8302 138.089 80.7897C138.406 81.3646 138.699 81.9566 138.947 82.5672C139.033 82.783 139.147 83.0279 139.2 83.2519C139.253 83.4781 139.156 83.7171 139.409 83.7171C138.363 83.7317 137.668 86.3404 138.708 86.2791C140.169 86.1941 140.904 84.4413 140.618 82.8863C140.107 80.1119 137.348 76.7611 136.802 76.0512C135.596 74.483 134.351 72.4371 132.42 71.708C132.393 71.6974 132.363 71.6871 132.336 71.6784C132.898 71.1458 133.342 70.5077 133.766 69.8587C134.204 69.1908 134.725 68.4257 134.869 67.6331C134.96 67.1282 134.332 66.8406 134.035 67.2823C133.601 67.9269 133.392 68.7427 133.069 69.451C132.739 70.1694 132.338 70.8478 132.021 71.5727C131.258 71.3381 130.435 71.2305 129.596 71.1946C130.654 69.7617 132.462 66.997 132.68 66.6419C133.682 64.9976 134.635 63.3028 135.545 61.6054C136.529 59.7667 137.373 57.8519 138.315 55.992C138.849 54.9375 139.388 53.8742 139.982 52.8513C140.187 52.5005 140.406 52.1496 140.656 51.8305C140.704 51.7673 140.766 51.7145 140.823 51.6551C140.888 51.6191 140.956 51.579 140.994 51.5581C141.336 51.3615 141.456 50.905 141.697 50.6152C142.082 50.1483 142.534 50.0934 143.113 50.0868C144.346 50.0742 145.585 50.1228 146.816 50.1566C148.627 50.2073 150.435 50.2792 152.244 50.3743C152.791 50.4039 153.336 50.4335 153.883 50.4673C156.513 50.6239 159.142 50.8287 161.763 51.0804C164.083 51.3021 166.403 51.6637 168.725 51.837C165.581 59.3083 162.095 66.6442 158.148 73.7245C158.108 73.7961 158.079 73.868 158.06 73.9398ZM140.618 93.1875C140.111 93.4202 139.618 93.7095 139.16 94.0395C139.236 93.5259 139.255 92.9846 139.234 92.4414C139.612 92.8472 140.096 93.0797 140.618 93.1875ZM162.262 80.3355C162.226 80.3395 162.192 80.3585 162.175 80.3945C161.474 81.8422 161.767 83.4591 162.913 84.594C163.513 85.1858 164.82 85.8537 164.778 86.8259C164.742 87.6121 163.887 88.2715 163.521 88.9203C163.181 89.5248 163.054 90.1884 163.327 90.8438C163.675 91.6827 164.649 92.0166 164.983 92.8411C165.406 93.8871 164.719 95.1491 164.237 96.0598C163.789 96.903 163.21 97.7463 162.826 98.6382C160.251 99.9721 154.407 102.394 153.703 102.529C152.846 102.696 151.986 102.855 151.124 103.003C149.47 103.29 147.811 103.556 146.149 103.791C145.202 103.924 144.254 104.055 143.305 104.159C142.477 104.247 141.543 104.368 140.875 103.745C139.53 102.485 140.284 100.373 141.135 99.1011C141.152 99.0759 141.152 99.0525 141.146 99.0313C141.949 98.8432 142.749 98.6234 143.548 98.4692C145.084 98.1733 146.63 97.9241 148.179 97.7022C151.361 97.2475 154.563 96.9474 157.762 96.6454C158.554 96.5691 158.562 95.3224 157.762 95.3963C153.167 95.8169 148.549 96.2162 144.015 97.1019C142.878 97.3215 141.75 97.5709 140.628 97.852C140.098 97.9833 139.53 98.1883 138.974 98.1946C138.94 98.1946 138.906 98.1946 138.873 98.1923C137.785 98.1587 137.626 97.2266 138.224 96.451C138.298 96.3557 138.374 96.2605 138.452 96.1699C139.508 94.91 140.824 94.0688 142.181 93.1981C143.7 92.991 145.215 92.5302 146.702 92.192C150.374 91.3551 154.046 90.5182 157.72 89.6833C158.44 89.5185 158.134 88.411 157.413 88.5737C154.625 89.2059 151.836 89.8376 149.047 90.4695L144.966 91.3955C144.15 91.5791 143.132 91.949 142.172 92.0824C141.699 92.1477 141.241 92.1561 140.827 92.0591C139.489 91.7421 139.422 90.0701 139.999 89.0767C140.645 87.961 141.866 87.2634 142.95 86.6314C144.828 85.5345 146.827 84.7462 148.779 83.8374C149.125 83.7613 149.472 83.6852 149.818 83.6091C151.834 83.1653 154.137 82.9476 156.034 82.1341C156.602 81.8929 156.291 80.9968 155.73 81.0095C154.257 81.0414 152.717 81.5654 151.278 81.876C149.721 82.2142 148.162 82.5502 146.605 82.8863C146.449 82.9201 145.523 83.216 145.384 83.1505C145.295 83.1082 145.263 82.7999 145.234 82.5967C145.139 81.9289 145.069 81.2274 145.173 80.5572C145.401 79.0545 146.654 78.3486 147.921 77.7716C150.744 76.4887 153.839 75.6858 156.919 75.3643C157.629 75.2904 158.339 75.2441 159.053 75.2206C159.891 75.1953 160.582 75.0473 161.007 75.8737C161.675 77.1756 162.042 78.8497 162.262 80.3355ZM158.342 127.539C157.727 125.411 157.894 123.139 157.473 120.969C157.256 119.849 156.959 118.739 156.635 117.645C156.373 116.762 155.937 115.823 155.888 114.902C155.885 114.84 155.957 114.805 156.007 114.833C156.875 115.33 157.541 116.405 158.036 117.248C158.628 118.257 159.081 119.314 159.445 120.425C160.173 122.639 160.77 125.309 159.832 127.539C159.553 128.203 158.572 128.336 158.342 127.539ZM134.34 143.648C133.424 143.008 132.756 142.113 131.979 141.324C131.215 140.548 132.409 139.352 133.174 140.129C133.837 140.802 134.413 141.643 135.193 142.188C135.569 142.449 135.743 142.923 135.497 143.344C135.279 143.716 134.715 143.909 134.34 143.648ZM129.229 119.058C130.902 118.334 132.548 117.546 134.299 117.025C135.345 116.713 135.788 118.345 134.748 118.655C133.136 119.135 131.623 119.851 130.083 120.517C129.093 120.945 128.234 119.488 129.229 119.058ZM111.561 118.551C111.152 117.541 112.788 117.106 113.191 118.102C113.655 119.248 114.187 120.364 114.651 121.51C115.06 122.52 113.425 122.956 113.021 121.96C112.557 120.814 112.025 119.697 111.561 118.551ZM94.1221 138.718C93.8495 139.082 93.3951 139.279 92.9658 139.022C92.6062 138.806 92.3867 138.233 92.6626 137.865C93.4682 136.791 94.2843 135.73 95.2285 134.772C95.9939 133.996 97.1884 135.192 96.4236 135.968C95.5805 136.823 94.8416 137.759 94.1221 138.718ZM91.6285 25.563C92.4043 26.0931 93.0839 26.7371 93.7466 27.3997C94.5171 28.17 93.3218 29.3654 92.5513 28.5951C91.9929 28.0367 91.4297 27.4698 90.7754 27.023C90.3974 26.7648 90.2278 26.2844 90.4722 25.8663C90.6913 25.4918 91.2514 25.3056 91.6285 25.563ZM117 52.7716C116.561 53.6502 116.166 54.5115 116.141 55.5101C116.115 56.5979 114.425 56.5986 114.452 55.5101C114.484 54.2033 114.966 53.0701 115.54 51.9182C116.027 50.9432 117.484 51.8007 117 52.7716ZM126.309 30.9195C127.217 30.3135 128.063 31.7788 127.162 32.3795C126.432 32.8662 125.702 33.3534 124.971 33.8403C124.063 34.4461 123.218 32.981 124.118 32.3803C124.848 31.8934 125.579 31.4064 126.309 30.9195ZM85.9323 69.1259C85.7772 70.2004 84.1488 69.7407 84.3024 68.6766C84.54 67.0319 84.8301 65.4089 85.2761 63.8069C85.5681 62.7586 87.198 63.2066 86.9058 64.2564C86.4598 65.8584 86.1697 67.4814 85.9323 69.1259ZM80.0064 88.4941C78.9186 88.471 78.9184 86.7802 80.0064 86.8032C80.9909 86.8242 81.9588 87.0833 82.9084 87.3204C83.9647 87.5844 83.5143 89.2145 82.459 88.9508C81.6562 88.7502 80.8388 88.5118 80.0064 88.4941ZM77.819 127.509C77.4452 127.691 77.0618 127.855 76.684 128.028C75.9275 128.374 75.1714 128.72 74.4155 129.068C72.8407 129.791 71.2667 130.516 69.6943 131.245C66.5464 132.702 63.3742 134.109 60.2187 135.55C57.0009 137.021 53.7915 138.511 50.5862 140.009C49.076 140.714 47.5545 141.393 46.0359 142.08C44.7374 142.668 43.1324 143.694 41.707 143.79C41.6337 143.796 41.6092 143.703 41.651 143.655C42.1895 143.043 43.0486 142.686 43.7563 142.288C44.4793 141.881 45.2157 141.498 45.9488 141.11C47.4771 140.3 49.0074 139.496 50.5505 138.715C53.6371 137.152 56.7296 135.601 59.8228 134.051C62.9774 132.471 66.1281 130.88 69.3104 129.356C70.8087 128.639 72.3085 127.923 73.8091 127.21C74.6221 126.823 75.4355 126.438 76.2488 126.053C76.6002 125.886 76.9479 125.707 77.3071 125.558C77.7843 125.361 78.1471 125.401 78.6393 125.279C79.4421 125.081 79.7897 126.102 79.1734 126.547C78.6659 126.913 78.3989 127.226 77.819 127.509ZM66.5358 144.847C66.3624 144.425 66.7255 143.912 67.1261 143.807C67.6059 143.68 67.9906 143.972 68.1657 144.397C68.629 145.525 69.289 146.559 70.1386 147.433C70.8978 148.214 69.7033 149.41 68.9434 148.629C67.8788 147.533 67.114 146.253 66.5358 144.847ZM58.2349 117.707C57.4644 116.936 58.6597 115.741 59.43 116.511L61.6205 118.703C62.3909 119.473 61.1954 120.669 60.4253 119.898L58.2349 117.707ZM35.7624 114.134C34.1876 114.596 32.3508 115.021 31.2771 116.365C31.2247 116.431 31.1367 116.347 31.1681 116.281C32.5426 113.43 36.4845 112.431 39.2136 111.432C41.144 110.725 43.1246 110.139 45.1219 109.616C44.9223 107.337 45.4728 104.894 45.6643 102.626C45.8686 100.204 46.0348 97.7759 46.1202 95.3467C46.2074 92.8686 46.2286 90.3738 46.147 87.8951C46.0659 85.4255 45.7454 82.9861 45.6051 80.5247C45.5916 80.2867 45.9228 80.2753 45.9943 80.472C46.8237 82.7561 47.178 85.2862 47.448 87.6945C47.726 90.1756 47.8183 92.6494 47.7828 95.1448C47.7461 97.7106 47.5969 100.27 47.3922 102.828C47.2952 104.04 47.1826 105.251 47.0764 106.462C46.9952 107.387 46.9576 108.304 46.7692 109.199C47.9738 108.903 49.1812 108.623 50.3848 108.351C54.2227 107.485 58.0766 106.681 61.8985 105.744C63.7745 105.284 65.6238 104.734 67.4914 104.245C69.25 103.784 71.1062 103.226 72.9116 103.02C73.556 102.947 73.638 103.828 73.2114 104.128C71.744 105.158 69.795 105.876 68.1 106.453C66.3989 107.032 64.6306 107.449 62.887 107.877C59.2509 108.772 55.5803 109.504 51.9152 110.265C48.2552 111.027 44.5883 111.782 40.9695 112.721C39.2267 113.173 37.4899 113.627 35.7624 114.134ZM27.1327 68.9006C26.1917 69.4533 25.3422 67.9914 26.2798 67.4406C27.5066 66.7203 28.8142 66.1791 30.1323 65.6511C31.1438 65.2462 31.579 66.882 30.5816 67.2817C29.3971 67.7559 28.2351 68.2535 27.1327 68.9006ZM23.7254 131.717C22.7819 132.264 21.9317 130.803 22.8725 130.257C24.1938 129.491 25.6407 128.98 27.01 128.309C27.9841 127.832 28.8397 129.291 27.8628 129.769C26.4938 130.44 25.0466 130.951 23.7254 131.717ZM22.1928 96.0596C23.1051 96.9265 24.3226 97.3346 25.4707 97.7901C26.4716 98.1868 26.0326 99.8214 25.0213 99.4204C23.591 98.853 22.1341 98.335 20.9977 97.255C20.2071 96.5038 21.4044 95.3103 22.1928 96.0596ZM32.2853 47.6339C33.2882 48.0275 32.849 49.662 31.8359 49.2645C30.7124 48.8236 29.5521 48.488 28.4286 48.0471C27.4259 47.6536 27.865 46.0192 28.878 46.4165C30.0015 46.8574 31.1618 47.193 32.2853 47.6339ZM50.0895 28.3993C51.1551 28.2197 51.6089 29.8492 50.5388 30.0299C49.2112 30.2542 47.9039 30.5164 46.6447 31.0038C45.6279 31.3974 45.1916 29.7619 46.1954 29.3735C47.4547 28.8861 48.7621 28.6236 50.0895 28.3993ZM55.9722 75.231C54.9951 74.7504 55.8524 73.2929 56.8251 73.7712C57.8502 74.2753 58.9122 74.665 60.0307 74.9032C61.0957 75.1302 60.6421 76.7599 59.5813 76.5337C58.3226 76.2653 57.1249 75.798 55.9722 75.231ZM61.5283 48.8513C62.5805 48.563 63.0254 50.1944 61.9777 50.4819C60.1344 50.987 58.2366 51.2497 56.3797 51.6992C55.3215 51.9554 54.8738 50.3246 55.9304 50.0689C57.7872 49.6191 59.6852 49.3568 61.5283 48.8513ZM85.0986 40.5731C86.1685 40.7712 85.7126 42.4005 84.6495 42.2037C83.5177 41.9942 82.3707 41.9909 81.2233 41.9902C80.134 41.9898 80.1359 40.299 81.2233 40.2994C82.5269 40.3001 83.8137 40.3354 85.0986 40.5731ZM161.97 49.4065C159.209 49.1423 156.444 48.931 153.674 48.7725C153.545 48.7659 153.418 48.7577 153.289 48.7511C153.275 48.7217 153.256 48.694 153.236 48.6645C152.332 47.3372 151.667 46.0101 151.09 44.5093C150.539 43.0806 150.004 41.6077 149.155 40.3184C148.186 38.8496 146.879 37.7002 145.445 36.7041C144.576 37.289 143.769 37.9737 143.031 38.6995C142.254 39.4631 141.059 38.2677 141.836 37.5039C142.492 36.8589 143.192 36.2631 143.932 35.7247C143.077 35.2053 142.206 34.717 141.355 34.2313C138.167 32.4118 134.903 30.7293 131.571 29.1909C130.023 28.4742 128.455 27.838 126.877 27.1934C126.027 26.847 125.189 26.4008 124.339 25.9995C124.401 25.399 124.221 24.7269 123.761 24.3317C123.42 24.0421 123.156 23.9344 122.751 23.7296C122.66 23.6976 122.605 23.6786 122.58 23.6681C122.599 23.6723 122.654 23.6892 122.744 23.7188C122.96 23.8183 122.977 23.7885 122.795 23.6321C122.785 23.29 122.11 22.5671 121.956 22.2142C121.42 21.0029 121.253 19.7221 120.461 18.6189C119.368 17.0993 117.535 16.5246 115.825 17.0401C115.648 15.2119 115.601 13.3037 114.913 11.6718C114.894 11.6276 114.832 11.6084 114.805 11.657C114.087 12.881 114.025 14.2439 113.97 15.6558C113.918 16.9809 113.968 18.3357 114.142 19.6524C114.032 19.7369 113.92 19.8175 113.804 19.8955C113.258 20.2548 112.671 20.5316 112.054 20.7368C110.88 21.1255 109.648 21.2946 108.416 21.3538C105.237 21.5059 101.96 21.1847 98.8331 20.6394C95.6704 20.0878 90.8219 19.2593 88.0078 17.6763C86.1505 16.6324 84.4373 15.3578 82.7005 14.1235C83.3303 12.0945 83.4909 9.91338 82.8571 8.19933C82.781 7.99432 82.4599 7.95628 82.3986 8.19933C82.0014 9.83518 81.8852 11.4795 81.3571 13.0963C81.3486 13.1196 81.3402 13.1451 81.3317 13.1682C81.1669 13.0564 81.0021 12.9463 80.8373 12.8364C80.4571 12.5848 79.9395 12.7732 79.7113 13.1322C76.0625 18.8831 70.2845 19.2128 64.2169 20.2402C57.5766 21.3643 50.9028 22.5775 44.5183 24.7776C38.4127 26.8829 32.5775 29.9475 27.955 34.5253C26.9086 35.5618 25.93 36.6661 25.0063 37.819C25.9 37.9317 26.7862 38.1071 27.6611 38.3821C28.6969 38.7075 28.2518 40.3394 27.2117 40.0124C26.0874 39.659 24.9505 39.4842 23.8021 39.3972C20.6612 43.6956 18.2121 48.5696 16.0944 53.367C12.0324 62.5652 9.38834 72.3608 8.17165 82.3338C8.83968 81.9333 9.51975 81.5518 10.2167 81.197C11.1852 80.7043 12.0393 82.1635 11.0698 82.657C9.9932 83.2048 8.94743 83.8086 7.93419 84.4634C7.49158 88.8288 7.32003 93.2224 7.42397 97.609C7.67116 108.067 9.08243 118.831 12.2747 128.808C13.8402 133.705 15.9148 138.563 19.0057 142.701C20.4043 144.575 21.993 146.266 23.8648 147.676C24.7712 148.361 25.7303 148.972 26.7423 149.487C28.0458 150.155 29.7444 150.375 30.8683 151.319C31.2381 151.63 31.5233 152.04 31.7388 152.503C31.6141 153.382 31.5993 154.264 31.8402 155.143C31.9162 155.418 32.1233 155.642 32.3789 155.749C32.3831 155.825 32.3831 155.899 32.3831 155.971C32.3831 156.005 32.4338 156.014 32.4402 155.98C32.4507 155.914 32.4613 155.849 32.4719 155.781C32.5543 155.809 32.6409 155.821 32.7296 155.821C35.9388 155.833 39.1519 155.755 42.3653 155.646C42.1169 154.885 41.8477 154.13 41.5893 153.368C41.2384 152.334 42.8713 151.894 43.219 152.919C43.5214 153.809 43.8374 154.692 44.1186 155.585C47.5616 155.457 51.0036 155.303 54.4395 155.189C61.7472 154.946 69.0528 154.866 76.3625 154.712C87.7141 154.471 99.1483 153.978 110.517 154.46C110.911 153.625 111.351 152.81 111.768 151.986C112.26 151.015 113.718 151.871 113.227 152.84C112.937 153.412 112.637 153.977 112.352 154.548C114.654 154.668 116.954 154.826 119.25 155.042C123.167 155.409 127.046 156.062 130.958 156.468C134.936 156.882 138.828 156.808 142.775 156.151C143.485 156.033 143.903 155.603 144.076 155.071C144.082 155.069 144.087 155.065 144.091 155.058C144.293 154.821 144.484 154.625 144.68 154.454C144.915 154.302 145.168 154.173 145.466 154.059C146.022 153.847 146.601 153.718 147.188 153.632C147.835 153.535 148.489 153.526 149.136 153.446C149.681 153.376 150.213 153.272 150.746 153.146C151.703 152.917 152.611 152.619 153.516 152.224C154.304 151.88 155.015 151.385 155.687 150.846C157.077 149.829 158.282 148.532 159.334 147.183C159.947 146.395 160.523 145.577 161.047 144.726C161.96 143.25 162.737 141.718 163.523 140.173C163.808 139.715 164.069 139.246 164.307 138.768C162.771 138.315 161.22 137.946 159.592 137.92C158.503 137.902 158.504 136.211 159.592 136.229C161.459 136.259 163.226 136.695 164.981 137.215C165.066 136.988 165.148 136.759 165.224 136.527C165.433 136.043 165.606 135.546 165.75 135.043C165.834 134.815 165.919 134.587 166.004 134.359C166.194 133.568 166.384 132.776 166.576 131.983C166.958 130.715 167.26 129.428 167.482 128.124C167.668 127.266 167.812 126.401 167.909 125.526C168.205 123.406 168.446 121.291 168.463 119.148C168.437 117.827 168.353 116.508 168.209 115.195C168.148 114.304 168.044 113.416 167.905 112.535C167.723 111.224 167.544 109.927 167.242 108.633C167.016 107.758 166.789 106.883 166.563 106.008C165.999 104.184 165.334 102.396 164.567 100.648C164.525 100.538 164.311 100.297 164.182 100.295C164.085 100.293 163.95 100.382 163.994 100.5C163.999 100.511 164.003 100.523 164.007 100.534C163.963 100.435 163.92 100.333 163.876 100.234C163.838 100.141 163.69 99.9552 163.576 99.9573C163.57 99.9573 163.563 99.9573 163.555 99.9592C163.585 99.9383 163.612 99.9106 163.639 99.8791C164.398 98.9808 164.89 97.7992 165.433 96.7593C165.883 95.9013 166.308 94.9967 166.43 94.0266C166.538 93.175 166.392 92.3358 165.858 91.6468C165.249 90.8627 164.104 90.4949 164.74 89.3621C165.463 88.0728 166.525 86.9548 165.467 85.4901C164.928 84.7441 164.075 84.3343 163.441 83.6852C162.712 82.9349 162.365 81.931 162.385 80.906C162.429 80.9313 162.488 80.9188 162.509 80.8552C163.122 79.0038 162.678 76.9708 162.051 75.1678C161.708 74.1894 160.984 73.9208 160.141 73.8724C163.791 66.7394 167.208 59.4919 170.252 52.0778C170.354 51.8347 170.453 51.5919 170.552 51.3486C170.7 50.9851 170.387 50.5013 170.026 50.4208C167.394 49.8438 164.651 49.6599 161.97 49.4065Z" fill="black"/>
</svg>
