<svg width="173" height="164" viewBox="0 0 173 164" fill="none" xmlns="http://www.w3.org/2000/svg">
<path fill-rule="evenodd" clip-rule="evenodd" d="M81.6496 13.875L79.0649 20.2675L80.489 40.5297L81.5488 40.6949C92.7406 42.4304 100.346 43.3071 104.364 43.325L104.488 43.3252C108.535 43.3252 113.384 42.421 119.035 40.6125L119.293 40.5297L119.945 25.3579H118.406L115.623 18.8308L115.626 18.8287C115.657 18.8809 115.688 18.9317 115.722 18.9808C116.882 20.6976 117.554 19.3111 120.28 19.9183C123.544 20.6453 124.993 23.9451 127.866 26.4112C129.2 27.5562 132 28.0959 133.34 28.8831L134.748 29.7104C139.158 32.3128 144.227 35.4739 146.889 39.5919C150.009 44.4196 152.159 49.001 154.145 54.3714C158.426 65.9469 161.397 77.759 163.52 89.9066C165.672 102.218 166.965 114.683 167.953 127.138C168.411 132.91 168.799 138.686 169.121 144.467L169.2 145.912C169.369 149.057 169.222 152.135 166.363 154.072C164.315 155.459 161.597 155.671 159.194 155.813L159.063 155.821C141.297 156.863 123.53 157.898 105.764 158.935L79.1141 160.493C74.6799 160.753 70.2457 161.011 65.8114 161.268L54.9876 161.893C49.8862 162.184 44.7787 162.435 39.6705 162.405C33.2436 162.368 26.8441 161.893 20.4766 161.036L19.9148 160.959C15.9088 160.406 10.1002 159.006 9.3806 154.2C9.27729 153.51 9.88448 153.079 10.3943 153.178C10.2265 152.395 10.1224 151.612 10.0229 150.931C9.59589 148.023 9.32779 145.097 9.19532 142.16C8.92955 136.285 9.15349 130.383 9.7406 124.534C10.7119 114.856 12.0734 105.196 13.4803 95.569L13.7936 93.4302C15.29 83.2309 17.0716 73.0487 19.8595 63.1137C22.4348 53.936 26.4525 44.3885 31.9807 38.5852C37.5089 32.7818 45.3909 27.7399 53.4898 24.6514C54.1912 24.3839 68.1264 21.3317 69.0653 21.7762L69.2339 21.644C72.0122 19.4497 75.9755 15.5954 80.0562 16.8092L80.0655 16.7939C80.1618 16.6169 80.5387 15.4327 81.0594 13.8752L81.6496 13.875Z" fill="#8FA7DF"/>
<path fill-rule="evenodd" clip-rule="evenodd" d="M84.5968 5.36701C87.9721 1.08632 91.5298 -0.274522 96.787 0.0444059C100.352 -0.0830383 103.908 0.842676 106.927 2.8877C109.693 4.33355 112.145 6.32384 113.896 8.88582C115.393 11.0763 114.256 16.4889 115.623 18.8309C115.61 19.0857 115.603 19.3181 115.603 19.5279C115.603 21.5545 117.013 23.8161 119.833 26.3126L119.945 26.4113V41.1381C115.204 42.5963 109.335 43.3253 102.337 43.3253C95.4441 43.3253 88.2742 42.1675 80.8277 39.8517L80.4891 39.7457L79.0649 23.7403L80.4891 19.3112L80.4889 15.6015L81.0391 13.9422C82.0136 11.0249 83.5053 6.75162 84.5968 5.36701Z" fill="#D08B5B"/>
<path fill-rule="evenodd" clip-rule="evenodd" d="M80.4893 39.7456C80.4893 39.7456 93.0058 43.3918 101.55 43.3918C110.095 43.3918 119.293 39.7456 119.293 39.7456L117.801 159.774L93.785 160.068L80.4893 39.7456Z" fill="#9FD8E5"/>
<path fill-rule="evenodd" clip-rule="evenodd" d="M39.2864 92.154C39.1939 91.9807 39.4085 91.8249 39.5509 91.9498C42.786 94.79 44.4798 99.3511 44.8349 103.567C45.2112 108.038 44.6777 112.667 44.4739 117.135C44.247 122.113 44.0431 127.093 43.7661 132.068C43.4849 137.116 43.182 142.162 42.9223 147.211L42.3382 158.569V158.569C42.276 159.779 42.4106 161.268 41.9463 162.397C41.2267 164.149 39.0892 163.877 38.64 162.414L38.626 162.366L38.585 162.397C38.1886 161.078 38.4853 159.512 38.5524 158.148L39.1645 145.739V145.739C39.5969 136.968 39.9825 128.197 40.447 119.427L40.6049 116.504C40.8221 112.569 40.9885 108.644 41.1222 104.711L41.1656 103.399C41.2926 99.4492 41.1918 95.7203 39.2864 92.154ZM117.711 19.3409C119.513 19.1697 120.874 19.7676 122.511 20.3974C123.223 20.6716 123.898 20.9884 124.582 21.3164C125.438 21.727 125.989 22.4531 126.516 23.2208L126.798 23.6345C128.993 26.8521 130.47 30.5642 132.136 34.0674C134.085 38.1652 136.054 42.2542 137.962 46.3715L138.903 48.4001C139.374 49.4144 139.843 50.4293 140.305 51.4474L141.104 53.2194C141.906 55.0165 142.625 56.9176 141.482 58.7715C140.418 60.4957 138.533 61.8297 137.041 63.1625C135.795 64.2746 134.55 65.3865 133.304 66.4982C135.879 69.078 137.608 72.3262 138.624 75.8097C140.068 75.208 141.83 75.0926 143.323 74.8322C145.413 74.4678 145.669 77.6326 143.697 77.5939C142.24 77.5654 140.531 77.7142 139.037 77.4073C139.297 78.5519 139.485 79.714 139.605 80.8791C140.233 86.9862 138.861 93.1286 137.43 99.0374L137.313 99.5225C135.759 105.918 134.285 112.33 132.967 118.779C131.646 125.241 130.458 131.73 129.403 138.242C128.329 144.869 127.57 151.533 126.753 158.195C126.629 159.203 125.995 160.068 124.881 160.068C123.954 160.068 122.893 159.201 123.01 158.195C123.852 150.94 125.047 143.723 126.234 136.517C128.279 124.108 130.852 111.807 133.813 99.5868L134.33 97.4587C135.662 91.9394 136.87 86.2523 136.202 80.5591C135.658 75.9233 133.721 70.9805 129.891 68.1011L129.775 68.0144C128.88 67.3582 128.536 66.1032 129.417 65.239C129.978 64.689 130.539 64.1396 131.1 63.5906L134.471 60.2983L135.151 59.6333C135.718 59.0798 136.287 58.5296 136.874 57.9964C137.229 57.6739 138.191 57.0589 138.261 56.5284C138.307 56.1821 137.897 55.574 137.731 55.2551L136.97 53.7187V53.7187C136.538 52.8427 136.119 51.9603 135.697 51.0792C134.823 49.2539 133.936 47.4342 133.081 45.5999L127.943 34.586V34.586C126.493 31.4787 125.202 28.1984 123.307 25.3257L122.933 24.7658C122.622 24.2943 122.346 23.8404 122.149 23.2638C121.959 22.709 121.721 22.0999 121.371 21.6264C120.55 20.5154 118.982 19.8851 117.669 19.6524C117.479 19.6186 117.548 19.3565 117.711 19.3409ZM78.1926 16.4481C78.3067 16.4481 78.3241 16.611 78.2188 16.6427C76.6352 17.1191 75.1219 17.8878 73.8872 18.9974C73.2965 19.5283 72.7018 20.1309 72.3372 20.8456C72.1976 21.1192 72.1203 21.4081 72.0638 21.7077L72.0456 21.8079C71.9515 22.3491 71.8169 22.6504 71.542 23.0837L71.4948 23.1572C69.9257 25.5812 68.8261 28.2735 67.8207 30.9693L65.6311 36.8473V36.8473L63.443 42.7259C62.738 44.62 62.0326 46.5143 61.3274 48.4085C60.9378 49.4542 60.5372 50.4956 60.1369 51.5371C59.9636 51.9883 59.7773 52.4362 59.6188 52.8929C59.5971 52.9552 59.5278 53.3312 59.4758 53.4225L59.4936 53.4536V53.4536C59.9349 54.1963 61.1119 54.8168 61.7791 55.3564L64.0764 57.2144V57.2144C65.7143 58.5393 67.3943 59.8271 68.9831 61.2112C69.9811 62.0803 69.3602 63.6367 68.2472 63.9996C66.3822 64.6074 64.5549 65.3349 62.7177 66.0226C61.9756 66.3003 61.2028 66.5421 60.4694 66.8484L60.0229 67.0414C59.8485 67.1198 59.9323 67.1191 59.9393 67.441C59.9463 67.7787 60.042 68.1306 60.0969 68.4624C60.7157 72.2055 61.3717 75.9421 62.0641 79.6723C64.5131 92.8628 67.4389 105.957 70.7759 118.951C72.4614 125.512 74.269 132.042 75.9915 138.594C77.7097 145.128 79.9705 151.569 82.1292 157.969C82.7383 159.774 79.8775 160.551 79.2834 158.754C76.7955 151.227 74.5196 143.634 72.1692 136.065C67.9933 122.614 64.7026 108.872 61.7922 95.0962C60.3496 88.2687 59.0303 81.415 57.8353 74.5398C57.6091 73.2383 57.3872 71.9359 57.1699 70.6328L56.8532 68.716C56.6361 67.3498 56.5125 65.9266 57.574 64.8454C58.6105 63.7901 60.39 63.4161 61.754 62.9211L61.853 62.8847C62.7209 62.5607 63.5951 62.2485 64.466 61.9266C63.1831 60.9164 61.9162 59.8837 60.6365 58.8741C59.6043 58.0596 58.5557 57.2615 57.5383 56.4284C56.6993 55.7411 56.0153 54.8587 55.9278 53.741C55.8386 52.5988 56.3279 51.5388 56.7225 50.4912L56.7604 50.3899C57.1479 49.3439 57.5364 48.2986 57.9348 47.2566L60.4003 40.8064V40.8064C61.9671 36.7077 63.4677 32.5758 65.1156 28.509C65.7676 26.8996 66.4781 25.3155 67.3176 23.7942C67.7224 23.0606 68.1566 22.3426 68.6284 21.6503C69.1569 20.8738 69.6367 20.4952 70.4558 20.0668C71.7655 19.3818 72.7933 18.2334 74.1084 17.5272C75.3993 16.834 76.7273 16.4641 78.1926 16.4481ZM82.4443 9.13567C82.4944 9.04965 82.627 9.08795 82.6287 9.18576C82.6629 11.2228 82.1791 13.3043 81.8815 15.3185C81.5825 17.3399 81.4866 19.4735 81.0541 21.4732C81.0452 21.5664 81.0272 21.6582 81.0017 21.7484L80.981 21.8169V21.8169C80.7985 22.3772 80.3238 22.8521 79.7413 23.0005C79.9245 24.0158 80.0971 25.0328 80.2422 26.0553C80.4915 27.8129 80.7191 29.573 80.9428 31.3337L81.2107 33.4467C81.4636 35.438 81.7095 37.4302 81.9527 39.4226C82.571 39.6813 83.2021 39.8947 83.8484 40.0797C85.3367 40.5058 86.8613 40.6791 88.3972 40.8298C91.5251 41.1367 94.6769 41.2789 97.8159 41.4532L98.4884 41.4911C102.017 41.6933 105.566 41.7293 109.086 41.367C110.831 41.1874 112.563 40.886 114.265 40.4588C115.13 40.2418 115.971 39.9176 116.834 39.7054C117.12 39.635 117.376 39.4727 117.663 39.2994C117.79 39.1383 117.969 39.0164 118.202 38.9692L118.265 38.9583V38.9583L118.327 38.9492L118.349 38.9394L118.347 38.9462C118.524 38.9223 118.692 38.9225 118.85 38.9441C118.913 37.3907 118.981 35.8372 119.067 34.2842C119.296 30.113 119.93 25.7618 119.084 21.6269C119.056 21.4878 119.245 21.4388 119.294 21.569C120.955 25.9463 120.768 30.7327 120.852 35.3397C120.934 39.8451 120.884 44.3536 120.862 48.86C121.184 48.9974 121.472 49.1836 121.7 49.4448C122.155 49.9669 122.286 50.8744 121.7 51.3783C121.44 51.6017 121.153 51.7568 120.848 51.8644C120.831 55.7792 120.804 59.6945 120.764 63.6095C121.509 64.1846 121.578 65.5501 120.736 66.1176C120.596 78.7961 120.366 91.475 120.175 104.152L119.775 130.747V130.747C119.722 134.291 119.633 137.834 119.602 141.377L119.627 141.387V141.387L119.715 141.428C119.864 141.498 120.086 141.612 120.132 141.728C120.144 141.758 120.148 141.779 120.146 141.794C120.39 141.829 120.632 141.944 120.842 142.143C121.358 142.634 121.253 143.374 120.842 143.874L120.731 144.008V144.008C120.475 144.32 119.987 144.44 119.589 144.377C119.593 146.588 119.608 148.8 119.601 151.011C119.598 151.686 119.588 152.362 119.576 153.037L119.549 154.657C119.53 155.581 119.448 156.756 118.502 157.171C117.434 157.639 116.477 157.256 116.045 156.171C115.928 155.877 115.953 155.604 115.996 155.313C115.982 154.877 115.914 154.371 115.923 153.966L115.958 152.278V152.278C115.963 152.017 115.974 151.757 115.981 151.497L115.95 151.5V151.5C112.157 151.684 108.338 151.594 104.538 151.592L102.848 151.594C101.438 151.595 100.026 151.588 98.6176 151.534L98.0899 151.512C97.0359 151.462 95.9274 151.446 94.8347 151.352C94.9739 152.474 95.1041 153.597 95.2201 154.721C95.3299 155.787 94.2303 156.692 93.2494 156.692C92.0844 156.692 91.4181 155.776 91.2787 154.721C90.6203 149.742 90.351 144.717 89.722 139.736C89.1586 135.274 88.6702 130.801 88.1737 126.331L88.0078 124.841C86.1908 108.572 84.4268 92.2966 82.7394 76.0137L81.9538 68.4019C81.1603 60.7299 80.3622 53.0575 79.6891 45.3742C79.3042 40.9815 78.9495 36.588 78.6157 32.191C78.3708 28.9608 78.217 25.7484 78.1169 22.5245C77.722 22.1181 77.5241 21.5246 77.699 20.9117C77.8013 20.5541 77.9202 20.1984 78.0457 19.8433C78.0379 19.4944 78.0296 19.1456 78.0229 18.7963C78.0165 18.4657 78.352 18.2956 78.6206 18.3503C79.1086 17.1683 79.646 15.9963 80.0946 14.8256C80.8205 12.9307 81.4188 10.8888 82.4443 9.13567ZM41.9031 29.6158C49.4916 24.8583 58.5245 21.4348 67.5717 21.8034C67.7774 21.8119 67.8353 22.1255 67.6217 22.1731C62.796 23.251 57.9172 24.5639 53.3485 26.4747C48.7665 28.3912 44.4098 30.9718 40.5294 34.073C33.37 39.7946 27.8052 47.2369 24.141 55.626C21.9947 60.5404 20.4903 65.7286 19.1766 70.9187C17.7864 76.4115 16.6407 81.9635 15.6881 87.5488C13.8066 98.5815 12.7112 109.736 12.1283 120.909C11.5353 132.275 11.7797 143.649 11.3567 155.017C11.2836 156.986 8.46955 156.948 8.32652 155.017C7.36821 142.093 7.89913 128.962 8.78539 116.047C9.5823 104.437 10.9739 92.8505 13.2148 81.4271L13.41 80.437C15.5049 69.8681 18.0318 59.0431 23.0962 49.4717C27.42 41.3003 34.0953 34.5111 41.9031 29.6158ZM147.281 80.1279C147.321 80.0146 147.47 80.0161 147.51 80.1279C148.375 82.5504 148.406 85.284 148.636 87.8376L148.654 88.0337C148.875 90.3629 149.041 92.6949 149.195 95.0288L149.253 95.9042C149.872 105.426 150.647 114.936 151.814 124.408C152.977 133.843 154.55 143.213 156.25 152.564C156.44 153.605 155.979 154.666 154.887 154.966C153.925 155.23 152.69 154.637 152.486 153.602C151.431 148.235 150.577 142.86 149.815 137.446C148.475 127.913 147.474 118.335 146.831 108.73C146.508 103.905 146.309 99.0825 146.23 94.2476C146.194 92.0044 146.252 89.7558 146.371 87.5149L146.4 86.9979C146.532 84.7075 146.518 82.3122 147.281 80.1279ZM65.2824 140.773C65.3838 140.718 65.5093 140.831 65.4451 140.936C63.9757 143.325 61.9879 145.385 60.0667 147.415C58.0581 149.537 56.0993 151.723 54.0502 153.804C52.5696 155.307 50.188 152.882 51.7505 151.503C53.9475 149.565 56.2438 147.723 58.4798 145.827L59.4577 144.998C61.2911 143.449 63.1788 141.913 65.2824 140.773ZM135.073 139.577C134.963 139.368 135.214 139.198 135.384 139.337C136.569 140.301 137.631 141.451 138.776 142.469C139.909 143.476 141.085 144.417 142.293 145.333C143.506 146.254 144.745 147.138 146.018 147.974C147.073 148.668 148.161 149.224 149.267 149.799C149.779 149.865 150.253 150.117 150.632 150.593C151.232 151.347 151.296 152.768 150.464 153.422L150.315 153.54V153.54C149.344 154.303 148.191 154.396 147.235 153.54C146.167 152.583 145.158 151.531 144.133 150.521L143.825 150.219C142.723 149.148 141.649 148.042 140.636 146.886L139.718 145.843C138.017 143.901 136.245 141.809 135.073 139.577ZM129.613 27.6597C129.416 27.5291 129.538 27.1774 129.781 27.2613L130.227 27.4157C132.092 28.064 134.012 28.783 135.705 29.7813C137.525 30.8539 139.205 32.1317 140.81 33.5025C144.133 36.3399 146.96 39.8291 149.362 43.4658C154.182 50.7635 157.163 59.1211 159.57 67.4836C162.136 76.4001 164.112 85.5084 165.725 94.6425C167.365 103.925 168.629 113.292 169.46 122.682C169.87 127.307 170.145 131.936 170.283 136.577C170.354 138.965 170.352 141.351 170.332 143.74C170.327 144.354 170.331 144.968 170.338 145.582L170.361 147.425C170.374 148.589 170.513 149.813 170.236 150.951C169.791 152.783 166.764 152.441 166.863 150.569C166.772 149.946 166.768 149.302 166.792 148.657C166.777 148.574 166.762 148.49 166.745 148.403C166.695 148.156 166.737 147.926 166.834 147.73C166.85 147.42 166.864 147.113 166.869 146.81C166.889 145.581 166.888 144.356 166.854 143.126C166.782 140.534 166.679 137.941 166.575 135.35C166.367 130.172 166.077 124.992 165.658 119.826C164.198 101.847 161.115 83.7646 155.937 66.467C153.532 58.4344 150.217 50.5492 145.462 43.608C143.352 40.5265 140.971 37.6803 138.331 35.0386C135.674 32.3804 132.747 29.736 129.613 27.6597ZM93.7849 143.564L94.1437 146.161C94.3231 147.459 94.5007 148.758 94.6693 150.058C95.8146 149.901 96.9863 149.835 98.0899 149.737C100.022 149.566 101.967 149.483 103.905 149.403C107.912 149.238 111.939 148.951 115.95 148.971C115.992 148.971 116.031 148.974 116.069 148.977L116.268 143.854V143.854L113.45 143.85V143.85C111.062 143.846 108.675 143.826 106.287 143.805C104.137 143.787 101.986 143.784 99.8355 143.739L98.9141 143.717C97.2835 143.673 95.4831 143.764 93.7849 143.564ZM116.505 136.128C116.39 136.142 116.273 136.153 116.148 136.158C115.59 136.182 115.028 136.166 114.469 136.17C113.28 136.181 112.09 136.189 110.901 136.188C108.522 136.188 106.143 136.203 103.765 136.231C101.316 136.261 98.8693 136.303 96.4205 136.308C95.234 136.31 94.0513 136.279 92.8653 136.246C93.0571 137.932 93.2576 139.617 93.479 141.298C95.3208 141.049 97.3018 141.174 99.1018 141.157L99.3355 141.154C101.792 141.112 104.251 141.143 106.709 141.146C109.237 141.149 111.765 141.157 114.293 141.178L116.37 141.195V141.195L116.374 141.09V141.09C116.435 139.438 116.474 137.784 116.505 136.128ZM91.9515 128.062C92.1818 130.052 92.3979 132.046 92.6183 134.039C92.7647 134.016 92.913 133.997 93.0641 133.981C94.2522 133.857 95.4379 133.75 96.6303 133.676C99.0072 133.529 101.384 133.451 103.765 133.387C106.213 133.322 108.662 133.271 111.111 133.237C112.3 133.22 113.489 133.222 114.679 133.23C115.237 133.234 115.801 133.216 116.358 133.253C116.425 133.258 116.488 133.265 116.551 133.272L116.593 130.28C116.6 129.781 116.608 129.283 116.616 128.784C114.777 128.897 112.907 128.854 111.07 128.855L110.646 128.856C108.337 128.866 106.027 128.835 103.719 128.787C101.337 128.737 98.9606 128.659 96.5832 128.507C95.62 128.445 94.6637 128.363 93.7059 128.257L93.2267 128.202C92.8099 128.153 92.3806 128.113 91.9515 128.062ZM116.805 119.618C112.377 119.969 107.972 120.116 103.531 120.16L102.865 120.166C98.9405 120.195 94.9841 120.357 91.0507 120.253C91.2858 122.293 91.5203 124.333 91.7567 126.372C92.32 126.346 92.886 126.346 93.4365 126.326C94.5565 126.285 95.6726 126.275 96.7932 126.273C99.1017 126.267 101.41 126.288 103.719 126.283C106.098 126.278 108.477 126.238 110.856 126.193C112.785 126.157 114.734 126.012 116.668 126.017L116.805 119.618V119.618ZM116.993 110.915C116.48 111.086 115.874 111.097 115.21 111.127L113.495 111.213C112.7 111.252 111.906 111.288 111.111 111.317C108.461 111.414 105.812 111.505 103.162 111.589C100.446 111.676 97.7177 111.726 95.0018 111.64C93.6715 111.598 92.3523 111.528 91.026 111.417C90.6981 111.39 90.3639 111.372 90.029 111.348C90.3377 114.051 90.6476 116.753 90.9586 119.455C94.8732 118.974 98.8179 118.675 102.728 118.178L106.263 117.726C109.796 117.275 113.327 116.833 116.874 116.46L116.993 110.915V110.915ZM117.182 102.117C116.429 102.303 115.57 102.294 114.847 102.339L114.713 102.349C113.343 102.453 111.97 102.505 110.596 102.539C107.905 102.605 105.212 102.638 102.519 102.655L100.9 102.665C98.7418 102.677 96.5847 102.683 94.4257 102.632C93.0408 102.6 91.6591 102.532 90.2753 102.463C89.8608 102.442 89.437 102.428 89.012 102.407C89.3012 104.966 89.5934 107.524 89.8849 110.082C90.3396 110.01 90.7963 109.955 91.2318 109.881C92.347 109.693 93.4602 109.542 94.5835 109.407C97.0165 109.116 99.4621 108.906 101.906 108.729C104.416 108.547 106.927 108.393 109.437 108.217L111.215 108.092C111.807 108.05 112.4 108.011 112.993 107.974C114.005 107.912 115.182 107.982 116.186 107.762C116.458 107.649 116.76 107.623 117.062 107.687L117.182 102.117V102.117ZM117.409 91.8187C117.149 92.1496 116.76 92.3232 116.296 92.3832C113.879 92.6968 111.4 92.7472 108.963 92.895L108.534 92.9221C106.017 93.088 103.499 93.2182 100.981 93.352C98.3939 93.4894 95.8074 93.6014 93.2183 93.6916C92.1191 93.7299 91.0145 93.7344 89.9136 93.7203L89.4421 93.7132C88.99 93.7056 88.5165 93.7066 88.042 93.6912C88.3046 96.0837 88.5698 98.476 88.8387 100.868C89.3225 100.815 89.8061 100.775 90.2753 100.725C91.6583 100.579 93.0396 100.434 94.4257 100.325C97.0522 100.118 99.6806 99.9935 102.312 99.8633C105.004 99.7299 107.698 99.6412 110.39 99.5154C111.696 99.4543 113.001 99.3784 114.302 99.2584C115.215 99.1745 116.298 98.8638 117.25 98.9779C117.302 96.5914 117.356 94.205 117.409 91.8187ZM117.622 82.5932C117.581 82.657 117.532 82.7188 117.474 82.7762C116.41 83.8278 115.099 83.7467 113.689 83.8571L113.602 83.8641C112.22 83.9803 110.838 84.0908 109.454 84.1906C106.689 84.3903 103.918 84.53 101.149 84.6545C98.3149 84.782 95.4626 84.8697 92.6257 84.8118C90.809 84.7746 88.9063 84.7811 87.0533 84.604C87.3379 87.2389 87.6241 89.8736 87.9125 92.5081C88.4335 92.4098 88.9579 92.3346 89.4546 92.2564C90.7063 92.0594 91.9594 91.8613 93.2183 91.7164C95.7341 91.4266 98.2505 91.1557 100.771 90.9111C102.927 90.7021 105.082 90.4898 107.239 90.2987L108.534 90.1868C111.107 89.9702 113.714 89.613 116.296 89.5602C116.721 89.5515 117.203 89.7831 117.446 90.1488C117.504 87.6301 117.563 85.1117 117.622 82.5932ZM117.801 75.1247C117.143 75.2046 116.435 75.1592 115.829 75.179C114.295 75.2291 112.761 75.2756 111.227 75.3209L102.024 75.5927V75.5927C98.891 75.685 95.7467 75.7543 92.6122 75.71C91.2333 75.6906 89.8484 75.6883 88.47 75.6133L88.0108 75.5855C87.4435 75.5476 86.7474 75.5424 86.0675 75.4732L86.8701 82.91V82.91C88.7142 82.6435 90.6146 82.5438 92.4429 82.3876L92.8336 82.3531C95.5302 82.1073 98.2397 81.9448 100.941 81.7618C103.712 81.5741 106.48 81.3463 109.247 81.1131C110.63 80.9969 112.013 80.8809 113.395 80.7536L113.566 80.7368C114.872 80.6004 116.099 80.3103 117.255 81.0804C117.425 81.1928 117.557 81.3433 117.648 81.5117C117.698 79.3828 117.748 77.2537 117.801 75.1247ZM118.015 66.4456C112.41 66.6714 106.805 66.8425 101.196 66.9178C98.0386 66.9601 94.8854 66.9303 91.7286 66.8643C90.3598 66.8356 88.9796 66.7701 87.6119 66.6652L87.0996 66.624C86.4493 66.5693 85.766 66.5295 85.0858 66.464C85.367 69.0209 85.6458 71.5783 85.9226 74.136C86.5918 74.0116 87.2912 73.9542 87.8775 73.8792L88.0108 73.8615C89.4679 73.6609 90.9387 73.544 92.403 73.4151C95.2543 73.1638 98.1197 73.0019 100.979 72.8643C103.906 72.7234 106.835 72.604 109.763 72.4738L112.691 72.3426C113.179 72.321 113.667 72.2998 114.155 72.2791C114.853 72.2497 115.55 72.2216 116.247 72.1927C116.591 72.1785 116.949 72.1318 117.293 72.1496L117.391 72.1364C117.436 72.1306 117.476 72.126 117.513 72.1221C117.606 72.0507 117.707 71.9916 117.814 71.9467L117.879 71.9215L118.015 66.4456ZM84.1668 58.2207C84.427 60.5225 84.6844 62.825 84.9383 65.1277C85.7377 65.0363 86.5467 64.9858 87.31 64.9171C88.8491 64.7791 90.3953 64.6582 91.9391 64.5872L95.0244 64.4439C97.081 64.3488 99.1376 64.2567 101.196 64.1816C106.829 63.976 112.461 63.7403 118.091 63.4527C118.13 61.891 118.171 60.3294 118.213 58.7677C117.943 59.0572 117.553 59.2477 117.04 59.2464C111.13 59.2306 105.215 59.2648 99.3056 59.1676C96.3476 59.1187 93.393 59.0471 90.4384 58.8954C88.9927 58.8212 87.539 58.6698 86.1043 58.471C85.4925 58.3862 84.823 58.3258 84.1668 58.2207ZM83.2209 50.0184C83.4987 52.3763 83.7713 54.7349 84.0394 57.094C84.7733 56.963 85.5315 56.8932 86.2163 56.8C87.6875 56.5999 89.1679 56.4405 90.6497 56.3568C93.5331 56.1937 96.4182 56.1114 99.3055 56.0502C105.214 55.9246 111.129 55.9255 117.04 55.8787C117.595 55.8743 118.007 56.0941 118.278 56.4221C118.319 54.9497 118.362 53.4772 118.406 52.0045C117.836 51.9443 117.27 51.8589 116.746 51.8223C115.136 51.7099 113.526 51.6071 111.915 51.5148C108.553 51.3218 105.189 51.1572 101.824 51.0107C98.4596 50.8643 95.0937 50.7212 91.7278 50.5965L90.2557 50.5427C87.915 50.4556 85.5346 50.3456 83.2209 50.0184ZM82.1625 41.1381C82.4517 43.5262 82.7365 45.9146 83.0206 48.3035L83.107 49.0428V49.0428C85.9222 48.4954 88.889 48.335 91.7278 48.2143C95.0944 48.071 98.455 47.9973 101.825 48.0076C105.191 48.0178 108.552 48.0975 111.915 48.2365C113.596 48.3059 115.276 48.3862 116.956 48.4775C117.418 48.5024 117.959 48.4891 118.516 48.4971C118.528 48.1218 118.539 47.7464 118.552 47.3713C118.603 45.8508 118.653 44.3304 118.705 42.8101C117.569 43.3938 116.092 43.6293 114.95 43.878L114.82 43.9068C112.935 44.3304 111.01 44.6049 109.086 44.7727C105.307 45.1024 101.489 44.9792 97.7139 44.6599L97.0526 44.6033C93.7375 44.3157 90.3007 43.9512 87.0869 43.1305C85.5561 42.7397 83.9734 42.1928 82.6017 41.4C82.4591 41.3176 82.3118 41.2303 82.1625 41.1381ZM114.082 12.7589C114.115 12.6298 114.308 12.6004 114.372 12.7211C114.818 13.5694 114.984 14.5877 115.294 15.4967C115.628 16.474 115.939 17.4585 116.307 18.4239C117.076 20.4411 117.983 22.3793 119.064 24.2479C120.135 26.0981 117.137 27.4188 116.349 25.3932C115.535 23.3029 114.866 21.1417 114.462 18.9329C114.264 17.8552 114.088 16.7627 114.031 15.6677C113.982 14.7272 113.85 13.6764 114.082 12.7589Z" fill="black"/>
</svg>
