<svg width="248" height="162" viewBox="0 0 248 162" fill="none" xmlns="http://www.w3.org/2000/svg">
<path fill-rule="evenodd" clip-rule="evenodd" d="M136.512 0.147178C147.847 -0.664885 163.389 1.58294 166.668 14.5133C167.684 19.2185 169.688 21.2837 173.054 24.3609C194.419 51.7173 119.876 56.3154 116.044 29.6394C107.971 32.5808 99.1831 33.2036 91.1052 36.1766C86.7242 37.7956 82.7515 40.3503 78.9447 43.0214C63.4209 54.0515 48.1169 65.3964 32.6486 76.5056C38.6344 79.2631 50.015 89.7913 45.3776 96.866C44.2974 98.2441 42.6939 99.1941 41.2754 100.201L40.5274 100.736C38.9183 101.889 36.2095 103.855 34.7116 104.924L34.4353 105.125C34.327 105.204 34.2048 105.292 34.0945 105.371C44.8966 121.17 57.5386 135.747 71.5617 148.763C72.7558 149.873 72.2667 152.356 70.5386 152.645L68.4797 152.948C61.8318 153.916 55.0576 154.788 48.3584 154.262C41.8338 153.552 37.9021 147.774 33.4419 143.589C24.535 134.481 16.2438 124.766 8.69187 114.504L8.53462 114.287C6.18421 111.074 3.06448 107.79 2.83616 103.641C2.41976 102.394 3.5156 100.606 4.56856 99.7557L4.92803 99.2367C10.5755 91.1114 16.9671 83.2754 24.9749 77.3911C24.9451 76.5143 25.3503 75.5926 26.1527 75.0116L59.6192 50.7833V50.7833C68.2541 44.8386 76.28 37.8521 85.6395 33.0517C95.21 28.442 106.01 28.2608 115.818 24.4136C116.026 21.6407 121.853 20.933 121.669 21.3611C127.818 17.6485 130.983 13.2312 131.959 9.17129C132.935 5.11141 131.722 1.40898 136.512 0.147178ZM219.272 87.1326C229.62 71.5557 239.484 88.7902 243.792 99.1775C248.882 113.393 238.341 130.878 231.531 143.133C229.023 146.536 225.724 153.714 221.303 154.235C210.165 154.189 199.012 153.405 187.867 153.171C180.671 151.385 190.767 140.567 197.742 144.518C199.855 145.309 200.911 147.709 202.971 148.479C203.722 148.639 203.774 148.304 204.079 147.556L204.122 147.452C204.667 146.158 205.195 144.857 205.731 143.559C210.268 132.381 215.065 121.301 219.835 110.226C220.854 107.822 219.425 105.841 217.567 104.409C216.145 103.238 210.03 100.379 215.791 101.637C213.573 96.4861 216.238 91.2575 219.272 87.1326ZM193.579 65.8095C194.576 65.685 195.855 66.6895 196.009 67.6626C197.28 75.7289 195.864 83.7037 194.166 91.5943L193.854 93.0391C193.228 95.917 192.528 98.8514 190.966 101.374C189.373 103.948 186.962 105.888 184.194 107.068C175.316 110.607 164.274 107.107 157.743 100.49C153.564 94.7641 157.238 87.5716 157.939 81.2962C157.276 79.6053 157.032 77.6495 156.648 75.9061L156.602 75.6979L155.113 69.1942C154.784 67.7597 155.829 65.7968 157.546 65.9938C169.519 67.3676 181.621 67.3058 193.579 65.8095Z" fill="#D08B5B"/>
<rect x="154.436" y="66.1528" width="42.0423" height="42.2701" fill="#FD6B6B"/>
<path fill-rule="evenodd" clip-rule="evenodd" d="M235.394 85.0946C235.358 84.9342 235.55 84.8114 235.675 84.9321C237.781 86.963 239.268 89.5584 240.901 91.9635C242.456 94.2546 244.149 96.4568 245.309 98.9848C246.386 101.335 247.081 103.719 247.288 106.302C247.495 108.865 247.227 111.435 246.775 113.961C245.885 118.936 243.984 123.647 241.897 128.223C239.867 132.671 237.574 136.993 235.153 141.236L234.285 142.751C233.226 144.595 232.156 146.436 231.01 148.223C229.584 150.446 228.282 152.742 226.402 154.597C225.067 155.918 222.551 154.597 223.159 152.71C223.423 151.888 223.63 151.114 224.04 150.351C224.351 149.77 224.701 149.206 225.031 148.633C225.69 147.488 226.343 146.338 227.002 145.192C228.386 142.785 229.844 140.422 231.215 138.006C233.594 133.817 235.84 129.55 237.825 125.158L238.059 124.64C239.886 120.573 241.618 116.361 242.42 111.961C243.266 107.327 242.509 102.958 240.863 98.602C240.012 96.349 239.055 94.1468 238.06 91.953L237.869 91.534C236.908 89.44 235.889 87.3574 235.394 85.0946ZM133.109 4.92515C133.128 4.84293 133.267 4.83659 133.28 4.92515C133.871 8.86091 132.555 13.0243 130.411 16.2981C129.24 18.0861 127.797 19.7009 126.097 20.9985L125.964 21.0985C124.227 22.3979 121.879 23.6526 119.723 22.81C119.655 22.7842 119.592 22.7549 119.532 22.7213C119.775 23.0973 119.999 23.4925 120.228 23.8877C120.906 25.0649 121.514 26.2844 122.175 27.4722C123.359 29.5963 124.768 31.4963 126.549 33.1596C133.67 39.8094 143.67 41.3899 153.061 41.3142L153.725 41.3079C157.85 41.2789 163.245 41.4896 166.43 38.5028C168.141 36.8986 169.083 34.618 169.935 32.477C170.771 30.3783 171.344 28.2119 172.039 26.0773C170.587 25.082 169.256 23.8668 168.211 22.4463C167.12 20.9668 166.297 19.3014 165.821 17.5239L165.751 17.2584C165.383 15.841 165.014 13.966 165.606 12.627C165.673 12.4727 165.927 12.4832 165.999 12.627C166.318 13.2674 166.379 13.9902 166.575 14.6749C166.804 15.4717 167.061 16.2643 167.401 17.0188C168.059 18.4814 168.927 19.872 169.968 21.0894C170.828 22.0974 171.76 23.0233 172.825 23.8011C173.452 22.7168 174.908 22.571 176.127 22.9282C177.761 23.4057 179.373 24.0188 180.948 24.6665L181.263 24.7965C182.82 25.4432 184.58 26.0371 186.037 26.9185C186.923 27.3412 187.772 27.766 188.57 28.1422C192.55 30.0122 196.47 31.9964 200.373 34.0191L201.209 34.4531C202.844 35.3048 204.464 36.165 205.886 37.3528C207.333 38.5618 208.457 40.2145 209.513 41.7637C211.928 45.3059 214.204 48.9496 216.591 52.5109C221.412 59.6968 226.233 66.8827 231.082 74.0517C232.254 75.7871 233.577 77.4798 234.629 79.289C235.637 81.018 235.609 82.7932 235.413 84.7228L235.376 85.0772C234.999 88.6167 234.352 92.0162 232.366 95.0515C229.242 99.8238 224.319 102.795 219.111 104.841C219.747 105.315 220.345 105.826 221.104 106.152C222.27 106.65 223.514 106.908 224.775 107.012C226.121 107.12 227.638 106.784 228.728 107.699C229.166 108.064 229.178 108.944 228.728 109.309C227.68 110.165 226.326 109.92 225.048 109.776L224.972 109.768C223.787 109.637 222.618 109.417 221.505 108.982C221.23 108.874 220.958 108.753 220.694 108.62C220.702 108.643 220.706 108.671 220.702 108.7C220.512 110.157 220.1 111.533 219.664 112.925L219.388 113.807C218.826 115.607 218.26 117.404 217.677 119.2C216.567 122.62 215.359 126.008 214.146 129.391L213.099 132.311C212.023 135.306 210.934 138.297 209.731 141.242C208.987 143.059 208.24 144.877 207.494 146.693C206.765 148.466 206.159 150.381 205.254 152.07C204.511 153.46 202.482 152.465 202.808 151.036C203.235 149.162 204.04 147.301 204.654 145.478C205.28 143.626 205.892 141.773 206.528 139.925C207.634 136.716 208.859 133.55 210.09 130.387L211.31 127.251C212.507 124.178 213.718 121.109 215.013 118.076L215.154 117.744C216.499 114.572 217.887 111.005 220.33 108.546C220.362 108.513 220.406 108.495 220.451 108.491C219.851 108.166 219.289 107.771 218.794 107.303L218.77 107.279C218.575 107.072 217.768 106.052 217.508 105.441C217.17 105.562 216.832 105.678 216.494 105.792C215.904 105.991 215.416 105.847 215.072 105.532L214.416 105.938C213.715 106.367 212.961 106.773 212.186 106.794C211.21 106.819 210.443 106.281 209.921 105.486C209.452 104.776 209.173 104.008 208.58 103.372C207.996 102.747 207.32 102.219 206.63 101.715L205.816 101.123C204.324 100.033 202.877 98.9321 201.675 97.4926C201.071 96.7655 200.262 95.9032 199.894 95.0301C199.823 94.8615 199.778 94.7029 199.77 94.5485C199.69 95.0937 199.607 95.6411 199.525 96.1864C198.371 103.861 197.44 111.588 197.142 119.348C196.996 123.176 196.93 127.008 197.101 130.837C197.186 132.75 197.325 134.661 197.518 136.567C197.613 137.522 197.712 138.475 197.828 139.427L197.855 139.647C197.889 139.938 197.911 140.22 197.885 140.488C198.815 140.946 199.349 142.104 199.721 143.009C200.004 143.698 199.785 144.368 199.328 144.852C199.873 145.349 200.359 145.932 200.767 146.6C200.849 146.735 200.672 146.841 200.566 146.756C199.897 146.224 199.176 145.786 198.424 145.45C198.029 145.6 197.598 145.64 197.201 145.53C196.77 145.412 196.398 145.125 196.13 144.759C193.994 144.408 191.773 144.837 189.851 146.175C189.451 146.454 189.09 146.769 188.746 147.111C188.687 147.171 188.625 147.247 188.564 147.321L188.984 147.482C189.157 147.548 189.3 147.599 189.354 147.61C189.721 147.685 190.092 147.725 190.464 147.757L191.021 147.802C193.161 147.98 195.295 148.039 197.285 148.935C197.704 149.123 197.558 149.768 197.163 149.876C195.71 150.27 194.267 150.239 192.788 150.134L192.471 150.11C191.095 150.005 189.618 150.011 188.277 149.631C188.598 150.51 188.161 151.657 186.819 151.837C182.79 152.374 178.736 152.12 174.703 151.765C170.63 151.406 166.559 151.066 162.475 150.852C149.265 150.157 136.035 150.291 122.813 150.479L115.342 150.588C109.383 150.672 103.424 150.737 97.4652 150.691L94.6762 150.665C93.4975 150.654 92.3181 150.64 91.1408 150.605L90.4346 150.582C89.0318 150.531 87.1747 150.742 85.9557 149.911C84.9501 149.227 84.7261 147.971 85.3325 146.959C85.5078 146.667 85.7487 146.407 86.0001 146.154C86.5156 141.747 86.805 137.319 87.1008 132.894C88.1275 117.406 87.5275 101.999 85.1592 86.6672C78.8043 88.6097 72.5466 91.0464 66.4494 93.6608C63.1515 95.0747 59.8705 96.5415 56.6275 98.0801C53.6677 99.4856 50.6951 101.242 47.5325 102.155C47.245 102.41 46.843 102.532 46.4864 102.418L46.4402 102.402H46.4381C46.1128 102.478 45.7515 102.432 45.3966 102.218C45.3247 102.175 45.2529 102.131 45.1811 102.086L45.0733 102.018C43.9599 101.316 42.8402 100.451 42.0522 99.3947C41.0951 100.282 40.0663 101.096 39.0543 101.92C37.9557 102.816 36.8613 103.717 35.7754 104.626C35.3444 104.987 34.8691 105.332 34.4888 105.748L34.4336 105.809C34.4247 105.819 34.4163 105.829 34.4085 105.839C36.0543 106.904 37.4951 108.521 38.786 109.926C40.1721 111.435 41.5103 112.991 42.8376 114.554L44.1225 116.069C53.2083 126.803 62.3871 137.925 74.1501 145.814C76.0092 147.061 74.2367 150.098 72.3902 148.823C68.8958 146.416 65.5895 143.742 62.4142 140.929C56.8494 136.003 51.8423 130.476 47.1543 124.717C44.7818 121.802 42.4789 118.816 40.2226 115.81L39.4568 114.791C38.4363 113.431 37.4212 112.067 36.4494 110.672L36.246 110.38C35.3936 109.149 34.4871 107.767 33.9374 106.35C33.7261 106.564 33.4874 106.743 33.1388 106.879C32.543 107.111 31.812 106.623 31.6663 106.042C31.3113 104.632 32.5367 103.793 33.5339 103.045C34.7444 102.14 35.9782 101.267 37.2142 100.399L37.6556 100.086C39.2012 98.9899 40.7548 97.8644 42.4388 96.998C42.4895 96.9304 42.5508 96.867 42.6205 96.812C42.7008 96.7486 42.7789 96.6873 42.8592 96.626C40.848 93.3628 38.6423 90.2263 36.1811 87.263C34.3304 85.0337 32.3656 82.9052 30.2867 80.8889L29.3528 79.9843C27.9402 78.6195 26.4714 77.2352 24.9036 76.049L24.4128 76.6056C23.7574 77.3472 23.0956 78.083 22.3958 78.7796C21.0184 80.1492 19.6599 81.5464 18.3078 82.9432C16.0623 85.2675 13.8929 87.6631 11.7304 90.0622L10.6494 91.2617C8.39726 93.762 5.98458 96.216 3.9374 98.8873L3.83516 99.0225C2.9414 100.222 2.30518 101.549 2.7205 103.072C3.12122 104.541 4.07397 105.843 4.89518 107.111L4.97683 107.238C8.32965 112.463 11.9212 117.554 15.7684 122.426C23.4733 132.184 32.262 141.432 42.7494 148.217C44.2029 149.157 42.8444 151.495 41.3888 150.544C35.2642 146.539 29.6381 141.728 24.462 136.563C19.7106 131.822 15.405 126.602 11.3698 121.244C9.40289 118.63 7.51838 115.96 5.71205 113.232C3.96064 110.584 1.93458 107.86 0.664862 104.938C-0.000578563 103.402 -0.245701 101.739 0.299369 100.12C0.799241 98.6317 1.78781 97.3962 2.81623 96.2339L2.91275 96.1251C5.27683 93.4685 7.68317 90.8435 10.1106 88.2439C12.5466 85.6358 15.0944 83.1207 17.6951 80.6796C19.7381 78.7585 21.8677 77.0653 24.1451 75.4973C23.9402 75.3515 23.7353 75.212 23.5261 75.0767C22.8902 74.6625 22.7297 73.7769 23.2874 73.2148C24.8106 71.6759 26.5663 70.3381 28.2184 68.9372C29.7712 67.6203 31.324 66.3015 32.8768 64.9827C36.0374 62.3027 39.198 59.6207 42.3585 56.9387C48.0353 52.122 53.6804 47.2715 59.3381 42.4337C61.6973 40.4171 64.0784 38.4254 66.4535 36.4281L70.6732 32.8756V32.8756L72.737 31.1422C73.7944 30.2562 74.8744 29.3801 76.0768 28.7044C78.9062 27.1144 82.3078 26.4266 85.4251 25.5842L85.6325 25.5278C89.1289 24.5706 92.6444 23.67 96.1789 22.8669C99.7177 22.0638 103.271 21.3325 106.84 20.6707C110.047 20.0749 113.33 19.5635 116.6 19.4874C117.411 19.1788 118.43 19.071 119.228 19.4007C119.558 19.5381 119.902 19.7389 120.209 19.9925C121.808 19.4303 123.386 19.1619 124.88 18.2108C126.371 17.2621 127.692 16.0149 128.803 14.6411C131.099 11.7964 132.301 8.43589 133.109 4.92515ZM169.871 101.257C168.604 101.168 167.463 101.692 166.33 102.25C166.968 102.527 167.606 102.802 168.244 103.074L172.491 104.888V104.888C173.894 105.486 175.379 106.006 176.712 106.743C176.807 106.796 176.883 106.86 176.94 106.934C178.326 106.046 179.792 105.254 181.197 104.41C181.518 104.218 181.842 104.025 182.165 103.833C180.492 104.393 178.776 104.674 176.959 104.148C174.536 103.448 172.432 101.436 169.871 101.257ZM173.344 97.0043L173.117 96.8495C171.887 96.0058 170.42 94.9213 168.927 95.6792C168.223 96.0364 167.647 96.6133 166.954 96.998C166.256 97.3869 165.49 97.6849 164.712 97.8645C163.421 98.1625 161.942 98.2069 160.554 97.9193L160.575 99.7963V99.7963C161.625 100.23 162.669 100.674 163.713 101.121C164.39 100.89 165.042 100.611 165.728 100.306L166.191 100.099C167.511 99.5044 168.844 99.1075 170.304 99.2954C173.053 99.6483 175.13 101.692 177.758 102.373C180.98 103.21 183.887 100.804 186.931 100.211C187.433 100.112 187.95 100.054 188.465 100.045L188.636 100.044L188.712 99.9992C189.367 99.6145 190.347 99.247 190.804 98.6C191.3 97.8984 191.342 96.7232 191.505 95.899C191.522 95.8166 191.539 95.732 191.554 95.6496C191.266 95.6496 190.975 95.6642 190.679 95.7193C189.749 95.8905 188.875 96.2202 188.009 96.5882C186.371 97.2833 184.77 98.0759 183.046 98.5387C181.358 98.9929 179.594 99.2087 177.855 98.9572C176.159 98.7118 174.749 97.947 173.344 97.0043ZM173.609 90.4057L173.354 90.2417C172.683 89.8131 171.913 89.3691 171.09 89.5268C170.355 89.6684 169.723 90.2538 169.083 90.6152C167.678 91.4078 166.102 91.841 164.494 91.951C163.157 92.0418 161.769 91.8791 160.482 91.4818L160.527 95.6371V95.6371C160.998 95.787 161.486 95.8947 161.999 95.9328C163.559 96.049 165.08 95.6749 166.387 94.8147L167.049 94.3754C168.181 93.6312 169.243 93.0407 170.742 93.3123C172.225 93.5826 173.469 94.5337 174.682 95.3621L174.881 95.4957C176.273 96.4155 177.685 97.0092 179.393 97.0234C181.237 97.0379 183.061 96.5246 184.778 95.8926C186.483 95.2672 188.104 94.5167 189.927 94.2864C190.485 94.2166 191.165 94.1955 191.805 94.3054C191.889 93.8341 191.97 93.3651 192.046 92.8936C192.211 91.8812 192.352 90.871 192.475 89.8586C189.24 88.9878 186.253 91.8051 183.249 92.6738C181.506 93.1768 179.609 93.1707 177.866 92.6843C176.253 92.2341 174.985 91.2995 173.609 90.4057ZM173.617 83.4082C172.926 83.275 172.244 83.5942 171.656 83.9218C170.159 84.7526 168.866 85.9085 167.169 86.3459C164.987 86.9081 162.599 86.4241 160.432 85.5048C160.44 86.7875 160.451 88.0706 160.461 89.3535C160.869 89.508 161.287 89.6324 161.714 89.7318C163.231 90.0784 164.839 90.0319 166.332 89.5944C167.856 89.1482 169.024 87.9438 170.551 87.5676C172.113 87.1816 173.586 87.9325 174.844 88.786L175.223 89.0446C176.662 90.0214 178.058 90.8701 179.858 91.0358C181.761 91.2112 183.416 90.6152 185.116 89.825L185.512 89.6417C187.665 88.6522 190.46 87.5259 192.61 88.6518C192.779 87.054 192.901 85.4564 192.984 83.8562C192.688 83.7463 192.382 83.666 192.029 83.6639C191.186 83.6599 190.301 83.926 189.515 84.2029C187.797 84.8094 186.198 85.7138 184.497 86.3629C182.885 86.98 181.1 87.3012 179.38 87.0246C177.787 86.7686 176.592 85.9359 175.491 84.7946L175.331 84.6259C174.848 84.1122 174.332 83.547 173.617 83.4082ZM174.878 77.4756C174.082 77.0552 173.112 76.664 172.191 76.7866C171.312 76.9025 170.726 77.499 170.185 78.1365L169.892 78.4855C168.924 79.6314 167.971 80.5949 166.478 81.0664C164.932 81.5525 163.292 81.3623 161.854 80.6501C161.342 80.3964 160.867 80.0815 160.389 79.7708L160.415 83.1417V83.1417C161.37 83.6172 162.342 84.0465 163.409 84.3064C165.378 84.7862 167.051 84.4311 168.735 83.3448L168.911 83.2296C170.18 82.3965 171.48 81.4045 173.047 81.3116C174.575 81.2201 175.723 82.0679 176.729 83.1056L176.847 83.2285C178.117 84.5683 179.399 85.2216 181.288 85.0673C183.119 84.9175 184.833 84.1088 186.51 83.412L186.663 83.349C188.197 82.719 189.965 82.0703 191.649 82.3113C192.052 82.3683 192.574 82.493 193.039 82.7107C193.106 81.1338 193.138 79.5553 193.144 77.9744C192.187 77.144 190.698 77.0064 189.5 77.3466C187.624 77.8793 186.088 79.253 184.297 79.9991C182.708 80.6606 181.051 80.8086 179.431 80.1828C177.758 79.5362 176.446 78.3041 174.878 77.4756ZM193.039 70.8349C190.235 70.9322 187.493 72.7561 184.816 73.4515C181.826 74.2277 179.386 73.1695 176.722 71.9948L176.378 71.8433C175.011 71.2431 173.543 70.7039 172.028 70.9491C170.551 71.1902 169.246 72.0079 167.976 72.7477L167.733 72.8878C165.42 74.2051 163.064 75.1069 160.364 74.8821C160.379 75.7298 160.373 76.5752 160.375 77.4037C160.818 77.6573 161.245 77.9448 161.651 78.2068L161.796 78.2991C163.084 79.1044 164.411 79.6337 165.946 79.1368C167.429 78.6549 168.126 77.3636 169.144 76.3005C170.08 75.324 171.301 74.7303 172.67 74.7872C174.143 74.8462 175.535 75.4952 176.752 76.2878C177.969 77.0803 179.146 78.1052 180.57 78.5027C183.764 79.3902 186.5 76.0109 189.521 75.4847C190.789 75.2627 192.187 75.5438 193.144 76.3087C193.134 74.4871 193.094 72.661 193.039 70.8349ZM168.908 70.0699C168.513 70.0847 168.118 70.1016 167.723 70.1185C166.261 70.1819 164.799 70.2537 163.337 70.3362C162.325 70.3909 161.08 70.7018 160.087 70.3932C160.062 70.4947 160.028 70.5921 159.984 70.687C160.134 71.4352 160.227 72.2087 160.284 72.9907C161.201 73.0901 162.132 73.0562 163.037 72.8681C165.206 72.418 166.968 71.0484 168.908 70.0699ZM192.997 69.4422C187.658 69.81 182.278 69.6834 176.931 69.799L176.29 69.8141C176.264 69.8141 176.239 69.8165 176.213 69.8165C176.827 70.0542 177.435 70.3264 178.041 70.6036L178.647 70.8814C180.08 71.5409 181.537 72.0798 183.141 71.9636C184.859 71.8389 186.477 71.1374 188.082 70.5708C189.614 70.0297 191.378 69.6662 193.011 69.9029C193.007 69.7486 193.003 69.5964 192.997 69.4422Z" fill="black"/>
</svg>
