<svg width="173" height="167" viewBox="0 0 173 167" fill="none" xmlns="http://www.w3.org/2000/svg">
<path fill-rule="evenodd" clip-rule="evenodd" d="M86.5088 0.633353C89.348 -0.152871 92.6119 -0.0613559 95.5248 0.139638C98.483 0.344014 101.657 0.694433 104.433 1.79937C106.846 2.75996 108.881 4.37531 110.121 6.69002C111.14 8.5928 111.619 10.6797 111.918 12.7993C112.041 13.6668 112.143 14.5362 112.241 15.4065L112.441 17.2172C112.52 17.9096 112.589 18.4287 112.726 19.2011C113.107 21.3376 113.638 23.1227 114.822 24.6772C117.69 28.4405 122.374 29.7001 126.632 31.3064C129.358 32.3342 131.516 34.1831 132.115 37.1541C132.692 40.0202 154.656 64.0658 156.813 66.0929L156.872 66.1475C158.544 67.654 158.348 70.4859 158.582 72.5535C158.832 74.7704 159.071 76.9889 159.298 79.2081C159.758 83.7168 160.168 88.2304 160.528 92.7478C161.935 110.415 162.573 128.144 162.437 145.867L162.429 146.87C162.408 149.12 162.424 151.379 162.324 153.626C162.227 155.785 161.573 157.947 159.573 159.075C157.72 160.12 155.377 160.028 153.306 160.132L153.182 160.139C150.959 160.261 148.736 160.36 146.512 160.443C137.473 160.777 128.425 160.813 119.381 160.772C101.438 160.689 83.4766 160.295 65.5506 161.3C60.9811 161.556 46.4133 159.999 41.8582 160.443C37.5044 160.866 41.24 163.003 38.5504 162.862C29.705 162.399 21.3147 160.425 12.84 158.046C11.7813 157.749 10.9717 156.721 10.985 155.61C11.1424 143.407 11.4868 131.208 12.0249 119.016C12.5043 108.155 13.1359 97.3016 13.9195 86.4589C14.2602 81.7459 14.6296 77.0349 15.0275 72.3264L15.1998 70.3086C15.4246 67.7064 15.5539 65.0565 16.0654 62.4905C16.5714 59.9526 17.7192 57.7518 19.3836 55.7854C20.877 54.0213 37.7858 40.2108 41.8582 37.5962C45.7561 35.0934 49.8492 32.982 53.8508 30.6624C55.5156 29.6974 57.1145 30.0447 58.5367 28.8601C59.2865 28.2357 70.1661 24.0281 73.1014 22.6398L73.1879 22.5986C75.4345 21.5203 77.502 20.3511 79.0544 18.4865C79.5747 17.8616 80.5954 13.9239 80.5973 12.6657C80.6009 10.4182 80.4306 8.05069 81.1083 5.87357C81.9188 3.27016 83.8721 1.36336 86.5088 0.633353ZM91.3222 58.5839L73.9375 92.4529H85.242L77.1389 111.271H94.9338L88.6213 137.629L124.72 92.4529H111.174L124.72 74.6659H115.325L124.72 59.6026L91.3222 58.5839Z" fill="#D08B5B"/>
<path fill-rule="evenodd" clip-rule="evenodd" d="M131.475 56.5973L124.72 133.551L68.4585 134.946V52.8235L131.475 56.5973Z" fill="#FDEA6B"/>
<path fill-rule="evenodd" clip-rule="evenodd" d="M149.721 77.6292C149.681 77.6691 149.638 77.7095 149.598 77.7517C149.645 77.6862 149.685 77.6184 149.721 77.551V77.6292ZM115.935 67.7631C114.374 69.7585 112.722 73.8185 111.205 75.8496C110.987 76.141 110.774 76.4329 110.562 76.7265C109.933 77.6078 110.774 78.9562 111.809 78.8994C113.877 78.7893 115.943 78.6352 118.01 78.4788C113.765 83.2107 110.241 89.0886 106.343 94.1016C106.079 94.4376 105.819 94.776 105.56 95.1139C104.573 96.4011 105.562 96.9846 106.91 96.6378C107.188 96.5661 107.467 96.4943 107.746 96.4245C109.707 95.9215 111.665 95.4185 113.626 94.9176C114.71 94.6384 115.8 94.2941 116.898 94.0807C117.35 93.994 117.784 94.0659 118.21 94.0891C118.005 94.4017 117.718 94.966 117.661 95.0527C117.021 96.0502 116.376 97.0436 115.728 98.0327C114.465 99.9562 113.195 101.877 111.879 103.765C106.745 111.124 101.207 118.149 95.7187 125.24C94.3371 127.024 92.9364 128.789 91.5124 130.536C91.5187 130.526 91.523 130.515 91.5293 130.505C92.8117 128.006 94.0941 125.511 95.3765 123.012C97.8145 118.265 100.229 113.506 102.693 108.772C102.819 108.524 102.948 108.279 103.077 108.032C103.588 107.051 102.75 106.033 101.7 106.239C96.5773 107.249 91.5046 108.49 86.4948 109.959C86.2694 110.199 85.9379 110.269 85.6419 110.211C85.4406 110.272 85.2384 110.329 85.0371 110.391C85.0981 110.264 85.1613 110.139 85.2228 110.012C85.018 109.834 84.9162 109.559 85.0493 109.215C87.9321 101.774 91.8844 94.5904 96.5674 88.0115C96.379 88.0151 96.1909 88.0179 96.0018 88.0234C90.8617 88.1628 85.8187 88.9005 80.8645 90.3015C80.8413 89.8429 81.118 89.1329 81.268 88.7948C81.868 87.444 82.5568 86.1252 83.2011 84.7958C84.5194 82.0652 85.8378 79.3369 87.1561 76.606C88.4448 73.9388 89.723 71.2633 90.9356 68.558C91.5716 67.1396 92.2075 65.7193 92.8413 64.2993C93.3589 63.143 93.7666 61.9784 94.1955 60.7951C95.4547 61.165 111.623 61.2451 115.553 61.5179C116.516 61.5855 117.481 61.6468 118.447 61.6997C119.216 61.7441 120.3 61.9131 120.83 61.2178L121.031 61.3867C119.286 63.4748 117.612 65.6202 115.935 67.7631V67.7631ZM52.8103 28.9679C52.8906 28.9319 52.9687 28.896 53.0469 28.8601C53.0871 28.9171 53.1356 28.97 53.1863 29.0228C53.3131 29.1517 53.4378 29.291 53.5687 29.418C53.3152 29.2699 53.0617 29.1198 52.8103 28.9679V28.9679ZM165.805 147.745C165.659 144.665 165.496 141.586 165.323 138.506C164.981 132.487 164.628 126.468 164.157 120.457C163.2 108.277 162.308 96.101 160.874 83.9652C160.272 78.878 159.431 73.8291 158.588 68.7776C158.695 68.6804 158.805 68.5831 158.913 68.4882C158.797 69.8703 160.673 70.7455 161.603 69.3673C161.672 69.2639 161.74 69.1603 161.807 69.0526C162.612 67.7506 164.467 61.3634 164.338 60.8224C164.106 59.848 163.46 58.9817 162.955 58.1236C162.513 57.3731 162.067 56.6228 161.615 55.8791C160.713 54.3889 159.784 52.9138 158.81 51.4701C156.792 48.4818 154.586 45.6117 151.988 43.103C149.298 40.5034 146.212 38.3664 143.024 36.4285C141.492 35.4984 139.912 34.6553 138.302 33.8689C136.713 33.0953 134.974 32.2393 133.263 31.7997C133.166 31.7744 133.067 31.9099 133.155 31.9817C133.61 32.341 134.085 32.679 134.569 33.0044C133.259 32.5502 131.909 32.2224 130.548 32.1062C127.914 31.1805 125.248 30.3332 122.626 29.3671C120.048 28.416 117.509 27.3468 115.795 25.0938C114.331 23.1682 113.406 20.8118 112.694 18.5166C111.912 15.9867 111.602 13.3573 110.879 10.8232C110.822 10.6182 110.486 10.595 110.442 10.8232C109.926 13.482 109.95 16.4707 110.243 19.1547C110.552 21.9698 111.344 24.7324 113.068 27.0213C115.071 29.6822 117.788 31.1636 120.845 32.345C123.31 33.3005 125.807 34.2725 128.332 35.1264C128.003 35.3422 127.669 35.5575 127.324 35.7626C125.955 36.5765 124.531 37.2993 123.076 37.9481C120.418 39.1336 117.619 40.0215 114.803 40.7422C109.561 42.0777 104.186 42.7563 98.7821 42.8451C87.9694 43.0248 77.0363 40.7591 67.1469 36.3841C64.3624 35.152 61.6434 33.797 58.9518 32.3748C58.111 31.9308 57.2659 31.4827 56.4251 31.022C56.4948 31.018 56.5666 31.0116 56.6363 31.0051C58.5145 30.8277 60.3694 30.4663 62.1863 29.9549C65.9068 28.9045 69.473 27.2665 72.9758 25.6537C75.9462 24.2862 79.0054 22.7286 80.8201 19.8798C81.7899 18.356 82.2356 16.5679 82.5969 14.818C83.0004 12.8693 83.4758 10.912 83.7694 8.94453C83.873 8.25553 83.7187 7.32347 82.9793 6.99799C82.6835 6.86886 82.4406 6.76318 82.1089 6.76318C81.3758 6.76318 80.6237 7.296 80.4483 8.02727C80.0152 9.85122 79.7532 11.7259 79.4131 13.5687C79.1194 15.1622 78.8511 16.8258 77.9913 18.2268C76.4892 20.6808 73.5441 21.936 71.0554 23.1304C67.9011 24.6436 64.7448 26.1186 61.468 27.3468C60.0251 27.8876 58.5568 28.3782 57.0673 28.7795C57.1265 28.4141 57.0758 28.0292 56.8603 27.7397C56.5011 27.262 56.0934 26.945 55.6307 26.5796C55.1279 26.182 54.4518 25.9751 53.8582 26.1506C53.8582 26.1525 53.8561 26.1506 53.8561 26.1506C53.6152 26.0977 53.349 26.1186 53.0744 26.2433C52.2251 26.6324 51.3779 27.0253 50.5307 27.425C38.3427 33.161 26.5011 39.8987 17.5328 50.1597C16.2399 51.6392 15.0293 53.1949 13.8948 54.7989C12.792 56.3567 11.4272 58.0475 11.123 59.9791C11.0976 60.1399 11.3321 60.2139 11.3723 60.0488C11.4441 59.7508 11.5413 59.4592 11.6617 59.1759C11.4103 60.0554 11.4251 60.9895 11.78 61.9087C12.2004 62.9908 12.9716 63.7075 13.9455 63.9926C12.9673 68.2811 12.3103 72.6265 11.7821 77.0203C11.0237 83.3502 10.4849 89.6951 10.0793 96.0566C9.26804 108.753 8.90677 121.512 9.16874 134.231C9.24269 137.826 9.36522 141.421 9.55114 145.014C9.6441 146.81 9.7455 148.605 9.8617 150.401C9.97579 152.168 9.88283 154.115 11.423 155.047C11.442 155.117 11.4631 155.184 11.4821 155.254C11.8561 156.558 13.523 156.139 13.6793 154.956C13.6814 154.943 13.6835 154.928 13.6856 154.916C14.9448 153.954 14.7547 152.352 14.6617 150.815C14.5624 149.156 14.4568 147.499 14.368 145.842C14.199 142.664 14.0554 139.485 13.9265 136.304C13.6751 130.014 13.5335 123.716 13.4871 117.422C13.3941 104.832 14.1209 92.2607 14.9828 79.7067C15.3441 74.4545 15.7666 69.2257 15.8955 63.9757C16.5694 63.6249 16.7765 62.6275 16.4385 61.9554C24.4202 67.4038 31.8272 73.9176 37.7744 81.4884C38.7673 82.7521 39.7159 84.054 40.6244 85.3794C40.9201 85.8103 41.2011 86.2586 41.4842 86.7064C41.2096 87.9555 40.9962 89.2257 40.7173 90.4241C40.1427 92.8992 39.8997 95.4669 39.5702 97.9822C38.9004 103.091 38.4293 108.245 38.03 113.381C37.2441 123.524 36.661 133.664 36.4772 143.837C36.3758 149.589 36.2406 155.378 36.4941 161.129C36.3061 162.254 37.318 163.353 38.3765 163.494C39.304 163.619 40.1702 163.137 40.5758 162.361C43.4659 162.721 46.4321 162.886 49.3032 162.907C53.1716 162.934 57.0399 162.93 60.9082 162.847C68.6469 162.678 76.3835 162.48 84.1201 162.25C99.5934 161.793 115.067 161.334 130.542 160.876C134.833 160.749 139.124 160.622 143.415 160.495C145.35 160.438 147.762 160.996 149.288 159.502C149.55 159.244 149.753 158.942 149.896 158.618C150.353 158.732 150.912 158.62 151.212 158.268C151.772 157.606 152.184 156.993 152.163 156.076C152.144 155.218 151.907 154.313 151.785 153.464C151.553 151.868 151.329 150.272 151.115 148.674C150.695 145.517 150.302 142.355 149.941 139.191C149.201 132.722 148.529 126.237 148.005 119.747C146.966 106.912 146.672 94.0088 146.708 81.1333C146.712 79.9815 146.719 78.8296 146.725 77.6775C146.774 77.739 146.826 77.7959 146.884 77.8447C146.93 77.8847 146.976 77.9248 147.023 77.9673C147.564 78.4428 148.464 78.688 149.112 78.2378C149.909 77.7219 150.458 76.9484 151.079 76.249C151.732 75.5156 152.404 74.8011 153.082 74.0911C154.396 72.7174 155.755 71.4004 157.141 70.0985C157.253 69.9952 157.365 69.8895 157.476 69.7878C157.485 73.8859 157.481 77.9821 157.591 82.0781C157.755 88.1628 158.085 94.2413 158.387 100.318C158.987 112.35 159.608 124.378 160.206 136.408C160.373 139.766 160.531 143.126 160.698 146.485C160.783 148.165 160.865 149.845 160.945 151.526C160.988 152.434 161.03 153.345 161.072 154.254C161.119 155.231 161.057 156.274 161.387 157.203C162.137 159.324 165.378 159.624 166.001 157.203C166.392 155.683 166.092 153.924 166.022 152.365C165.95 150.826 165.879 149.285 165.805 147.745V147.745Z" fill="black"/>
</svg>
