<svg width="100" height="120" viewBox="0 0 100 120" fill="none" xmlns="http://www.w3.org/2000/svg">
<path fill-rule="evenodd" clip-rule="evenodd" d="M86.955 52.8865C86.714 48.2615 86.5026 43.4827 85.618 38.9285C85.1843 36.696 84.317 34.6349 82.914 32.8429C81.6305 31.203 80.0152 29.9311 78.3767 28.6679C75.0836 26.1289 71.9173 23.318 68.2313 21.3541C64.6943 19.4697 60.8706 18.3322 56.9082 17.8214C49.2769 16.8376 41.2615 18.4751 34.6345 22.4039C28.2065 26.215 23.0391 32.1292 19.8415 38.8719C18.2524 42.2226 17.0587 45.7589 16.4157 49.4159C15.6493 53.7752 15.7187 58.1468 15.7463 62.555C15.7558 64.0365 15.7425 65.5172 15.6689 66.9952C15.549 67.7125 15.4828 68.4389 15.4836 69.2176C14.0287 71.1368 13.4368 73.702 14.3486 76.0647C15.803 79.8347 19.9299 81.5492 23.6766 80.8915C23.8442 81.8715 24.2483 82.8372 24.7516 83.7771C25.6119 85.3833 26.5737 86.9566 27.5945 88.465C29.7063 91.586 32.1162 94.4154 34.9916 96.8563C40.6916 101.695 47.9123 104.865 55.4004 105.324C62.2178 105.742 69.4077 103.798 74.9672 99.7892C77.8528 97.7084 80.3499 95.1585 82.2054 92.1049C84.3729 88.5377 85.549 84.4312 86.1594 80.3261C87.4989 71.3139 87.4274 61.9655 86.955 52.8865V52.8865Z" fill="#D08B5B"/>
<path fill-rule="evenodd" clip-rule="evenodd" d="M33.1974 5.09137C32.9398 2.18066 35.6157 -0.00935508 38.0988 0.805823C38.5544 0.862676 38.9975 1.00682 39.3934 1.24924C40.5363 1.94902 40.7861 3.07763 40.4876 4.05322C41.0242 4.45922 41.4469 5.00958 41.6594 5.67343C41.8784 6.35736 41.8556 7.02079 41.6495 7.59883C42.4284 8.11474 43.0173 8.89314 43.1541 9.85753C43.219 10.3155 43.1929 10.7697 43.0845 11.1871C44.2639 11.5885 45.2263 12.4876 45.2117 13.848C45.8967 13.892 46.5825 13.9017 47.2805 13.8628C47.38 13.5811 47.5021 13.3063 47.6832 13.0534C48.0488 12.5437 48.5683 12.1936 49.1434 11.9753L49.2222 11.9463L49.2209 11.7916C48.7805 11.3023 48.5743 10.6852 49.0434 10.0131C49.1239 9.8979 49.222 9.80279 49.3314 9.72121C49.3702 9.42955 49.433 9.14084 49.5102 8.857C49.1214 8.31383 49.1636 7.41263 49.8156 7.14295C49.7248 6.61331 49.7195 6.06401 49.8175 5.51048C50.2198 3.24269 52.4031 1.69814 54.6529 1.7848C54.9346 1.79558 55.2087 1.83806 55.4735 1.90569C56.0212 1.96318 56.5662 2.08597 57.1021 2.26858C57.7206 2.47951 57.8798 2.99731 57.7436 3.43502C58.5835 4.56088 58.8219 6.09043 57.9761 7.46505C57.9439 7.51725 57.9085 7.56692 57.8737 7.61701C58.0434 7.74488 58.191 7.91353 58.3006 8.13017C58.5759 8.67545 58.508 9.36741 58.0879 9.82245C57.9761 9.94376 57.8315 10.0349 57.6732 10.0934L57.6704 10.1382V10.1382C57.6156 10.8684 57.4999 11.6005 57.2813 12.2902C58.1718 13.1193 58.7631 14.2477 58.8679 15.4636C59.1997 15.4945 59.5314 15.5306 59.8626 15.5682C59.9115 15.2349 60.1132 14.9348 60.4193 14.7023C60.6755 14.5079 60.9489 14.3523 61.2297 14.2359C61.3651 13.5369 61.6963 12.8674 62.2554 12.336C62.4628 12.1391 62.6895 11.9653 62.9309 11.8159C62.9174 11.0582 63.0858 10.3012 63.5045 9.58426C63.8528 8.98804 64.3598 8.55562 64.9379 8.28044C65.3595 7.43081 66.1402 6.73758 67.2763 6.34362C68.1254 6.04938 69.0238 6.39907 69.6693 6.94896L69.8136 7.07574V7.07574C70.4058 7.59968 70.6198 8.56238 70.4013 9.30506C70.2987 9.654 70.1273 10.0617 69.8785 10.3929C70.1414 11.5547 69.6183 12.5239 68.817 13.0686C69.0909 13.4592 69.3211 13.8924 69.5155 14.3551C69.8515 15.155 69.4737 16.1511 68.8678 16.7814C69.133 17.2053 69.3053 17.6999 69.3685 18.1966C69.6388 18.2124 69.9074 18.2606 70.1722 18.3361C70.3157 17.8474 70.5858 17.3932 70.999 17.0223C71.1801 16.6679 71.3952 16.338 71.6357 16.0495C72.0148 15.5942 72.506 15.2662 73.0421 15.1326C73.1136 14.9638 73.2148 14.8021 73.3417 14.6543C73.2137 13.1732 74.1928 11.6439 75.7008 11.6426C75.8072 11.2973 75.9373 10.9557 76.0931 10.6207C76.3986 9.96363 77.046 9.5701 77.7483 9.44075C78.1606 8.43346 78.9708 7.70091 80.3612 7.57875C83.4672 7.30611 85.4211 11.0817 84.6626 13.7925C84.437 14.5977 83.9089 15.3387 83.2079 15.7937C83.0245 15.9127 82.8396 15.9992 82.6526 16.0706C82.4656 16.3325 82.2139 16.5652 81.8903 16.7547C81.8186 16.7968 81.7448 16.8346 81.6689 16.8684C81.6763 18.0782 80.8433 19.062 79.8095 19.3751C79.8759 20.1378 79.6813 20.9025 79.1034 21.4934L79.0623 21.5331V21.5331L78.9782 21.6086L78.9715 21.642C79.177 22.1729 79.1555 22.7577 78.8604 23.239C78.8863 23.6811 78.9643 24.1133 79.1125 24.5242C79.6834 24.9873 80.1873 25.5192 80.6378 26.0966C80.9386 25.8236 81.3928 25.7004 81.7855 25.8496C81.8945 25.8124 82.0067 25.7883 82.1144 25.7775C82.2936 25.7593 82.4692 25.76 82.6417 25.7726C82.7214 25.6566 82.8126 25.5463 82.917 25.4429C83.6504 24.7161 84.7149 24.7311 85.5599 25.1825C85.711 25.072 85.8816 24.9744 86.0747 24.8926C88.2287 23.9823 89.6405 26.7224 89.8505 28.4304C89.965 29.3622 89.1651 29.9369 88.3442 29.9853C88.1774 30.5502 87.6419 30.9568 87.0438 31.0949C87.1501 31.7927 86.6884 32.505 86.0597 32.7704C85.7791 32.889 85.5076 32.9213 85.2521 32.8869L85.2643 33.0522V33.0522C85.3138 33.7076 84.9833 34.1248 84.5306 34.3097C84.4509 34.6343 84.2298 34.8698 83.953 34.9905C85.0109 37.4472 85.8459 40.021 86.5195 42.5596C87.6314 46.7502 88.379 51.0172 88.8803 55.3228C89.7622 62.8919 89.7967 70.6165 88.9138 78.1888C88.4646 82.0421 87.7178 85.8084 86.1906 89.3872C84.9168 92.3723 83.1449 94.9628 81.1056 97.4694C77.054 102.448 71.2547 106.116 64.8633 107.027C61.5082 107.505 58.0672 107.349 54.7931 106.433C51.5332 105.521 48.0574 103.956 46.0038 101.177C45.4476 100.425 45.7183 99.2048 46.3375 98.5841C47.044 97.8758 48.0614 97.8302 48.9241 98.2495C50.4548 98.9937 51.8309 100.011 53.3872 100.721C54.7915 101.362 56.31 101.773 57.822 102.062C60.8172 102.637 64.0739 102.49 67.06 101.689C72.4752 100.236 77.2463 96.7305 80.2752 92.0031C83.8533 86.4181 85.1306 79.8728 85.7154 73.3503C86.3553 66.2113 86.2885 58.9743 85.4397 51.8556C85.0189 48.3254 84.3712 44.8269 83.6045 41.3572C83.0587 38.8867 82.4429 36.4327 81.8633 33.9707C81.3377 33.4679 80.8296 32.9486 80.3401 32.4105L80.3251 32.4095V32.4095C80.2632 32.4249 80.1987 32.4365 80.1295 32.4418C77.2212 32.6641 74.0692 32.3714 71.5881 30.6912C70.5797 30.0083 69.7267 29.1439 69.0919 28.1486C68.2004 27.5292 67.3881 26.7476 66.7779 25.8445C66.3453 25.3685 65.9353 24.8712 65.5455 24.3557C64.5751 23.0712 64.0594 21.7229 63.4807 20.2408C63.4672 20.2067 63.4583 20.1733 63.4516 20.1406C63.3409 19.959 63.2623 19.7601 63.2243 19.5594C61.9333 19.4057 60.6369 19.3038 59.3532 19.2425C58.8987 19.221 58.4429 19.2039 57.9869 19.1891C58.1066 19.6357 58.1787 20.0989 58.1943 20.5747C58.5624 20.5912 58.9377 20.6341 59.3218 20.6956C61.1235 20.9832 62.279 21.9081 63.3732 23.3573C64.4382 24.7679 65.2872 26.4644 65.918 28.1144C66.3046 29.1246 65.7888 30.2414 64.9408 30.8917C62.7394 31.0792 60.5764 31.5535 58.5504 32.4931C58.4792 32.5263 58.4275 32.5845 58.3933 32.6529C56.7755 33.1361 55.1456 33.578 53.5168 33.9532C51.9443 34.3154 50.3564 34.4661 48.7752 34.0664C48.0955 33.8946 47.4308 33.6401 46.7771 33.3548C46.4258 33.3975 46.0455 33.3303 45.6587 33.108C45.073 32.7717 44.4837 32.404 43.9036 32.0083C42.8783 31.5154 41.87 30.986 40.9069 30.3809L40.9017 30.3735V30.3735C40.1336 29.4396 39.038 28.4881 37.8114 27.7676C37.6757 27.5598 37.5559 27.3413 37.4604 27.1077C36.9327 25.8208 37.153 24.2642 38.2662 23.3791C38.2824 23.0737 38.415 22.7746 38.7091 22.5347C38.9419 22.3447 39.1816 22.1642 39.4274 21.9922C39.3759 21.954 39.3241 21.917 39.2729 21.8779C39.1717 21.8011 39.0745 21.7185 38.9796 21.6333C38.2365 22.0417 37.4868 22.4413 36.72 22.7972C36.7006 22.8114 36.6823 22.8264 36.6618 22.8397C35.22 23.7885 33.8554 24.8782 32.3956 25.7925C32.0461 26.0112 31.698 26.2234 31.3525 26.4363C31.2228 26.6136 31.0961 26.7935 30.9739 26.9767C30.9216 27.2586 30.8421 27.5402 30.7434 27.8143C30.9344 27.9667 31.0898 28.1674 31.1954 28.4054C31.6491 28.5785 32.076 28.7981 32.4743 29.06L32.8274 29.217V29.217C33.2813 28.8522 33.7609 28.5225 34.2762 28.2484C35.8934 28.3536 37.6411 29.5023 38.8698 30.6734C38.9558 30.7706 39.0399 30.8687 39.1202 30.9683C39.198 31.0312 39.2764 31.0982 39.3547 31.164C39.4818 31.3011 39.6005 31.4368 39.7093 31.5689C39.8313 31.7175 39.9692 31.7993 40.1092 31.8335C40.8618 32.542 41.567 33.3392 42.0494 34.1675C42.8239 35.4973 42.2811 37.1549 41.7142 38.4598C41.6214 38.6728 41.5238 38.8825 41.4213 39.0898C40.3373 40.5538 39.3095 42.0589 38.2824 43.5643C37.5903 44.2349 36.903 44.9098 36.2455 45.6115C36.1377 45.6837 36.0245 45.7531 35.9001 45.8173C33.9866 46.8046 32.1359 45.6932 30.3128 45.0011L30.1092 44.9256C28.2305 44.2445 25.8919 43.797 25.7733 41.3445C25.7571 41.0104 25.7699 40.668 25.803 40.3218C26.2656 39.093 26.7956 37.8868 27.3865 36.7119C27.2674 36.5828 27.1605 36.4397 27.0705 36.2801C26.8801 36.0383 26.7209 35.7775 26.5997 35.5024C25.7271 37.1775 24.8961 38.9742 23.7745 40.4439C23.1564 41.254 22.3864 41.5459 21.5693 41.544C21.2246 41.7184 20.8388 41.7769 20.4673 41.733L20.5066 42.1813C20.5407 42.5552 20.5802 42.9287 20.6379 43.2953C21.4278 43.2824 22.2534 43.4994 22.9894 43.7913C25.1495 44.6475 27.2309 45.8332 29.3147 46.861C30.3209 47.3572 31.7035 47.7731 32.5255 48.5482C33.1554 49.1427 33.0833 49.879 32.8441 50.645C32.8029 50.7756 32.7582 50.9051 32.7157 51.0351L32.7129 51.0776V51.0776C32.041 51.9262 31.5808 52.9388 31.2469 53.9841C30.7013 54.914 30.3207 55.9577 30.0614 56.9804C29.8512 57.8113 29.7018 58.6593 29.6047 59.5153L29.5795 59.7489L29.5656 59.7764L29.5584 59.9782V59.9782C29.4201 61.4853 29.4365 63.0115 29.5618 64.5064C29.5968 64.9225 29.6402 65.3393 29.6944 65.7546C29.4595 66.4912 28.3445 66.5937 27.7666 66.1418C27.1304 65.6445 26.4623 65.1924 25.7684 64.7845C24.8227 65.2165 23.729 65.2903 22.6721 64.9363C22.5966 64.9111 22.525 64.8807 22.4524 64.8519C21.6604 64.9504 20.8761 65.1356 20.1256 65.3547L19.9005 65.4215C18.7032 65.7826 17.5619 66.2344 16.6605 67.1518C15.0589 68.7816 14.543 71.4156 14.8698 73.6209C15.1875 75.7663 16.4292 78.2182 18.6667 78.8418C19.5823 79.0972 20.5692 79.0898 21.4595 78.733C21.7976 78.5975 22.0875 78.4012 22.373 78.1858C22.7233 77.9212 23.0001 77.6234 23.4159 77.456C23.7956 77.3032 24.4514 77.3151 24.6368 77.3062C25.2155 77.2781 25.7052 77.7323 25.8755 78.2518C26.395 79.8371 25.615 81.0016 24.3616 81.7809C24.8889 82.5811 25.3831 83.4169 25.9051 84.1729C26.8803 85.5856 27.9102 86.9509 28.9776 88.2943C30.0732 89.6738 31.2412 90.9865 32.5143 92.2043C33.089 92.754 33.6816 93.2849 34.2911 93.7953L34.6278 94.0747C35.1968 94.551 35.6945 95.0361 35.6748 95.8674C35.664 96.333 35.3556 96.7654 34.8987 96.8895C33.2826 97.3282 31.5888 95.2041 30.5362 94.1144L30.4533 94.0295C29.1793 92.7375 27.9943 91.3493 26.9227 89.8838C25.8182 88.3733 24.9136 86.7047 24.1843 84.9837C23.8458 84.1839 23.4779 83.2698 23.2175 82.3448C21.8132 82.8907 20.1825 83.0858 19.0662 82.9575C18.0359 82.8393 17.0954 82.5426 16.246 82.11C16.0723 82.5001 15.8387 82.863 15.555 83.1648C14.5025 84.2843 12.9709 84.6039 11.4874 84.5902C9.58745 84.5728 7.88253 83.3717 7.81359 81.3453C7.7689 80.0317 8.44774 78.9044 9.43839 78.1359C9.80586 77.2267 10.5035 76.4775 11.5144 76.2342C10.8454 74.1611 10.7276 71.8768 11.2302 69.7838C11.7278 67.7117 12.8635 65.749 14.5431 64.4558L14.6387 64.3834L14.5983 64.4049C14.2015 64.6241 13.8144 64.8606 13.4219 65.0872L13.2455 65.188C11.5021 66.1749 9.48279 67.0226 7.45266 66.4948C4.23067 65.657 3.95197 61.6284 6.72406 60.0384C7.68204 59.4889 8.78906 59.2816 9.88196 59.1442C10.0546 58.9185 10.26 58.7169 10.4866 58.5537C10.5203 57.8133 10.8918 57.0732 11.5489 56.6082C12.2189 56.1339 12.9716 56.087 13.6723 56.3047C13.9335 56.1082 14.2167 55.9361 14.5281 55.8017C14.7983 55.6846 15.0724 55.5997 15.3471 55.5409C15.3423 55.3198 15.3397 55.0988 15.3363 54.8775C15.2923 54.6714 15.2657 54.4554 15.2381 54.2307C15.1886 54.2223 15.1384 54.2143 15.0897 54.2037C14.3758 54.0473 13.7309 53.7262 13.1695 53.2934C12.2716 53.8621 11.1817 54.0773 9.88576 53.6926C8.6826 53.3355 7.54859 52.2132 6.98801 50.9237C6.21957 50.7688 5.47347 50.5437 4.82013 50.1168C3.61043 50.4051 2.30671 49.9388 1.81634 48.6834C1.45267 47.7526 1.88992 46.6274 2.66954 46.0504C2.89659 45.8824 3.1422 45.9139 3.33742 46.0439C3.38359 45.8928 3.43777 45.7431 3.50439 45.5969C3.53117 45.5379 3.56026 45.4804 3.58977 45.4231C3.56068 44.1901 4.00699 42.9981 5.1235 42.3366C5.95224 41.8456 6.94058 41.7921 7.8313 42.0758C8.32062 41.6186 8.94043 41.2695 9.71014 41.0778C11.0636 40.7405 12.4886 41.1251 13.452 42.1428C13.6605 42.0813 13.8764 42.0375 14.0973 42.0098C14.1777 41.4421 14.3704 40.8962 14.7722 40.4701C15.0606 40.1643 15.4063 39.9208 15.7803 39.7501C15.9509 39.1069 16.2307 38.5312 16.6991 38.0493C16.4701 37.8555 16.2621 37.6374 16.0846 37.3948C15.8876 37.3618 15.6922 37.3193 15.5016 37.258C14.4834 36.9302 13.7813 36.2869 13.3051 35.485C12.4232 35.7114 11.4895 35.6285 10.5718 35.0513C9.90811 34.6339 9.40783 33.9665 9.14388 33.2208L8.39019 32.956V32.956C7.67993 32.7041 7.17016 32.2336 6.87923 31.6737C6.50924 31.8071 6.10151 31.8022 5.76946 31.5452C3.82379 30.0396 5.1526 27.5448 7.23531 27.0494C8.0826 26.848 8.82237 26.9627 9.48014 27.2698C9.94816 26.8178 10.5353 26.4783 11.2072 26.3253C11.9908 26.1469 12.8166 26.2778 13.5397 26.6244L13.7265 26.6218V26.6218C14.4547 26.0797 15.3893 25.8369 16.5313 26.0987C17.8243 26.3953 18.7057 27.1208 19.3032 28.0658C19.4952 27.8918 19.7115 27.7386 19.9472 27.6099C20.616 27.2451 21.3302 27.1551 22.0143 27.2692C22.2446 26.9403 22.4807 26.6159 22.724 26.2972C22.1461 25.8447 21.751 25.1428 21.7302 24.364C21.5556 24.2549 21.3865 24.1309 21.2248 24.0167C20.4336 23.4581 19.7628 22.7577 19.4577 21.8162C19.3055 21.3465 19.25 20.857 19.2678 20.3663C19.1826 20.3477 19.0978 20.3278 19.0137 20.3037C15.6511 19.3341 14.2572 14.6879 16.9148 12.1944C18.3104 10.8849 20.4319 11.6265 21.8124 12.5935C22.7537 13.2529 23.5015 14.0727 24.1791 14.9786C24.2109 14.9851 24.2419 14.9872 24.2739 14.995C25.2471 15.2256 26.021 15.8514 26.5928 16.6516C27.6026 16.4758 28.6776 16.6713 29.6356 17.374C30.334 17.8863 30.7727 18.5204 31.0004 19.2094C31.9078 18.7347 32.8417 18.3185 33.7959 17.951C33.8585 17.8003 33.9239 17.6494 33.9996 17.4995C34.1467 17.2085 34.3386 16.9555 34.5616 16.7416C34.3188 16.4694 34.1037 16.1653 33.9306 15.8269C33.1091 14.2219 33.4059 12.5975 34.3139 11.3685C33.9169 10.4724 33.7946 9.45618 34.0297 8.48946C34.0734 8.31003 34.1284 8.13756 34.1927 7.97165C33.6418 7.11082 33.2887 6.12001 33.1974 5.09137ZM18.453 70.0161C19.036 69.8739 19.1732 69.6875 19.8286 69.7411C20.3361 69.7828 20.8549 69.8699 21.3472 69.9975C22.5213 70.3023 23.6169 70.9182 24.5816 71.6433C25.95 72.6719 24.3119 74.5836 23.222 73.4866L23.1891 73.4525C22.4568 72.6654 21.6348 72.0506 20.7143 71.5023C20.2478 71.2246 19.7662 71.024 19.2786 70.7905C18.9415 70.6292 18.7467 70.3653 18.4296 70.1972C18.3548 70.1575 18.3723 70.036 18.453 70.0161ZM21.5908 54.5247C21.2687 54.4108 20.8989 54.6541 20.8127 54.9675C20.7202 55.3052 20.9164 55.6107 21.2203 55.7344L21.2545 55.7474C21.6672 55.8934 22.044 56.136 22.3647 56.433L22.4326 56.4975C23.0168 57.0664 23.9122 56.1707 23.3271 55.6007C22.8309 55.1174 22.2427 54.7551 21.5908 54.5247ZM36.723 31.4425C36.3902 30.7125 35.3278 31.3254 35.6162 32.0485L35.6307 32.0825C35.9305 32.7399 35.8077 33.5029 35.4808 34.1222L35.4485 34.1816C35.0509 34.8947 36.1432 35.5349 36.5408 34.8216C37.1307 33.7632 37.2285 32.5513 36.723 31.4425ZM45.9088 22.3542L45.8941 22.2811C45.7445 21.4799 44.5251 21.8191 44.6745 22.618C44.9229 23.9464 45.8853 24.819 47.1196 25.2523C47.8898 25.5224 48.2206 24.2978 47.4561 24.0294C46.6379 23.7424 46.0909 23.1984 45.9088 22.3542V22.3542ZM65.8419 21.0711L65.6271 21.0618V21.0618L65.7907 21.2783V21.2783C65.8065 21.2087 65.8231 21.1396 65.8419 21.0711Z" fill="black"/>
</svg>
