<svg width="100" height="121" viewBox="0 0 100 121" fill="none" xmlns="http://www.w3.org/2000/svg">
<path fill-rule="evenodd" clip-rule="evenodd" d="M51.0274 16.54C62.998 16.54 80.5193 24.5537 81.837 32.2636C83.3898 41.3496 86.8386 75.5151 84.961 86.6953C83.0834 97.8756 75.7619 106.137 59.5711 106.137C43.3803 106.137 31.2956 97.2849 28.5209 94.2457C25.7461 91.2064 22.3839 81.7487 22.3839 81.7487C22.3839 81.7487 13.5194 80.2423 13.4783 73.1581C13.4372 66.0739 17.9314 63.8846 17.9314 63.8846C17.9314 63.8846 15.5059 34.4966 20.604 27.2179C25.702 19.9391 39.0568 16.54 51.0274 16.54Z" fill="#D08B5B"/>
<path fill-rule="evenodd" clip-rule="evenodd" d="M87.1688 53.9653C87.8243 61.1068 88.0709 68.3096 88.1976 75.4786C88.3199 82.2714 87.7233 89.3559 83.8629 95.1638C80.4879 100.245 75.348 103.933 69.624 105.924C66.3668 107.059 62.7599 107.479 59.3193 107.583C57.542 107.636 55.7606 107.559 53.9939 107.376C53.7714 107.352 53.548 107.332 53.3248 107.312C51.8285 107.179 50.3443 107.046 49.2544 105.913C48.9108 105.556 48.9152 104.823 49.4233 104.59C50.3909 104.148 51.0464 104.102 52.107 104.248C52.986 104.368 53.8674 104.463 54.7526 104.524C56.65 104.658 58.5603 104.662 60.4577 104.516C63.9447 104.248 67.5118 103.26 70.6781 101.764C75.643 99.414 79.9081 95.563 82.2103 90.5099C84.8495 84.7241 84.7169 78.0333 84.5934 71.8031L84.5884 71.5475C84.4511 64.6364 84.1962 57.7463 83.5975 50.8584C83.3705 48.2527 83.0472 45.6612 82.7238 43.0687C82.6327 42.3388 82.5417 41.6088 82.4527 40.8785C82.2396 39.1116 81.9594 37.3529 81.6156 35.6074C81.5122 35.0802 81.391 34.5573 81.2699 34.0351C81.1787 33.6421 81.0877 33.2495 81.0044 32.8556C80.8631 32.8787 80.7196 32.8915 80.5722 32.8977C79.6908 32.9275 78.7275 32.7119 78.0738 32.0842C77.8231 32.2554 77.5045 32.3632 77.1211 32.3822C74.7775 32.4982 72.4101 32.4465 70.0479 32.3949C68.7574 32.3667 67.4684 32.3386 66.1857 32.3378C62.5427 32.3357 58.8976 32.3378 55.2523 32.3484C54.6967 32.3499 54.1408 32.3521 53.5848 32.3542C50.4974 32.3661 47.4048 32.3779 44.3214 32.2955C43.6679 32.278 43.0102 32.2666 42.3502 32.2552C39.5884 32.2073 36.7866 32.1588 34.0881 31.6573C32.9644 35.6602 33.0043 40.0584 35.3467 43.6345C36.0085 44.6426 35.4709 45.8304 34.6088 46.4602C33.7274 47.1029 32.143 48.0885 30.7875 48.1897C30.7349 48.3081 30.6817 48.4262 30.6286 48.5442C30.5492 48.7208 30.4699 48.897 30.393 49.0729C29.746 50.5509 29.1631 52.0382 28.7551 53.603C28.5449 54.4095 28.3641 55.2294 28.2118 56.0543C28.2243 56.1986 28.2371 56.3428 28.2525 56.4867C28.2525 56.5015 28.2546 56.5161 28.2568 56.533C28.2652 56.5924 28.2757 56.66 28.2821 56.698C28.3012 56.7996 28.3202 56.9013 28.3392 57.0028C28.3976 57.3154 28.456 57.6276 28.5182 57.9387C28.7142 58.9426 28.8658 59.9549 28.9735 60.9713C29.1696 62.8314 29.1506 65.2493 27.3418 66.3504C26.3741 66.9401 25.2146 66.8788 24.1919 66.4833C23.6218 66.2626 23.1227 65.966 22.6079 65.6601C22.5023 65.5973 22.3961 65.5342 22.2884 65.4712C22.122 65.3737 21.9524 65.2841 21.783 65.1948C21.5703 65.0825 21.3582 64.9706 21.154 64.8435C21.053 64.7801 20.956 64.704 20.8653 64.6237C20.1802 64.7695 19.5117 65.0422 19.1366 65.2281C18.1308 65.729 17.2476 66.454 16.4969 67.2867C14.9012 69.0599 14.4226 71.5581 14.6461 73.8766C14.8546 76.0345 15.7002 78.5134 17.4013 79.9487C18.1413 80.5741 19.0649 80.9399 20.041 80.9294C20.5215 80.9251 20.9644 80.8237 21.4282 80.7011C21.6261 80.649 21.844 80.6261 22.0618 80.6033C22.3476 80.5734 22.6331 80.5434 22.8724 80.4475C23.4983 80.196 24.2701 80.9632 24.015 81.593C23.9583 81.7329 23.9087 81.868 23.8609 81.9985C23.7468 82.3095 23.6424 82.5942 23.473 82.8548C25.2188 85.7122 27.131 88.4809 29.1652 91.1376C30.4551 92.8202 31.9057 94.3146 33.3628 95.8157C33.9776 96.449 34.5934 97.0835 35.1989 97.7338C36.0993 98.7018 36.4746 100.608 34.8449 101.022C33.4116 101.39 32.2979 100.072 31.4141 99.0266C31.2957 98.8865 31.1814 98.7513 31.071 98.6257C27.2026 94.2148 24.2785 89.1507 22.9101 83.4338C22.2926 83.8735 21.584 84.1123 20.8377 84.2159C19.3514 84.4209 17.8485 84.1271 16.5456 83.3726C11.6122 80.5172 10.4189 72.8008 12.7295 67.9651C13.2867 66.8008 14.1098 65.7614 15.1131 64.9542C15.034 64.8027 15.0028 64.6252 15.0536 64.4343C15.1428 64.1002 15.2408 63.77 15.3437 63.4412C15.2313 63.3911 15.1491 63.2875 15.1647 63.1337C15.2432 62.3289 15.32 61.5242 15.3969 60.7195L15.4388 60.2804C15.4291 59.8443 15.416 59.4083 15.4028 58.9722C15.3727 57.9712 15.3425 56.9694 15.3542 55.9625C15.3661 54.8911 15.4025 53.8202 15.439 52.7493C15.4809 51.5175 15.5228 50.2858 15.5273 49.0535C15.5409 45.0624 15.6284 41.0735 15.7158 37.0845C15.8043 33.0421 15.8929 28.9998 15.9047 24.9553C15.9171 21.0261 15.9256 17.091 15.8223 13.1641C15.8212 13.1363 15.8206 13.109 15.8201 13.0817C15.8196 13.0572 15.8192 13.0327 15.8183 13.0077C15.8053 12.5258 15.7748 12.0189 15.7435 11.4986C15.5706 8.62612 15.3733 5.34725 17.9686 3.62566C18.4725 3.29193 19.1008 3.28771 19.6489 3.50328C21.2258 2.40215 23.2034 1.87145 25.0944 1.56499C27.882 1.11383 30.6886 0.843341 33.4965 0.57272C34.3177 0.493568 35.1391 0.414404 35.9602 0.330706C37.8532 0.138377 39.8454 0.0646155 41.7513 0.106886C42.7428 0.128634 43.741 0.092754 44.7407 0.0568198C45.6839 0.0229134 46.6285 -0.011041 47.5701 0.00332393C49.7709 0.0392535 51.989 0.12168 54.1982 0.303441C54.2497 0.29818 54.3017 0.293442 54.3537 0.288706C54.4061 0.283931 54.4585 0.279158 54.5104 0.273852C57.8573 -0.0478928 61.2001 0.122236 64.5443 0.292435C65.3541 0.333653 66.1641 0.374875 66.9742 0.409117C70.9332 0.576083 75.1138 0.986103 78.6685 2.88593C79.1255 3.12983 79.5128 3.40712 79.8432 3.71611C80.3064 3.78142 80.748 3.91309 81.145 4.13438C82.2894 3.90253 83.5669 4.41653 83.8376 5.74782C84.2319 7.69859 84.3816 9.66605 84.1454 11.6445C84.1422 11.6694 84.1394 11.695 84.1365 11.7212C84.134 11.7438 84.1315 11.7669 84.1286 11.7903C84.6065 13.6257 84.5747 15.6301 84.1775 17.4404C84.3449 19.7276 84.4404 22.0214 84.4536 24.3114C84.4557 24.6579 84.4606 25.0058 84.4656 25.3544C84.4833 26.5995 84.5012 27.8538 84.3864 29.0877C84.257 30.4762 83.6869 31.575 82.7898 32.6297C82.6208 32.8284 82.3351 32.8613 82.0975 32.8131C82.0359 32.8007 81.9824 32.7838 81.9339 32.7637C82.3765 33.7149 82.7433 34.7136 83.1021 35.6906C83.1816 35.9072 83.2608 36.1228 83.3403 36.3366C84.036 38.2091 84.7106 40.1134 85.189 42.0536C86.159 45.9655 86.7976 49.9517 87.1688 53.9653ZM19.9868 71.6695C19.7866 71.531 19.5848 71.3913 19.3663 71.2875C19.3389 71.2746 18.1836 70.8986 18.4071 71.3953C18.483 71.5602 18.2848 71.744 18.1436 71.5982C17.743 71.1903 17.9665 70.7 18.3481 70.3365C19.0372 69.6792 20.0663 69.8311 20.9117 69.9877C22.088 70.2054 23.2307 70.7211 24.2216 71.3826C25.2883 72.0949 26.606 73.0819 26.8168 74.4324C27.0086 75.673 25.7774 77.0405 24.5104 76.2099C23.8248 75.7595 23.3448 75.0902 22.863 74.4184C22.5196 73.9395 22.1752 73.4594 21.7549 73.0565C21.2593 72.5831 20.7238 72.1667 20.1569 71.7861C20.1001 71.7479 20.0435 71.7087 19.9868 71.6695Z" fill="black"/>
</svg>
