<svg width="100" height="120" viewBox="0 0 100 120" fill="none" xmlns="http://www.w3.org/2000/svg">
<path fill-rule="evenodd" clip-rule="evenodd" d="M91.6615 77.5136C88.0997 61.3261 87.4056 43.549 78.0044 29.4148C73.8962 23.6514 67.2953 16.1363 59.5841 18.5049C59.9018 15.0922 60.2018 11.678 60.4792 8.26176C60.638 6.30762 61.3676 3.70399 59.718 2.2015C56.9944 -0.00330206 52.4855 3.37048 50.3805 5.25552C45.82 9.63343 44.0191 13.8856 38.0117 16.8094C35.6037 15.089 33.2569 13.2839 30.8128 11.61C28.3224 9.90438 24.7599 7.13379 22.1754 10.2825C19.985 12.9514 21.3842 17.1583 22.2528 20.0948C22.697 21.5967 23.1385 23.2359 23.7558 24.7805C23.8078 25.9545 23.8985 27.1265 24.0315 28.295C19.5815 29.0889 15.0016 29.7567 10.7499 31.3146C8.43132 32.5736 8.63582 35.433 10.2807 37.1445C12.7422 39.5342 15.8571 41.403 19.2577 42.6573C18.6402 44.7996 17.16 46.6161 15.2988 47.8039C14.6746 48.2006 14.3244 48.7825 14.1977 49.4032C13.2438 49.8785 12.2223 50.2213 11.1433 50.4439C9.81263 50.7193 9.04376 52.2938 9.38677 53.5453C10.3532 56.5866 13.7588 54.8482 15.9712 54.6335C16.0378 56.7574 16.0724 58.9704 17.0343 60.9379C11.8926 62.2905 7.43835 67.2228 8.62718 72.78C9.70701 78.0925 15.4272 79.7159 19.9553 80.9232C20.2983 81.1256 20.2972 81.3245 20.4062 81.826C21.1534 85.27 20.5243 89.0589 19.3464 92.3285C19.0253 93.2197 19.4972 94.335 20.2104 94.8695C23.8979 97.2233 25.1204 90.0554 29.324 94.6178C29.0103 94.5707 28.2298 94.1795 28.2699 94.7463C33.7234 104.341 49.8256 104.93 59.6914 105.166C60.8754 105.743 62.2386 105.416 63.5929 105.047C64.885 104.977 66.1757 104.88 67.4631 104.748C69.8136 104.323 73.948 104.827 74.0956 101.508C80.1662 99.1077 85.3857 94.9604 88.9453 89.4653C91.5856 85.8189 92.6281 81.9592 91.6615 77.5136V77.5136Z" fill="#D08B5B"/>
<path fill-rule="evenodd" clip-rule="evenodd" d="M20.6327 86.8687C21.0292 89.2352 21.9584 91.4968 23.5254 93.4934C23.6138 93.6057 23.7038 93.7177 23.7949 93.8291L23.6896 93.8859L23.5819 93.942C22.7559 94.3639 21.9157 94.5873 21.1427 93.9326C20.4606 93.3547 20.7706 92.1714 20.829 91.3741L20.8482 91.0798L20.8926 90.4602L20.909 90.209C20.9577 89.4115 20.9674 88.5982 20.7612 87.8548C20.7239 87.7205 20.6459 87.6237 20.5485 87.5638C20.5754 87.37 20.5997 87.1755 20.621 86.9808L20.6327 86.8687ZM15.3018 47.81C14.7285 49.9092 14.3544 52.0419 14.1333 54.2148C13.491 54.2294 12.8484 54.2954 12.2068 54.1415C11.7753 54.0384 11.372 53.879 10.9896 53.6531C10.8538 53.5725 10.659 53.3629 10.4964 53.2777C10.8464 53.0805 11.2567 52.3778 11.5295 52.0996C11.9503 51.6708 12.3888 51.2591 12.8425 50.8658C13.4332 50.3533 14.7618 49.6617 14.8769 48.8491C14.883 48.8053 14.8729 48.7607 14.8314 48.7373C14.7245 48.6769 14.6144 48.6416 14.5024 48.6255C14.6754 48.335 14.9153 48.0723 15.2289 47.8582L15.3018 47.81ZM27.2619 11.3714L27.3615 11.4214L27.8521 11.658C28.77 12.1057 29.6682 12.5838 30.5653 13.0736C32.75 14.2667 34.9023 15.4991 37.0322 16.7864C37.2021 16.8891 37.4383 16.6765 37.3162 16.5017C37.2239 16.3697 37.1306 16.2387 37.0362 16.1087L37.0848 16.1448C37.4208 16.4003 37.9737 16.9517 36.9476 17.6916C34.5175 19.4441 32.3264 21.5369 30.2521 23.6937C27.0181 27.057 24.1866 30.8179 21.9942 34.9355C20.1461 36.954 18.6396 39.3875 17.4565 41.9272C17.0971 41.7661 16.7418 41.5979 16.3913 41.4227C16.6808 41.3825 16.9335 41.2726 17.2557 41.0922L17.3313 41.0493L17.4673 40.97C17.952 40.6845 18.103 39.9211 17.6535 39.5233C17.2635 39.1777 17.0973 38.9133 16.5825 38.7476C16.1303 38.6018 15.6557 38.5367 15.1983 38.4086C14.235 38.1392 13.3394 37.7125 12.5065 37.1596C11.7595 36.6636 11.0791 36.047 10.5208 35.3426L10.3809 35.1626L10.2426 34.9873C9.97862 34.6483 9.66508 34.1954 9.8263 33.8261C9.99219 33.4463 10.7668 33.0438 11.1334 32.8169L11.3391 32.6878C14.959 30.4508 19.1649 30.1491 23.2221 29.2561C23.3851 29.2204 23.3307 28.9985 23.1852 28.9837C22.4398 28.9092 21.6871 28.8626 20.9318 28.8438C21.9695 28.6612 23.0059 28.4844 24.0352 28.3007C23.9679 27.7089 23.9114 27.1161 23.8652 26.5227C24.3241 26.9135 24.9449 27.0227 25.806 26.5785C26.4974 26.2217 26.7308 25.3032 26.445 24.6233C26.3489 24.3947 26.2168 24.2126 26.0588 24.0719L26.0107 24.0309L25.5059 21.7416L24.3981 16.6567L24.365 16.5109L24.3277 16.3563L24.1012 15.4676C23.6892 13.8235 23.2517 11.5885 24.6766 10.8012C25.4594 10.3689 26.5017 10.9852 27.2619 11.3714ZM58.7695 3.92913L58.8044 4.08754L58.8848 4.43803C59.0568 5.21571 59.1675 6.01273 59.2551 6.80241C59.459 8.64221 59.4963 10.5027 59.3782 12.3495C59.3203 13.2545 59.2224 14.1665 59.1084 15.0647C58.9861 16.0274 58.7129 16.9758 58.6418 17.9429C58.3541 18.3111 58.088 18.7116 57.7855 19.0434C56.9753 19.9309 56.0245 20.5983 54.7836 20.6131C52.4179 20.6411 50.4319 18.7973 48.1361 18.3926L47.9801 18.3668C47.5976 18.2944 44.5869 17.5158 44.9561 16.2027L44.9711 16.1544C45.0925 15.7987 44.9565 15.3494 44.6915 15.0943C44.5598 14.9675 44.4189 14.8701 44.2714 14.7961C46.5912 10.6504 49.7237 7.11365 54.0168 4.79991L54.6062 4.48781L54.9279 4.32023C55.909 3.81497 57.0257 3.30281 58.0471 3.21622C58.5635 3.17225 58.676 3.51422 58.7695 3.92913Z" fill="#C93305"/>
<path fill-rule="evenodd" clip-rule="evenodd" d="M54.8463 0.988539L55.2006 0.833404C56.4225 0.303015 57.7567 -0.205618 59.0944 0.0843825C60.635 0.418316 61.5258 1.74665 61.9071 3.19482C62.3486 4.86999 62.5459 6.65315 62.6669 8.37735C62.792 10.163 62.7437 11.9449 62.6096 13.7279C62.4977 15.219 62.2662 16.947 61.7126 18.3922C61.7362 18.371 61.7644 18.3554 61.7982 18.3518C63.9772 18.128 65.9853 18.2584 68.0663 18.962C70.0048 19.6174 71.8841 20.537 73.5711 21.6988C77.2149 24.2079 80.0342 27.9974 81.9985 31.9207C85.9887 39.8914 86.8305 48.9081 87.9487 57.6246L87.9827 57.8887C88.5842 62.5498 89.3836 67.1403 90.6657 71.6616L90.8871 72.4324C92.0639 76.5688 92.7662 80.5926 91.8278 84.875C90.0133 93.1557 83.6167 99.4061 76.2173 103.014C72.4394 104.856 68.3516 106.215 64.2228 106.999C59.988 107.803 55.4048 107.938 51.5436 105.742C49.6293 104.653 51.3146 101.872 53.2493 102.816C57.2419 104.764 61.7667 104.123 65.9111 103.052C70.0333 101.986 74.0762 100.494 77.7287 98.2788C83.9966 94.477 89.2706 87.9135 89.4434 80.2914C89.5406 76.0025 87.7124 71.9071 86.8309 67.7664C86.0541 64.1174 85.572 60.415 85.117 56.7132L84.7797 53.9634C83.8008 46.0773 82.5752 37.959 78.5355 30.9893C74.9695 24.8371 68.8274 19.945 61.7585 18.6437C61.7161 18.6361 61.6881 18.6156 61.6712 18.5896C61.4549 19.7569 60.1717 20.8453 59.3505 21.517C58.187 22.4693 56.7772 23.1594 55.2437 23.1285C52.2867 23.0692 49.7476 20.7703 47.7207 18.8451C47.4922 18.6283 47.7397 18.3256 47.9997 18.3649C50.352 18.7198 52.3687 20.6357 54.7799 20.6071C56.0208 20.5923 56.9716 19.9249 57.7818 19.0374C58.0843 18.7056 58.3504 18.3051 58.6381 17.9369C58.7092 16.9698 58.9824 16.0215 59.1047 15.0588C59.2187 14.1605 59.3166 13.2485 59.3745 12.3435C59.4926 10.4968 59.4553 8.63625 59.2514 6.79645C59.1638 6.00676 59.0531 5.20975 58.8811 4.43207L58.8007 4.08157C58.6941 3.59977 58.6244 3.16079 58.0434 3.21025C56.7519 3.31973 55.3082 4.10955 54.1788 4.70556C49.8005 7.0171 46.6173 10.5912 44.2677 14.7901C44.4153 14.8641 44.5561 14.9615 44.6878 15.0884C44.9529 15.3435 45.0888 15.7928 44.9674 16.1485C44.4983 17.5231 42.8307 17.5633 41.6575 18.1016C40.3791 18.6879 39.1782 19.4415 38.0411 20.2671C35.8025 21.8919 33.746 23.8008 31.7904 25.7535C28.7105 28.8282 25.8505 32.1006 23.0885 35.4579L22.5007 36.774C21.9141 38.0899 21.3402 39.4103 20.8654 40.7809C20.0925 43.0098 19.4451 45.2884 18.9473 47.5949C18.4464 49.9163 18.1199 52.2911 17.9961 54.6631C17.8856 56.7795 18.1658 58.8945 18.154 60.9987C18.3416 61.3506 18.4095 61.7473 18.3212 62.1516C18.9119 62.3192 19.4841 62.5748 20.0215 62.9273C20.1524 63.0135 20.0693 63.2189 19.9148 63.1809C19.2334 63.0127 18.5518 62.9753 17.8844 63.0404C17.5302 63.4783 16.9568 63.757 16.4004 63.7448L16.163 63.7395V63.7395C15.9891 63.7357 15.8166 63.7078 15.6501 63.6602C14.7111 64.0941 13.8471 64.7187 13.1158 65.465C11.3573 67.2598 10.5081 69.611 10.6329 72.1229C10.7565 74.6006 12.0729 76.8354 14.2532 78.0255C15.2257 78.5562 16.3064 78.8356 17.4119 78.8561C18.4755 78.8754 19.8714 78.5514 20.7452 79.2461C20.8435 79.3243 20.9082 79.4282 20.948 79.5432C21.009 79.2852 21.0737 79.0277 21.1443 78.7714C21.1983 78.5754 21.5236 78.5526 21.5634 78.7714L21.6147 79.0566C22.347 83.1948 22.6045 87.4552 25.5136 90.7672C26.8742 92.3164 28.5146 93.7136 30.1974 94.8997L30.4758 95.0945C31.1948 95.5921 31.9716 96.0753 32.8287 96.2553C33.7812 96.4555 34.5686 96.4005 35.4446 96.9253C35.8563 97.1722 36.1091 97.717 35.9575 98.1896C34.9858 101.223 31.1562 99.8603 29.2257 98.6611C28.1522 97.9943 27.1076 97.1886 26.137 96.3012C25.2905 96.8181 24.2853 97.1515 23.4216 97.281C22.0894 97.4809 20.675 97.2032 19.6131 96.3407C18.4896 95.4285 18.1053 94.1012 18.2961 92.6922C18.391 91.9911 18.5725 91.307 18.768 90.628L18.9296 90.0733C19.1653 89.2655 19.3496 88.4318 19.8248 87.7265C20.0647 87.3708 20.6341 87.4044 20.7575 87.8489C21.0397 88.866 20.9176 90.0143 20.8445 91.0739L20.8287 91.3167C20.7809 92.1137 20.4421 93.3362 21.139 93.9267C21.9785 94.6377 22.8973 94.313 23.7912 93.8231C23.7001 93.7117 23.6101 93.5997 23.5218 93.4875C20.6293 89.802 19.91 85.214 20.7022 80.7293C19.9557 81.711 18.0098 81.9234 16.9772 81.8471C15.356 81.7275 13.7607 81.2334 12.3798 80.3647C9.48755 78.5459 7.86085 75.356 7.7917 71.9627C7.72423 68.6678 9.19472 65.3354 11.9063 63.4168C12.6227 62.91 13.4196 62.516 14.2515 62.2569C13.8471 60.6472 13.8043 58.8689 13.892 57.1289C12.922 57.2612 11.8719 57.0894 10.9949 56.7901L10.8588 56.7424C9.50715 56.2571 7.7905 55.2816 7.53745 53.7591C7.22585 51.8866 9.53098 50.8104 10.8684 50.0624C11.494 49.7127 12.1337 49.3855 12.7978 49.1155L12.9977 49.0363C13.571 48.8152 14.2458 48.4029 14.8277 48.7313C14.8692 48.7548 14.8793 48.7994 14.8732 48.8431C14.7581 49.6558 13.4295 50.3473 12.8388 50.8598C12.3851 51.2531 11.9466 51.6648 11.5258 52.0937C11.253 52.3718 10.8427 53.0746 10.4927 53.2717C10.6553 53.3569 10.8501 53.5666 10.9859 53.6471C11.3683 53.873 11.7716 54.0324 12.2031 54.1355C12.8447 54.2894 13.4873 54.2235 14.1296 54.2089C14.3904 51.646 14.8639 49.1392 15.6263 46.6772C16.9049 42.5466 19.0007 38.1951 21.9906 34.9295C24.1829 30.812 27.0144 27.051 30.2484 23.6878C32.3227 21.5309 34.5138 19.4382 36.9439 17.6856C38.0213 16.9088 39.1544 16.2088 40.3571 15.6449L40.7567 15.4611C41.4244 15.1514 42.2364 14.7494 43.0108 14.6344C43.5117 12.6418 44.4041 10.736 45.4869 9.00865C46.9786 6.62863 48.942 4.62123 51.2394 3.01729C52.3729 2.22557 53.5809 1.54481 54.8463 0.988539ZM14.9935 70.3902C16.921 69.0923 19.285 68.5844 21.5884 68.7761C22.7311 68.8711 23.8613 69.1396 24.9321 69.5502L25.3736 69.725C26.3963 70.1358 27.494 70.6428 27.5307 71.883C27.5452 72.3727 27.1836 72.7626 26.7472 72.9148C25.6828 73.2857 24.8203 72.3974 23.9414 71.9248C23.0541 71.4472 22.1108 71.1323 21.1392 70.8772C21.046 70.8526 20.9526 70.8304 20.8594 70.8083C20.91 70.9099 20.9387 71.0224 20.9288 71.1435C20.9047 71.4334 20.8206 71.649 20.7388 71.9208C20.7142 72.0032 20.6541 72.5065 20.5925 72.5686C20.6125 72.7398 20.6146 72.9017 20.6199 73.0741C20.6347 73.5833 20.5721 74.0134 20.3127 74.4642C19.6668 75.5871 17.8202 75.6907 17.2019 74.4642C16.5835 73.2379 17.0667 72.0379 18.0064 71.1561C18.2625 70.916 18.604 70.6715 18.9751 70.5029C17.6722 70.3837 16.3548 70.4401 15.0532 70.6117C14.9262 70.6286 14.9069 70.4487 14.9935 70.3902ZM15.1088 29.2516C17.7525 28.801 20.5134 28.7112 23.1815 28.9777C23.327 28.9925 23.3814 29.2144 23.2184 29.2502C19.1612 30.1431 14.9553 30.4449 11.3354 32.6818L11.1687 32.7865C10.8213 33.008 9.99464 33.4262 9.82261 33.8202C9.61959 34.2852 10.1694 34.8829 10.4251 35.2185C11 35.9722 11.7143 36.6301 12.5028 37.1536C13.3357 37.7065 14.2313 38.1332 15.1946 38.4027C15.652 38.5308 16.1266 38.5959 16.5788 38.7417C17.0936 38.9074 17.2598 39.1718 17.6498 39.5173C18.0993 39.9151 17.9483 40.6785 17.4636 40.964L17.3276 41.0433C16.6907 41.4087 16.3367 41.5164 15.5277 41.3734C14.8948 41.2614 14.2903 41.0397 13.6979 40.7933C12.6095 40.3402 11.6161 39.7469 10.6995 39.0083L10.5626 38.8964C8.92577 37.5399 6.15241 34.573 7.97918 32.413C9.59155 30.5071 12.76 29.6519 15.1088 29.2516ZM21.6198 8.70096C24.1553 5.70655 27.7363 7.75116 30.2772 9.54151C33.0155 11.4707 35.3915 13.7463 37.3125 16.4958C37.4346 16.6706 37.1984 16.8832 37.0285 16.7805C34.8986 15.4931 32.7463 14.2607 30.5616 13.0677C29.6645 12.5778 28.7663 12.0997 27.8484 11.652L27.3578 11.4154C26.5912 11.0361 25.4904 10.3438 24.6729 10.7952C22.9099 11.7693 23.998 14.9598 24.3613 16.5049L24.3944 16.6507L25.5022 21.7356V21.7356L26.007 24.0249V24.0249C26.1864 24.1708 26.3356 24.3658 26.4413 24.6173C26.7271 25.2972 26.4938 26.2158 25.8023 26.5725C23.7613 27.6255 23.0702 25.569 22.6859 24.0237C22.3736 22.7682 22.058 21.5136 21.7418 20.2591L21.2187 18.1861C20.4174 15.0479 19.28 11.464 21.6198 8.70096Z" fill="black"/>
</svg>
