<svg width="100" height="120" viewBox="0 0 100 120" fill="none" xmlns="http://www.w3.org/2000/svg">
<path fill-rule="evenodd" clip-rule="evenodd" d="M84.7644 47.3891C82.8564 39.3254 78.6848 31.8211 72.0062 25.7564C51.909 5.83745 15.0019 16.6491 15.1691 46.6655C14.4483 50.1713 14.1556 53.7761 14.3943 57.3515C14.493 58.8771 15.1516 61.006 14.2667 62.3789C12.2709 64.9475 11.111 66.8408 11.7902 70.2574C12.3578 73.2407 14.3829 75.3542 17.116 76.4777C18.7551 76.9492 20.3104 77.9764 20.9175 79.5421C24.566 86.2385 27.269 91.8084 33.0208 96.3721C34.505 97.547 49.7276 104.594 54.7433 104.594C69.4273 104.594 87.9345 99.2615 88.2416 82.8184C88.2947 79.2069 87.6625 75.5532 87.2659 71.9702C86.3006 63.7935 86.6412 55.3206 84.7644 47.3891Z" fill="#D08B5B"/>
<path fill-rule="evenodd" clip-rule="evenodd" d="M84.4338 43.3557C84.4385 43.256 84.581 43.2336 84.6086 43.3321C85.1544 45.2733 85.4637 47.2509 85.8906 49.2224C86.3017 51.1214 86.6898 53.0259 87.0128 54.9415C87.6223 58.557 88.1359 62.1818 88.6136 65.8162L88.7323 66.725C89.5625 73.1198 90.9337 79.7818 89.7347 86.214C88.7116 91.7025 85.2813 96.1261 80.8606 99.3693C76.6748 102.44 71.5996 104.411 66.5606 105.531C61.1521 106.734 54.7415 107.093 50.341 103.117C48.5794 101.525 50.9808 98.3658 52.8919 99.8025C57.3795 103.175 63.0882 102.181 68.1519 100.839L68.3051 100.798C72.7495 99.6115 77.2233 97.8127 80.7516 94.7781C84.6525 91.4229 86.5813 86.7665 86.8041 81.6594C86.9291 78.7901 86.6623 75.9241 86.3745 73.0717L86.3424 72.7548C86.0121 69.4928 85.6655 66.2323 85.3456 62.969C85.0538 59.9934 84.8021 57.0004 84.669 54.0114L84.6069 52.5039C84.4776 49.4644 84.3035 46.3806 84.4338 43.3557ZM31.8037 18.1011C39.1062 14.2898 47.4986 12.9258 55.6253 14.2048C63.438 15.4345 70.608 19.4759 75.9673 25.2709C78.5838 28.1003 80.9063 31.373 82.3904 34.9485C83.1277 36.7246 83.7049 38.5776 84.0123 40.4805C84.1704 41.4589 84.3258 42.4725 84.3555 43.4644C84.3829 44.3827 84.1139 45.244 84.1457 46.1775C84.1506 46.3235 83.9273 46.3516 83.8934 46.2117C83.6396 45.1708 83.028 44.3838 82.6443 43.3951C82.3575 42.6568 82.0322 41.9361 81.701 41.2176L81.4165 40.6019C80.5905 38.8124 79.6032 37.0964 78.6264 35.3866C76.6597 31.9428 74.1361 28.8132 71.1813 26.1723C65.9931 21.5357 59.3373 18.5428 52.3905 18.0039C45.1802 17.4442 37.8668 19.1671 31.7091 22.9837C25.5518 26.8001 20.896 32.7327 18.4787 39.5633C17.2591 43.0102 16.5856 46.6017 16.4289 50.2534C16.3496 52.1019 16.4236 53.9658 16.5529 55.8106L16.6171 56.6904C16.6923 57.7454 16.7438 58.7964 16.5866 59.8259C17.6972 59.4786 18.8614 59.3347 20.0298 59.5065C21.7659 59.7618 22.8031 60.4753 23.5819 62.0305C23.6226 62.1116 23.541 62.1928 23.4602 62.1524C22.4506 61.6473 20.8172 61.9132 19.7479 62.178C18.6352 62.4536 17.6329 62.9329 16.6874 63.5809C14.9382 64.7791 13.567 66.6358 13.2305 68.766C12.9052 70.8237 13.7479 72.9072 15.1634 74.382C15.892 75.1416 16.7629 75.7982 17.7379 76.2074C18.9213 76.7043 20.0926 76.6889 21.1395 77.5091C21.7867 78.0161 21.6303 78.8837 21.1914 79.4468C23.4002 81.8748 25.3589 84.531 27.5675 86.9685C28.5912 88.0984 29.6068 89.2295 30.5877 90.3957L30.9539 90.8348C31.9334 92.0198 33.4918 93.2716 33.9394 94.7621C34.2179 95.6893 33.2274 96.902 32.2262 96.4795C30.6905 95.8312 29.5941 94.1446 28.5564 92.8509L28.4888 92.7671C27.4005 91.4265 26.4343 90.0113 25.551 88.5283L25.2605 88.0397C23.6632 85.3466 22.0796 82.5535 21.0611 79.5949C20.9938 79.6643 20.9226 79.7275 20.8475 79.7809C19.3802 80.8269 17.2471 80.0227 15.7817 79.3434C14.3983 78.7024 13.13 77.7378 12.1414 76.5752C9.99147 74.047 9.00039 70.7728 9.71845 67.4915C10.3267 64.7121 12.2483 62.0085 14.7676 60.6026C13.6047 59.2605 13.1232 57.4513 12.8028 55.6826C12.3938 53.4247 12.3122 51.1108 12.4233 48.8213C12.6449 44.261 13.8156 39.7658 15.6253 35.5899C18.8631 28.118 24.5873 21.868 31.8037 18.1011ZM16.4345 67.9609C17.9672 67.6731 19.3955 67.6036 20.8738 68.2537C22.4773 68.9594 23.6059 70.1243 24.6549 71.4892C25.8485 73.0418 22.7894 74.7379 22.0181 72.6768L21.9954 72.6132C21.7888 72.003 21.4188 71.4131 20.9501 70.8702C20.8095 71.0862 20.6215 71.2764 20.4005 71.3852C20.133 71.5171 19.7244 71.4258 19.6601 71.0832C19.5889 70.703 19.6677 70.2423 19.8865 69.9204L19.9165 69.8764V69.8764C18.8531 69.0185 17.574 68.3919 16.4345 68.1903C16.3207 68.17 16.322 67.9821 16.4345 67.9609Z" fill="black"/>
</svg>
