<svg width="105" height="120" viewBox="0 0 105 120" fill="none" xmlns="http://www.w3.org/2000/svg">
<path fill-rule="evenodd" clip-rule="evenodd" d="M81.254 36.6104C80.44 31.6734 83.1115 30.6491 81.254 25.9561C77.1257 17.2603 65.8752 17.635 57.6194 16.9664C48.4111 16.6126 39.0911 17.8313 30.6021 21.5312C28.5745 22.4149 26.6241 23.4542 24.7546 24.6349C23.138 25.656 23.3602 27.5975 24.3795 28.6566C17.0292 39.0913 21.2332 53.0979 15.3684 64.0817C14.2849 66.0451 12.852 67.8056 11.9103 69.8485C10.4788 72.9539 10.3871 77.4033 13.6333 79.4656C18.2054 81.9258 20.7568 77.0548 23.0033 84.1158C34.2228 108.736 56.7805 110.123 78.195 97.2865C80.0477 96.2534 81.9385 95.0857 83.3376 93.4626C86.5132 89.8799 86.1392 84.8418 86.2094 80.3678C86.2486 77.746 86.2551 75.1237 86.2296 72.5014C86.1297 61.8794 82.618 47.1449 81.254 36.6104Z" fill="#D08B5B"/>
<path fill-rule="evenodd" clip-rule="evenodd" d="M35.6429 7.08179C48.5727 1.20202 63.2376 -1.02772 77.3416 0.434823C84.3031 1.15557 91.1729 2.70188 97.7107 5.21371L98.2838 5.43573C99.8976 6.05843 101.637 6.67654 102.864 7.9441C104.291 9.41721 104.692 11.6448 103.671 13.4646C102.878 14.8785 101.453 15.8928 99.9333 16.434C100.469 16.8736 100.977 17.364 101.453 17.9114C102.257 18.8286 102.318 20.1367 101.453 21.0415C99.7878 22.7851 97.6269 24.0467 95.2994 24.6513C95.5608 25.9173 95.4196 27.3186 94.8588 28.5803C93.2496 32.2022 88.7167 32.6339 85.2284 32.4188L85.1231 32.4121L84.9291 34.6376C84.8258 35.8233 84.1174 36.7427 82.9158 36.9244C82.8736 36.9308 82.8312 36.935 82.7893 36.939C84.6909 43.8335 85.8399 50.941 86.9003 58.0066C87.4543 61.6949 87.9503 65.3918 88.4251 69.091L88.5826 70.3241C89.0886 74.3123 89.7211 78.3407 89.9403 82.3584C90.1364 86.0042 89.4428 89.4852 87.2018 92.4272C85.1905 95.0648 82.4477 97.0409 79.4983 98.5077C72.8342 101.824 65.8202 104.292 58.4499 105.438L57.9584 105.514C55.1134 105.949 52.1821 106.316 49.3677 105.527C46.8949 104.833 44.3016 103.045 44.8603 100.173C45.0479 99.203 46.4014 99.1608 46.8652 99.9111L46.9723 100.083C47.5284 100.968 48.1379 101.79 49.1086 102.246C50.2447 102.783 51.5623 102.933 52.8041 102.948C56.2721 102.988 59.8835 102.122 63.2229 101.253C69.459 99.6302 75.8638 96.9839 80.972 92.9745C83.1455 91.2711 84.8911 89.1407 85.5067 86.3994C86.2678 83.02 85.5679 79.3255 85.2221 75.9291C84.5106 68.9209 83.6638 61.9257 82.7704 54.9382L82.5911 53.5408C81.8387 47.6991 81.0481 41.8553 80.6726 35.9797C80.5166 35.7662 80.4112 35.5232 80.369 35.2569L80.3102 34.8744V34.8744C80.2594 34.5468 80.251 34.2466 80.2868 33.9698C80.2889 32.9088 80.3184 31.8542 80.3796 30.793C80.3899 30.603 80.3985 30.4127 80.4049 30.2246C79.3044 30.4677 78.1954 30.6643 77.0823 30.8312C69.2566 32.0127 61.3086 32.3086 53.4197 31.721C49.4836 31.427 45.5773 30.9221 41.6832 30.2902C39.7013 29.9689 37.7261 29.6138 35.757 29.2165C34.334 28.9312 32.9404 28.5444 31.5406 28.1809C30.0964 30.2881 29.3164 32.8813 29.4682 35.4281C29.6389 38.3342 31.5701 40.9697 31.0283 43.9392C30.5198 46.7182 28.1448 47.5799 25.8 48.2682L24.8028 48.557C24.0356 48.7816 23.4785 48.9982 23.3396 49.9225C23.1014 51.5097 23.3944 53.2956 23.4555 54.8913C23.5293 56.7787 23.6261 58.6661 23.6706 60.5534C23.6938 61.5299 23.7315 62.5105 23.7296 63.487C23.7275 64.1802 23.6242 64.6536 23.3565 65.1015C23.5631 65.3616 23.7484 65.6427 23.913 65.9407C23.9657 66.038 23.835 66.1413 23.7572 66.0612C23.5483 65.8435 23.3267 65.647 23.0929 65.4713C22.9749 65.6174 22.8378 65.7653 22.6774 65.9238L22.665 65.9069V65.9069C22.1632 66.4078 21.3663 66.4564 20.7442 65.9238L20.5809 65.782C20.1256 65.3819 19.8127 65.0486 19.686 64.3873C19.6797 64.3535 19.6732 64.3197 19.6692 64.2859C18.5118 64.2457 17.3354 64.5202 16.2939 65.0974C14.6432 66.0126 13.4816 67.3166 12.7945 68.9271C13.0683 69.2484 13.3888 69.5358 13.762 69.7767C13.8147 69.8127 13.7683 69.8909 13.7114 69.8634C13.3298 69.6837 12.9882 69.4618 12.6825 69.2019C12.4359 69.8359 12.263 70.5165 12.1576 71.2372C11.7865 73.7818 12.4485 76.8908 14.7423 78.3407C15.7352 78.9684 16.8695 79.3086 18.0459 79.3129C18.6191 79.3148 19.1147 79.2178 19.6713 79.0804C20.0487 78.9874 20.4239 78.8521 20.8182 78.8521C21.1555 78.8521 21.4675 78.9367 21.7563 79.1057L21.6762 79.1128C21.4815 79.1311 21.519 79.1393 21.79 79.1393C22.6333 79.1755 23.1159 80.0336 22.7282 80.7796L22.6773 80.8949C22.6666 80.9182 22.6576 80.9374 22.6504 80.9527L22.6198 81.1506C22.6167 81.1695 22.6135 81.1888 22.6101 81.2087L22.5984 81.2488C22.5963 81.2552 22.594 81.2615 22.5912 81.2679L23.8559 83.2014C25.4065 85.5667 26.9918 87.9228 28.7957 90.0833C30.0606 91.5987 31.4014 93.0844 32.8181 94.4603C34.0915 95.6967 35.6179 96.2928 37.0599 97.265C37.8296 97.7807 38.055 98.8607 37.3552 99.556C35.3016 101.6 32.3944 99.9766 30.7099 98.3154C29.1161 96.7408 27.7394 94.8471 26.5525 92.9513C24.4464 89.5803 22.7704 85.9958 22.0367 82.1048C21.731 82.3859 21.341 82.5613 20.9468 82.6987C20.1562 82.9735 19.2855 83.0876 18.4506 83.1172C16.8505 83.17 15.2482 82.7811 13.8083 82.0921C7.94959 79.2917 7.08944 70.9053 10.6713 65.9598C10.1883 64.5556 9.91858 63.0321 9.62551 61.7329L9.49218 61.1522C8.0108 54.6652 7.01654 47.8355 9.64249 41.479C9.97981 40.659 10.3593 39.8601 10.8083 39.095C11.1688 38.48 11.7887 37.8248 11.9594 37.1252C12.3389 35.5887 9.99667 33.974 9.31361 32.7545C8.51038 31.3237 8.39653 29.635 9.4907 28.3265C9.62984 28.1619 9.78142 28.0095 9.94607 27.8765C8.90883 25.9913 8.86034 23.6199 10.2265 21.7601C11.1246 20.5342 12.4949 19.6762 13.9917 19.4162C14.9067 19.2577 16.0072 19.3169 17.0128 19.6001C22.5193 14.4748 28.802 10.1929 35.6429 7.08179ZM14.4976 71.2118C15.9673 69.912 17.5906 69.2315 19.5934 69.4027C21.6067 69.5758 24.0312 70.4108 25.2137 72.1418C26.1478 73.5092 24.2441 75.5149 22.8738 74.4878C21.6257 73.5515 20.7928 72.4947 19.2434 71.9917C17.8518 71.5415 16.1294 71.252 14.6726 71.5098C14.5124 71.5373 14.3524 71.3386 14.4976 71.2118Z" fill="black"/>
</svg>
