<svg width="100" height="120" viewBox="0 0 100 120" fill="none" xmlns="http://www.w3.org/2000/svg">
<path fill-rule="evenodd" clip-rule="evenodd" d="M51.0276 15.9062C62.9982 15.9062 75.3797 25.2082 79.7677 31.144C83.4569 36.1346 85.4432 58.7016 85.4432 73.9526C85.4432 77.1423 87.199 83.155 86.6866 86.2061C84.809 97.3863 76.6286 106.763 60.4377 106.763C44.2469 106.763 32.6384 100.329 20.6041 83.055C14.7651 83.055 11.9352 78.5659 11.8941 71.4817C11.853 64.3975 17.5303 61.8201 17.5303 61.8201C17.5303 61.8201 15.5061 33.8628 20.6041 26.5841C25.7022 19.3054 39.057 15.9062 51.0276 15.9062Z" fill="#D08B5B"/>
<path fill-rule="evenodd" clip-rule="evenodd" d="M45.9899 11.9532C53.5479 11.186 60.9541 11.8306 68.4024 13.1645C68.9716 13.2678 69.2942 13.6421 69.4141 14.0921C72.9224 14.2527 76.4347 14.5108 79.9384 14.7031C81.2098 14.7728 81.9306 16.0323 81.3509 17.1695C81.2351 17.3955 81.1148 17.6153 80.9925 17.8351L81.1461 17.7843C82.2001 17.4453 83.3386 17.2782 84.3656 17.8163C85.6727 18.501 86.1852 20.012 85.8964 21.4027C85.8224 21.7577 85.6982 22.098 85.557 22.4301C85.8437 22.411 86.1325 22.4174 86.4192 22.4554C87.9456 22.6583 89.0798 23.8313 89.1599 25.3932C89.278 27.7516 87.7622 30.1443 85.9765 31.8328C86.2356 32.3677 86.3349 32.9976 86.2272 33.6358C86.0122 34.8976 85.085 35.6532 84.0102 36.1461C84.4584 37.5729 84.6703 39.0646 84.5452 40.5891C84.5035 41.098 84.0595 41.5184 83.5909 41.6215C85.3377 46.4432 86.2219 51.6201 86.8578 56.6644C87.311 60.2533 87.5345 63.8632 87.5617 67.4792C87.575 69.1117 87.5482 70.7461 87.4798 72.3789L87.4523 72.9912C87.3679 74.7562 87.3637 76.6095 87.0475 78.3555C88.1269 80.1961 88.5612 82.481 88.7446 84.5436C88.9723 87.0967 88.6118 89.7301 87.8084 92.1587C84.7767 101.335 75.6273 107.126 66.4373 108.631C57.9309 110.024 48.0876 108.15 43.1164 100.403C43.0384 100.281 43.205 100.179 43.302 100.26C46.8585 103.159 50.9841 104.453 55.4664 105.083C63.2162 106.169 71.9271 104.326 78.1464 99.4398C81.1316 97.0938 83.2841 93.6784 84.2309 90.0028C84.7137 88.1241 84.8802 86.1646 84.6903 84.231C84.4963 82.2697 83.6301 80.5958 83.084 78.7422C82.9006 78.1164 83.0946 77.5352 83.4762 77.1212C83.5835 75.6161 83.8367 74.0986 83.9334 72.5983C84.041 70.8925 84.1065 69.1869 84.1297 67.4792C84.174 63.9369 84.0264 60.3884 83.7292 56.8611C83.1852 50.4021 81.7411 44.0998 80.8936 37.6957C80.5798 37.9778 80.13 38.0937 79.6585 37.8472L79.6097 37.8204L79.3525 37.6726C79.3377 37.6726 79.3209 37.6747 79.3059 37.6766C77.5458 37.8481 75.72 37.6029 74.0335 37.0764C72.2687 36.5271 70.6308 35.6817 69.1675 34.5552C68.8894 35.9689 68.7732 37.3977 68.7713 38.8391C68.7692 39.7394 67.8184 40.2067 67.0637 39.8221C63.7179 38.1184 60.5219 36.1551 57.4882 33.9486C57.1338 35.7684 56.7798 37.5879 56.4233 39.4097C56.2865 40.1116 55.3945 40.3948 54.8232 40.0609C52.5507 38.7355 50.588 37.0005 48.9899 34.9376C48.6709 35.5492 48.3509 36.1608 48.0287 36.771L47.5437 37.6851C47.0651 38.5833 46.4242 39.5769 45.3764 39.8641C44.2675 40.1685 43.3418 39.448 42.9689 38.4417C42.855 38.1292 42.7496 37.8077 42.6526 37.4843C41.7079 39.6466 40.6414 41.7601 39.4355 43.7764C37.6266 46.8006 35.4549 49.4954 33.29 52.2598C32.6323 53.0991 31.5065 52.2979 31.4158 51.4823C31.3631 51.0025 31.3188 50.5206 31.2807 50.0406C30.0191 52.5929 28.7027 55.1213 27.2685 57.5763L27.4739 58.3831V58.3831C28.0656 60.7667 28.5571 63.1672 29.0913 65.5635C29.2637 66.3366 28.8539 67.442 27.9529 67.5736C26.8764 67.7309 25.8579 68.2823 24.7553 67.9029C23.553 67.4891 23.3154 66.4473 22.7479 65.4599C22.6347 65.2631 22.5029 65.0824 22.3612 64.9108L22.3252 64.9577V64.9577C22.2366 65.0742 22.0258 64.9474 22.0785 64.8142L22.1403 64.6604V64.6604C21.6527 64.1415 21.0691 63.7087 20.5326 63.2431C19.2575 63.0277 17.8233 63.2636 16.9448 63.7829C14.9441 64.9662 14.0251 67.4052 14.0061 69.6478C13.9829 72.2728 14.7944 75.2232 16.1647 77.4678C16.7679 78.4548 17.5943 79.3465 18.6862 79.7842C19.77 80.2194 20.9443 80.0843 22.0469 80.4941C22.7763 80.767 23.2254 81.5785 22.7848 82.3138C22.7552 82.3648 22.7215 82.4111 22.6897 82.4599L23.0176 82.8962C23.2432 83.1985 23.4784 83.5221 23.6976 83.8588C24.2584 84.5057 24.8487 85.1292 25.42 85.7654C26.476 86.9382 27.5009 88.1431 28.54 89.3328C29.5205 90.4553 30.5578 91.5097 31.6266 92.5474C32.6365 93.5304 33.8972 94.3566 34.8248 95.4051C35.7269 96.428 35.9717 98.2137 34.4873 98.8057C32.8451 99.4622 31.3914 97.9236 30.2859 96.8978L30.2394 96.8547C28.213 94.9853 26.3831 92.849 24.9299 90.4969C23.4904 91.4792 21.4083 91.5731 19.9749 90.5909C19.2206 90.0742 18.6419 89.2058 18.3607 88.261C18.0955 88.3206 17.8304 88.3555 17.572 88.3515C17.439 88.4288 17.3055 88.5041 17.1706 88.5742C16.1015 89.132 14.7883 88.8828 14.2992 87.6969C13.8538 86.6204 14.3128 85.3978 14.7139 84.3605L14.7967 84.1462C15.0244 83.5547 15.2753 82.91 15.5873 82.3035C14.7187 81.6483 13.9764 80.8344 13.3484 79.9089C11.238 76.7915 10.1839 72.2324 10.6499 68.5129C10.9302 66.2683 11.982 63.9435 13.7045 62.43L13.6414 62.2651V62.2651C13.1586 61.0374 12.7199 59.805 12.4355 58.5075C12.1024 56.9901 11.9399 55.4176 11.7925 53.8726C11.4805 50.6094 11.5648 47.2722 11.9801 44.0216C12.7602 37.903 14.7377 31.8964 18.2479 26.805C17.2526 25.6107 16.4643 24.2052 16.8752 22.5886C17.0631 21.8465 17.4908 21.1429 18.1361 20.7179C18.4922 20.4835 18.9162 20.4476 19.2725 20.2531L19.3796 20.194C19.5361 20.1025 19.4164 20.1122 19.3231 19.6867C18.9541 17.9873 19.2598 16.3453 21.1256 15.781C22.8817 15.2505 24.543 16.377 25.5824 17.7191C28.302 15.785 31.8859 14.7728 35.0377 13.9126C38.6217 12.9381 42.2982 12.3296 45.9899 11.9532ZM16.6141 68.9544C16.6012 67.5701 17.9104 66.7162 19.1988 66.9426C20.0638 67.0935 20.7855 67.6111 21.4631 68.1461L21.7935 68.4081C22.6187 69.0576 23.5661 69.7577 24.058 70.6772C24.779 72.034 23.255 73.8599 21.8319 72.9088C20.8558 72.253 20.23 71.2022 19.5897 70.226L19.5234 70.1253C19.2325 69.6878 18.9774 69.2229 18.5787 68.872L18.4926 68.7964C18.3616 68.6845 18.2209 68.5823 18.0517 68.5339C17.7253 68.4398 17.1206 68.5715 16.9767 68.9611L16.9638 69.0009C16.9111 69.1977 16.6162 69.1552 16.6141 68.9544Z" fill="black"/>
</svg>
