<svg width="100" height="120" viewBox="0 0 100 120" fill="none" xmlns="http://www.w3.org/2000/svg">
<path fill-rule="evenodd" clip-rule="evenodd" d="M14.3301 21.6424C15.4234 20.4663 16.8218 19.59 18.3504 19.31C16.9531 20.0098 15.5872 20.7391 14.3301 21.6424ZM12.1885 31.7839C11.9952 30.8875 11.8653 29.9825 11.8244 29.0777C12.0688 29.4501 12.459 29.6989 12.8973 29.8274C12.6142 30.4629 12.3734 31.1177 12.1885 31.7839ZM85.348 45.8373C84.086 40.571 78.1982 30.4416 76.8066 28.492C75.2954 23.6645 83.5372 19.7931 79.0549 16.0182C77.0255 14.3149 74.3435 13.7122 71.8275 13.1081C54.4073 8.91408 35.691 11.0293 19.5344 18.7417C17.0769 18.2232 14.5164 19.2364 12.7293 21.016C4.33331 29.4759 15.7755 44.7401 18.2775 54.2775C22.5702 64.912 13.7275 66.7008 14.6758 75.6987C15.4126 80.3471 20.1091 81.5757 24.0724 82.2782C24.7076 82.4272 25.5568 82.4496 25.7617 83.1228C26.4038 87.052 28.6052 90.7965 31.5607 93.3377C31.3023 94.1054 31.4996 95.0372 32.411 95.7114C40.6685 101.863 51.0804 104.942 61.3794 104.388C73.6531 103.729 80.0002 96.6765 81.5319 94.8605C90.0004 83.3954 88.9885 68.2682 87.261 54.6046C86.0576 45.0863 87.5836 55.1663 85.348 45.8373Z" fill="#D08B5B"/>
<path fill-rule="evenodd" clip-rule="evenodd" d="M47.503 2.01636C47.8888 0.807433 48.9808 0.0803882 50.231 0.230447C51.3378 0.361484 52.5226 1.46262 52.3877 2.67788C52.3624 2.91248 52.3287 3.13229 52.2886 3.33941L52.2939 3.34126V3.34126L52.2992 3.34152L52.2718 3.42184C52.1895 3.80861 52.0757 4.15522 51.907 4.48281C51.692 5.11053 51.4854 5.74035 51.2809 6.37229C51.576 6.35961 51.8775 6.37651 52.1832 6.43358C52.4994 5.62199 52.8178 4.81252 53.134 3.99882C53.4734 3.13017 53.7117 2.01424 54.3821 1.34215C55.2401 0.484067 56.7285 0.306533 57.7742 0.919449C58.8789 1.56618 59.2732 2.71593 59.0328 3.9481C58.9107 4.57661 58.4918 5.01401 57.9735 5.28882L57.9176 5.31765L57.5191 6.2645C57.6414 6.21166 57.7679 6.16305 57.9049 6.12289C58.12 6.05949 58.3308 6.01933 58.5374 6.00242C59.1066 4.96892 59.7327 3.96501 60.38 2.98011C61.1242 1.84728 62.5788 1.3654 63.7995 2.08188C64.8916 2.72227 65.4776 4.40461 64.6955 5.50998C64.101 6.34904 63.5381 7.20501 62.9836 8.06943C63.0785 8.08634 63.1734 8.10747 63.264 8.13495C63.3062 8.07788 63.3504 8.02082 63.3968 7.96375C64.0019 7.21135 64.706 6.64704 65.4291 6.02144C66.1059 5.43389 66.4179 4.51029 67.3076 4.06434C68.427 3.50426 69.7763 3.77268 70.4425 4.88861C71.8719 7.27898 69.4727 9.02473 67.9379 10.4725C69.2724 9.63765 70.6617 8.87467 72.0869 8.21526C72.888 7.8454 73.7018 7.48822 74.5282 7.17964C75.7531 6.72313 76.744 6.86917 77.7496 7.71859C78.1986 8.09902 78.4221 8.92984 78.2155 9.48336C77.8149 10.5443 77.1825 11.189 76.0735 11.4954C75.2935 11.711 74.4945 11.8568 73.7144 12.083C72.4074 12.4592 71.1382 12.9178 69.907 13.4906C69.9955 13.5455 70.0799 13.6047 70.1579 13.6723C71.0771 13.3743 72.0131 13.1165 72.9534 12.8967C74.5128 12.5301 76.1 12.2824 77.6942 12.1275L78.2238 12.0781C80.135 11.8942 82.4332 11.5549 83.6062 13.3891C83.992 13.9936 84.0342 14.9912 83.6062 15.5893C82.7882 16.739 81.9745 16.9673 80.621 16.9884C81.9534 17.13 83.2837 17.3054 84.6076 17.5104C85.5202 17.6499 86.4327 17.8081 87.3413 17.9835L87.7952 18.0726C88.9021 18.2946 90.1375 18.4235 91.0883 19.066C93.1628 20.4694 92.1888 23.2021 89.8908 23.4938C88.7798 23.6333 87.5465 23.162 86.4565 22.9421C85.3982 22.7287 84.3357 22.5406 83.2689 22.3757C82.7165 22.2891 82.1642 22.213 81.6097 22.1432C82.7376 22.306 83.8571 22.5364 84.947 22.8618L85.2498 22.9534C87.3569 23.5972 90.2012 24.6226 90.8585 26.8796C91.2569 28.2513 90.167 29.4475 88.8472 29.5278C87.6203 29.6018 86.5978 28.8684 85.5563 28.3274C84.7974 27.9342 84.0257 27.6405 83.2078 27.389C82.3624 27.129 81.5001 26.9134 80.6315 26.738C81.3656 27.1434 82.0804 27.589 82.7666 28.0874L83.0821 28.3211C84.906 29.6835 87.6873 31.7928 87.0447 34.3466C86.8423 35.1519 85.9463 35.9212 85.0862 35.8387C82.8473 35.6295 81.6118 33.2391 79.9232 31.9584C79.4825 31.6244 78.9998 31.2947 78.4938 30.9735C81.0532 34.0338 83.0897 37.5718 84.6392 41.2261C88.0447 49.2654 89.0895 56.7104 89.1145 65.3545L89.115 65.6222C89.1192 70.3903 89.0117 75.245 88.5479 79.9919C88.1178 84.3775 87.3293 88.7059 85.3455 92.6774C82.0208 99.3368 75.5423 104.523 68.3975 106.497C60.4474 108.695 51.5613 106.977 45.049 101.905C43.3877 100.611 45.5908 97.8026 47.2879 98.9966C54.0658 103.763 62.8318 105.272 70.6111 102.046C76.7819 99.489 81.751 93.9875 83.8571 87.6534C85.1976 83.6237 85.5879 79.3271 86.0661 75.1275L86.0981 74.8477C86.6041 70.4558 86.8971 66.0344 86.8929 61.6129C86.8866 53.402 85.7102 46.643 82.1073 39.195C80.4123 35.6866 78.2134 32.4426 75.5865 29.5955C74.7896 29.7582 73.9421 29.5299 73.1368 29.4433C72.7257 29.3989 72.3146 29.3566 71.9035 29.3186C72.3234 29.5908 72.7353 29.8738 73.1402 30.1635L73.6711 30.5474C75.3328 31.7403 77.4409 33.0991 77.0138 35.4055C76.8979 36.029 76.278 36.6017 75.6772 36.7433C73.4994 37.2632 72.0026 35.1413 70.531 33.8816C69.2514 32.7868 67.9126 31.8062 66.5486 30.8234C66.2387 30.6015 65.9267 30.3796 65.6126 30.1598C65.9077 30.5047 66.1948 30.855 66.4748 31.2086L66.8888 31.7347C68.1416 33.3061 69.9476 35.3487 68.8318 37.3858C68.5156 37.9607 67.841 38.3432 67.1874 38.3306C64.94 38.2841 64.0462 35.7267 62.992 34.112C62.0855 32.7277 61.101 31.4236 60.0827 30.1196C59.8023 29.7624 59.5198 29.4052 59.2331 29.0481C54.5128 29.2932 49.8094 29.9188 45.1881 30.9185C42.0132 31.6054 38.8909 32.4954 35.7918 33.4695L35.5343 33.5516C33.8571 34.093 32.129 34.7859 30.9197 35.974C30.7471 36.7926 30.8796 37.6559 31.0447 38.4735L31.1734 39.0992C31.7037 41.7159 32.065 44.2841 31.7946 46.9706C31.5142 49.7414 30.6815 52.2332 29.6653 54.8074C29.1846 56.0206 28.6871 55.8008 28.5163 57.1027C28.3855 58.0944 28.4664 59.1181 28.5558 60.1181L28.6305 60.9658C28.8179 63.1864 28.912 65.6075 27.4601 67.4398C27.2345 67.7209 26.7518 67.6089 26.5915 67.3278C26.5283 67.2158 26.4608 67.108 26.387 67.0045C25.6871 65.9879 24.614 65.4088 23.387 65.1847C23.231 65.1573 23.2922 64.948 23.4229 64.9311C24.4601 64.8085 25.4426 65.0685 26.2774 65.6053C25.8815 64.2329 22.8165 64.9003 21.809 65.167L21.7743 65.1763C20.5178 65.5144 19.3287 66.0639 18.2809 66.8417C16.1727 68.4057 14.9542 70.8447 15.0153 73.4718C15.0764 76.0545 16.4067 78.4406 18.692 79.677C19.7946 80.273 21.049 80.5605 22.2971 80.5478C23.6 80.5351 24.7595 79.9623 26.0645 80.0427C26.8192 80.0892 27.3969 80.9007 26.9605 81.6088C26.6695 82.0822 26.2901 82.4542 25.8516 82.7395C26.9204 85.2102 28.2844 87.5667 29.8572 89.7415C30.7279 90.9483 31.7145 92.0621 32.8002 93.0787C33.6477 93.8734 35.484 94.7928 35.3807 96.118C35.3449 96.5956 35.0982 96.8873 34.6639 97.0648C33.3137 97.6182 31.6719 95.7127 30.7688 94.7941L30.6962 94.7209C29.5705 93.5966 28.5438 92.3538 27.6499 91.035C26.0645 88.6932 25.0799 86.0535 24.6731 83.2805C22.5079 83.9336 19.6407 83.3207 17.8741 82.5197C12.321 80.0046 10.5058 72.508 13.8811 67.5159C14.5346 66.5501 15.3526 65.7237 16.2845 65.0558C16.08 64.9438 15.8881 64.8001 15.7173 64.6183C14.7727 63.6124 14.1048 62.2996 13.442 61.0897L13.3625 60.945C12.774 59.8798 12.2189 58.7979 11.6986 57.6993L11.5051 57.2866C10.3435 54.7821 9.32523 53.6873 8.4967 51.0539C7.69979 48.5134 7.07154 45.9244 6.66465 43.291L6.55653 42.5939C6.32121 41.0658 6.09867 39.4318 6.27042 37.8804C5.08771 38.2672 3.89867 38.506 2.72861 37.9248C1.957 37.5422 1.53114 36.4263 1.79467 35.6253C1.98652 35.0356 2.30696 34.5728 2.71385 34.2092C2.47141 34.0866 2.24372 33.9303 2.04344 33.7569L1.86846 33.605V33.605C1.16009 32.9876 1.1095 31.8146 1.53957 31.0411C1.58174 30.9671 1.6239 30.891 1.66396 30.8171C2.07295 30.0837 2.91835 29.6039 3.7532 29.6166C3.88813 29.6187 4.02306 29.6187 4.16009 29.6166C3.77007 29.5299 3.38848 29.3968 3.02587 29.1728C1.38989 28.1646 1.5965 25.4319 3.57611 24.95C4.40675 24.7492 5.32383 24.8316 6.23879 25.0472C6.20506 25.0282 6.17133 25.0092 6.1376 24.988C5.4461 24.5632 4.86634 23.7326 4.9317 22.8809C5.00338 21.9382 5.30696 21.2661 6.1376 20.7716C6.85861 20.3447 7.87899 20.3045 8.59578 20.7716C9.21771 21.1795 9.82698 21.6297 10.4131 22.1137C9.82487 21.3887 9.31468 20.6004 9.10808 19.7634C8.85298 18.7215 9.27884 17.5865 10.2149 17.037C10.9612 16.5995 11.7497 16.6481 12.4538 16.9863C12.4159 16.4389 12.5487 15.8809 12.9113 15.3864C13.6534 14.3721 15.0027 13.7886 16.1769 14.5283C16.3308 14.6255 16.5374 14.7925 16.7377 14.9975C16.3477 13.7526 16.6998 12.4465 18.0301 11.8843C18.8417 11.5398 19.9401 11.7131 20.6443 12.307C20.1973 9.88281 23.7665 8.10113 25.1537 10.6056C25.4686 11.173 25.7801 11.7704 26.0586 12.3816L26.1615 12.6113L26.172 12.6071L26.1011 12.4391V12.4391L26.0286 12.2711C25.6428 11.3728 25.1516 10.4387 25.0167 9.46434C24.8185 8.02293 25.4594 6.6555 27.0237 6.44415C27.8312 6.33424 28.7293 6.70199 29.2711 7.34471C28.978 5.10841 31.47 3.48313 33.2641 5.1528C34.1137 5.94325 34.5669 7.09933 35.1066 8.11381C35.4123 8.68657 35.7243 9.25722 36.03 9.83209C36.108 9.7391 36.1924 9.6461 36.2809 9.55522C35.8276 8.19413 35.4756 6.79921 35.1783 5.39585C34.8958 4.0728 35.5557 2.69902 36.9176 2.32514C38.1551 1.98254 39.7047 2.74784 39.9808 4.06878C40.1748 4.99851 40.4046 5.91809 40.6576 6.83303C40.8305 6.79076 41.0012 6.76117 41.1699 6.74004C41.1839 6.56814 41.1999 6.3953 41.2177 6.2234L41.284 5.61203C41.4314 4.21512 41.5801 2.62048 42.3083 1.43303C43.5501 -0.595933 46.7335 0.245241 46.7672 2.64407C46.7862 3.88469 46.2823 5.11475 46.1073 6.3427C46.0314 6.87741 45.9872 7.41847 45.9619 7.95953C46.3013 6.16305 46.7672 4.38982 47.3069 2.64407C47.3701 2.43483 47.4376 2.22559 47.503 2.01636ZM20.0371 71.2928C22.8305 70.8595 25.3835 72.4214 27.0385 74.6089C27.3399 75.0084 27.1418 75.5727 26.8698 75.9087C26.6737 76.156 26.4102 76.1856 26.113 76.2236C25.7714 76.268 25.3392 75.9911 25.1896 75.6931C24.1249 73.5627 22.2254 72.2164 20.0371 71.3879C19.997 71.3731 19.9844 71.3013 20.0371 71.2928ZM23.9094 33.122L23.994 33.031C24.5592 32.4432 23.666 31.5454 23.0995 32.1344C22.5031 32.7545 22.1067 33.5078 21.7256 34.2712C21.3623 34.999 22.4531 35.642 22.8178 34.9113L22.9839 34.5793C23.2446 34.0629 23.5225 33.5527 23.9094 33.122V33.122ZM16.0646 31.9157C16.8657 31.7804 16.5261 30.5582 15.7283 30.693C14.6949 30.8676 13.6654 31.066 12.6318 31.2408C11.8308 31.3761 12.1705 32.5983 12.9682 32.4637C14.0017 32.2889 15.0311 32.0904 16.0646 31.9157ZM63.7879 23.5713C63.014 23.3124 62.6819 24.5368 63.4516 24.7942C64.5152 25.1499 65.5702 25.5145 66.5792 26.0084C67.308 26.3652 67.95 25.2719 67.2176 24.9134C66.1101 24.3713 64.9554 23.9619 63.7879 23.5713ZM15.8824 21.9279C15.1266 21.6248 14.7984 22.8508 15.5462 23.1508L18.2784 24.2462V24.2462C19.0342 24.5493 19.3625 23.3234 18.6147 23.0235L15.8824 21.9279V21.9279ZM73.3284 18.9505L73.2287 18.8874C72.5435 18.4423 71.9088 19.5396 72.5901 19.9824C72.9902 20.2422 73.4765 20.4184 73.8428 20.7279L73.9194 20.7963C74.5109 21.3564 75.4071 20.4615 74.8139 19.8995C74.3799 19.4888 73.8304 19.2601 73.3284 18.9505V18.9505Z" fill="black"/>
</svg>
