<svg width="62" height="62" viewBox="0 0 62 62" fill="none" xmlns="http://www.w3.org/2000/svg">
<path fill-rule="evenodd" clip-rule="evenodd" d="M20.0705 34.4502C25.6711 34.4502 30.2113 30.476 30.2113 25.5735C30.2113 20.671 25.6711 16.6968 20.0705 16.6968C14.4699 16.6968 8.40869 20.5098 8.40869 25.4123C8.40869 27.4924 10.0468 31.1274 11.4158 32.6407C13.2733 34.6938 16.8463 34.4502 20.0705 34.4502Z" fill="white"/>
<path fill-rule="evenodd" clip-rule="evenodd" d="M44.209 32.7513C48.4963 32.7513 51.9719 29.1574 51.9719 24.724C51.9719 20.2907 48.4963 16.6968 44.209 16.6968C39.9216 16.6968 35.2817 20.1449 35.2817 24.5782C35.2817 26.4594 36.5358 29.7465 37.5837 31.1149C39.0056 32.9716 41.7408 32.7513 44.209 32.7513Z" fill="white"/>
<path fill-rule="evenodd" clip-rule="evenodd" d="M19.9287 39.9644C19.973 39.9234 20.0432 39.9091 20.0966 39.9427C21.0108 40.5209 21.1189 42.4656 21.1293 43.5887C21.5075 43.6872 21.881 43.7992 22.2342 43.8774C22.9843 44.0434 23.7386 44.1882 24.4913 44.3409L25.0555 44.4573C26.9413 44.8549 28.8623 45.1491 30.784 45.2964C32.6491 45.4393 34.5682 45.4915 36.428 45.2511C37.2266 45.1478 38.0206 44.9753 38.7923 44.7452C39.7046 44.473 40.4311 44.0217 41.2796 43.6265C43.4037 42.6367 45.1838 45.5371 43.1396 46.8099C41.3848 47.9019 38.9907 48.2956 36.9651 48.4647C34.8946 48.6374 32.8323 48.4478 30.7868 48.1202C28.5754 47.7658 26.4095 47.2216 24.3123 46.4324C23.4255 46.0988 22.5673 45.6943 21.7294 45.252L21.5013 45.1305C21.3621 45.0556 21.217 44.9798 21.071 44.9028C20.914 46.3035 20.4617 47.6563 19.9151 48.9568L19.9023 48.9339C19.6033 49.9598 18.5233 50.5945 17.4488 50.1414C16.1876 49.6099 16.0918 48.2146 16.8256 47.2242L16.8606 47.178C17.7235 46.0676 18.2641 44.69 18.7339 43.3769C18.975 42.7037 19.1981 42.0143 19.3916 41.3257C19.5317 40.8276 19.5368 40.3265 19.9287 39.9644ZM52.4284 28.811C51.6808 31.071 50.0504 32.8115 47.7793 33.5767C45.5284 34.3352 43.0251 34.0587 40.7243 33.6486C40.221 33.5589 39.7108 33.4599 39.2016 33.3443C39.6183 33.6026 39.9864 33.9661 40.3387 34.3504C40.8595 34.9187 41.332 35.5175 41.4752 36.2288C41.6174 36.9345 41.3934 37.4715 40.9849 37.8767C40.3564 38.5 39.3426 38.8358 38.4839 39.0214C36.561 39.4372 34.6348 39.3725 32.7214 38.9463C32.2328 38.8375 31.9015 38.5754 31.7156 38.2336C31.4897 37.8183 31.4712 37.302 31.6008 36.8317C31.7303 36.3617 32.0103 35.9283 32.4165 35.6885C32.751 35.491 33.1693 35.4369 33.644 35.5949C34.5969 35.912 35.5429 36.1222 36.5494 36.1464C36.9754 36.1563 37.4042 36.1437 37.8295 36.1046C38.07 36.0825 38.3101 36.0519 38.5487 36.0136C38.4081 35.8264 38.2716 35.6357 38.1382 35.443C37.9806 35.2153 37.827 34.9846 37.6805 34.7501C37.2566 34.0711 36.9037 33.373 36.5936 32.6362C36.4941 32.4002 36.4019 32.1631 36.3133 31.9253C36.3005 31.891 36.2879 31.8567 36.2752 31.8223C36.2478 31.7995 36.2207 31.7764 36.1938 31.7531C35.5872 31.2281 35.0786 30.5814 34.7189 29.7804C33.745 27.6107 33.9036 24.9175 34.4946 22.6646C34.9681 20.8588 36.0135 19.1885 37.3946 18.0538C37.6358 17.6569 37.7949 17.4161 37.9901 17.2134C38.7838 16.3872 39.8913 15.8301 40.9722 15.4912C43.3862 14.7339 46.0154 15.2772 48.0617 16.7191C49.9511 18.0504 51.4303 20.047 52.2296 22.2677C52.9865 24.3707 53.1342 26.6774 52.4284 28.811ZM19.5467 15.0759C22.4176 15.0514 25.3386 15.8993 27.6682 17.5963C29.8971 19.2201 31.6468 21.6174 31.6447 24.473C31.6426 27.2533 30.157 29.9869 28.5093 32.1395C26.6599 34.5561 24.243 35.7212 21.2041 35.7481C19.6245 35.7622 18.0333 35.6222 16.465 35.4301L15.6237 35.3239C14.465 35.1744 13.2943 34.9975 12.1961 34.5992C6.96845 32.7023 6.80662 25.8571 8.74268 21.4815C10.2376 18.1033 14.0212 14.8088 17.794 15.2042C18.3625 15.1245 18.9463 15.0812 19.5467 15.0759ZM24.3955 18.295C20.8004 16.6807 16.4322 17.164 12.9448 18.8868C11.5633 20.3945 10.5537 22.2948 10.1451 24.0393C9.7088 25.9015 9.77261 27.9074 10.4286 29.7123C11.2295 31.9157 13.2017 32.4614 15.3292 32.8L16.1551 32.9297L16.5016 32.9822C18.5921 33.2942 20.8775 33.5368 22.8864 33.1464C25.1253 32.7108 26.5472 30.9014 27.6663 29.0463L27.7185 28.9593C28.8807 27.0155 29.8536 24.6516 28.8788 22.4243C28.05 20.5313 26.2397 19.1231 24.3955 18.295ZM45.6154 18.8575C44.3816 18.1735 42.9743 18.0493 41.6421 18.5071C41.0688 18.704 40.5736 19.0232 40.0933 19.381L39.9018 19.526C39.3113 19.9795 38.7597 20.2092 38.3166 20.8217L38.2594 20.9038C38.0359 21.2377 37.6449 21.3713 37.2887 21.3269C36.8735 22.4718 36.7022 23.7099 36.6987 24.9287L36.6991 25.0902L36.7012 25.255C36.7278 26.6957 36.9791 28.4581 38.1122 29.4237C39.1457 30.3043 40.7107 30.5157 42.1079 30.6383L43.1846 30.7281L43.4708 30.7497C44.9435 30.8522 46.5572 30.8173 47.7914 29.9451C48.8663 29.1855 49.3734 27.8963 49.5048 26.6233C49.8156 23.616 48.294 20.3422 45.6154 18.8575ZM18.7593 19.1353C20.7391 18.1242 23.1174 18.3776 24.7944 19.6449C24.6455 19.674 24.4988 19.7112 24.3526 19.7846C23.9722 19.9754 23.736 20.3575 23.646 20.7642C23.5446 21.2239 23.7826 21.659 24.2362 21.804C24.6309 21.93 25.0988 21.9877 25.4654 21.7478C25.6574 21.6223 25.7916 21.4568 25.8797 21.2484L25.8922 21.2177L25.9076 21.1952L25.9135 21.1847C25.9149 21.1807 25.9079 21.1883 25.897 21.2055C25.9082 21.1795 25.9186 21.1535 25.9289 21.1271C25.9443 21.0956 25.9591 21.0639 25.9712 21.0311C25.9925 21.0127 26.0119 20.9922 26.0316 20.9717C26.3362 21.4407 26.5754 21.9703 26.7273 22.5596C27.7021 26.3417 23.7049 30.2667 20.1338 30.6594C18.7843 30.8077 17.5536 30.4863 16.5324 29.8527C16.5417 29.8402 16.552 29.829 16.5605 29.8159C16.9707 29.8896 17.4605 29.706 17.6094 29.2482C17.9895 28.0805 17.5997 26.7145 16.3279 26.333C15.5094 26.0874 14.6719 26.3588 14.0869 26.9185C13.6446 25.8353 13.4863 24.6158 13.6957 23.3944C13.991 21.6713 15.03 20.1185 16.6471 19.4016C17.4345 19.0522 18.1131 18.9789 18.7593 19.1353ZM39.6087 21.4688L39.6689 21.3738C40.2807 20.432 41.4502 19.2766 42.6621 19.5943C42.8324 19.6389 42.9993 19.7108 43.1497 19.804C43.8156 19.7135 44.5128 19.8648 45.0854 20.2172L45.0698 20.2567C45.0673 20.2633 45.0651 20.27 45.0634 20.277C45.0112 20.5061 45.0416 20.7178 45.1485 20.9283C45.2645 21.1564 45.4299 21.3726 45.6539 21.5034C45.8075 21.593 45.9881 21.6402 46.1651 21.6366C46.4248 21.6319 46.6534 21.5176 46.841 21.343C46.943 21.2483 47.0142 21.1095 47.0535 20.9666C47.1461 21.0554 47.2358 21.1543 47.3214 21.2665C48.7266 23.115 48.5324 26.0853 46.8839 27.733C46.8173 27.7993 46.7466 27.8594 46.6766 27.9207C46.0073 28.8424 44.9757 29.468 43.7366 29.5946C42.5894 29.7119 41.4423 29.3724 40.5625 28.6767C40.6333 28.639 40.6994 28.5902 40.7565 28.5255C40.9067 28.3554 41.0303 28.1876 41.1216 27.9798C41.1445 27.9276 41.1666 27.8749 41.1876 27.8218L41.2181 27.7416C41.2234 27.7269 41.2702 27.5917 41.2578 27.6155L41.2549 27.621L41.2715 27.582C41.429 27.1889 41.3653 26.7394 40.9917 26.4928L40.9504 26.4672C40.8283 26.396 40.677 26.3624 40.5239 26.3619C40.1423 25.8947 39.5744 25.7875 39.0414 25.924L39.0227 25.7732C39.0199 25.748 39.0174 25.7228 39.0156 25.6975C38.6026 24.3277 38.8018 22.7711 39.6087 21.4688ZM21.2713 7.67816L21.4085 7.65681C22.4454 7.50689 23.1505 7.67951 23.8247 8.56604C24.1461 8.98853 24.047 9.6266 23.8247 10.0584C23.1068 11.4535 21.1319 11.165 19.8018 11.4421C18.5031 11.7124 17.2076 12.0804 15.9924 12.6159C14.7525 13.1625 13.5886 13.809 12.4537 14.5473C11.4271 15.2153 10.4961 16.2195 9.3233 16.6081C9.27049 16.6257 9.2069 16.5783 9.21021 16.5223C9.29373 15.1881 10.4077 13.9633 11.2706 13.0131C12.2686 11.9143 13.4823 10.9387 14.7463 10.163C16.0507 9.36283 17.4607 8.70406 18.9206 8.24458C19.6894 8.00258 20.4759 7.81026 21.2713 7.67816ZM37.0691 9.48981C38.3748 7.57984 41.6205 7.94611 43.5356 8.45652C45.9369 9.09607 48.5389 10.3897 50.2227 12.2623C51.7309 13.9398 49.4744 16.1192 47.7783 14.7076L47.3257 14.3321L47.036 14.0941C45.734 13.0303 44.4446 12.0675 42.8579 11.3582C40.9975 10.5269 39.1123 10.122 37.146 9.67897C37.0687 9.66164 37.0233 9.55681 37.0691 9.48981Z" fill="black"/>
</svg>
