<svg width="62" height="62" viewBox="0 0 62 62" fill="none" xmlns="http://www.w3.org/2000/svg">
<path fill-rule="evenodd" clip-rule="evenodd" d="M37.7899 48.8044C36.3561 49.3683 34.662 49.5015 33.182 49.021C31.7669 48.5615 30.4818 47.5388 29.7043 46.2527C29.0118 45.1072 28.7225 43.7477 29.1318 42.3925C29.1514 42.3277 29.2149 42.2862 29.2762 42.27C29.6111 42.575 29.8179 42.8779 30.0246 43.1793C30.3731 43.6874 30.7224 44.1904 31.2018 44.6248C31.8993 45.2569 32.8391 45.7702 33.7718 45.9395C34.685 46.1057 35.6197 45.9588 36.4374 45.5216C36.9347 45.2558 37.3368 44.9005 37.7349 44.5435C38.1685 44.1549 38.5951 43.7603 39.1922 43.5408C39.6707 43.3649 40.1733 43.5133 40.5595 43.8076C40.9745 44.1239 41.2729 44.6189 41.2564 45.1365C41.2307 45.9384 40.8799 46.6072 40.3708 47.1591C39.6825 47.9052 38.7093 48.4428 37.7899 48.8044ZM36.0876 28.8212C37.683 29.7913 40.1138 32.0534 38.3976 34.4584C36.3774 36.579 33.4688 34.1476 32.0355 33.048C30.7065 32.1958 29.2132 34.3876 30.4463 35.3827C40.8034 43.0537 45.0066 29.0748 36.8945 27.6806C36.0014 27.5269 35.6696 28.5211 36.0876 28.8212ZM19.3074 15.3795C21.4818 15.2756 23.398 16.2524 25.4701 16.6963C27.385 17.1067 29.2716 16.8603 31.134 16.3382C34.1564 15.4909 35.4058 20.1195 32.4246 21.0215C30.2536 21.6784 27.9677 21.7241 25.7399 21.3855C23.7609 21.0845 22.1021 20.1208 20.2152 19.5596C18.596 19.0783 16.6911 19.2783 14.9811 19.5049L14.3173 19.5943C13.3307 19.7272 12.3388 19.8606 11.3618 20.0536C10.5142 20.2212 9.66812 20.5278 8.80298 20.5633C8.70474 20.5676 8.6215 20.4399 8.6834 20.3547C9.68837 18.9745 11.6253 17.8854 13.166 17.159L13.2704 17.1101C15.1723 16.223 17.1899 15.4806 19.3074 15.3795ZM18.5108 25.5572L18.5105 25.5096C18.5135 24.1619 19.2981 21.0847 21.2376 21.0847C22.4492 21.0847 23.1848 23.1789 23.3122 25.3378L23.3166 25.4258C23.3728 26.768 23.0046 29.7018 21.2376 29.7018C19.4518 29.7018 18.5292 26.9231 18.5108 25.5572V25.5572ZM47.0647 25.5572L47.065 25.5096C47.062 24.1619 46.2774 21.0847 44.3379 21.0847C43.1566 21.0847 42.4278 23.0755 42.2741 25.176L42.2634 25.3378C42.1869 26.6347 42.5312 29.7018 44.3379 29.7018C46.1237 29.7018 47.0464 26.9231 47.0647 25.5572V25.5572ZM47.035 13.738L47.1737 13.7411C49.4402 13.8197 51.7715 15.1628 52.3766 17.419C52.4079 17.5361 52.2636 17.6149 52.178 17.5346C50.3144 15.7891 47.808 17.457 45.9419 18.3312L45.2565 18.648C42.8507 19.7677 40.1145 21.0841 37.4434 20.2496C36.1747 19.8533 35.3689 18.5493 35.7308 17.2322C36.0528 16.0602 37.4668 15.0753 38.6916 15.4983L38.7471 15.5185C39.7422 15.8993 40.9657 15.5135 41.9934 15.1332L42.8376 14.816C44.1951 14.3007 45.5589 13.7242 47.035 13.738V13.738Z" fill="black"/>
</svg>
