<svg width="62" height="62" viewBox="0 0 62 62" fill="none" xmlns="http://www.w3.org/2000/svg">
<path fill-rule="evenodd" clip-rule="evenodd" d="M30.9691 50.9199C29.5489 50.3403 28.2817 49.3735 27.3553 48.1384C27.0332 47.7091 26.9497 47.2557 27.0172 46.841C27.0932 46.3747 27.369 45.9521 27.745 45.6687C28.1222 45.3843 28.5941 45.2441 29.0503 45.3156C29.4467 45.3777 29.8413 45.5948 30.1536 46.0451L30.2188 46.1352C30.7696 46.8806 31.4873 47.4922 32.3051 47.8864C33.0933 48.2664 33.9748 48.4437 34.8871 48.3406C36.6245 48.1443 37.822 47.2043 39.0949 45.9278C39.2527 45.7666 39.4105 45.6004 39.5692 45.4315C39.6694 45.2784 39.8084 45.1801 39.9627 45.1284C40.1341 45.0711 40.328 45.0743 40.5056 45.1363C40.6769 45.1961 40.83 45.3094 40.9327 45.4603C41.0302 45.6036 41.0855 45.7807 41.0676 45.9843C40.9511 47.3072 40.2598 48.4878 39.2777 49.4148C38.1871 50.4444 36.7413 51.1567 35.3802 51.4065C33.8807 51.6817 32.3527 51.4845 30.9691 50.9199V50.9199ZM36.0876 30.512C37.683 31.4821 40.1138 33.7442 38.3976 36.1492C36.3774 38.2698 33.4688 35.8384 32.0355 34.7388C30.7064 33.8866 29.2132 36.0784 30.4463 37.0735C40.8034 44.7445 45.0065 30.7657 36.8945 29.3714C36.0013 29.2177 35.6696 30.2119 36.0876 30.512ZM17.5275 21.5886C17.7038 19.3998 21.0361 18.9028 21.3675 21.0687C21.6644 23.0089 21.3149 24.7912 20.4413 26.538C19.6066 28.2069 17.5086 27.4283 17.35 25.9087C17.1373 23.8717 17.4179 22.9502 17.5275 21.5886ZM42.8931 20.6196C43.3577 20.0109 44.0285 19.5954 44.8321 19.8302C47.343 20.5642 46.603 24.1304 45.7211 25.8662C45.242 26.8088 43.6932 27.0478 42.9932 26.2179C41.8524 24.8644 41.3061 22.1614 42.7564 20.8282C42.7957 20.7593 42.8394 20.6898 42.8931 20.6196ZM20.406 12.0111L20.8026 11.9417C22.0296 11.7294 23.5552 11.5254 24.4232 12.5122C24.8836 13.0355 25.042 14.0082 24.4232 14.5091C23.3348 15.3904 22.1314 15.0488 20.827 15.1234C19.7521 15.1852 18.719 15.3631 17.6836 15.6592C15.412 16.3087 13.5611 17.4944 11.621 18.7963C11.3665 18.9671 11.1066 18.6414 11.2281 18.4032C12.348 16.2087 14.5184 14.4061 16.6923 13.3073C17.8526 12.7208 19.1223 12.2343 20.406 12.0111ZM40.6042 11.0281L40.9078 11.0902C44.2114 11.7811 48.5036 13.161 50.0681 16.4073C50.1277 16.8663 50.0647 16.9647 50.0135 17.0289L49.9964 17.0503C49.9542 17.1052 49.9205 17.1809 49.7216 17.2434C49.6665 17.2302 49.6107 17.2163 49.5544 17.2015C48.8373 17.0135 48.2699 16.7545 47.7206 16.4858L47.1251 16.1922C46.4341 15.8533 45.737 15.5267 44.9983 15.2856C43.4218 14.7712 41.8002 14.4088 40.1535 14.2153C39.7966 14.1734 39.453 14.0529 39.1818 13.8464C38.9245 13.6504 38.7278 13.379 38.6382 13.0182C38.522 12.5513 38.5554 12.1978 38.8058 11.7766C38.9941 11.4603 39.2635 11.2411 39.5729 11.1152C39.8882 10.9868 40.2473 10.9566 40.6042 11.0281Z" fill="black"/>
</svg>
