<svg width="62" height="62" viewBox="0 0 62 62" fill="none" xmlns="http://www.w3.org/2000/svg">
<path fill-rule="evenodd" clip-rule="evenodd" d="M21.2871 48.8541C21.2871 44.9669 27.0058 44.1304 31.9418 44.1304C36.8779 44.1304 42.4246 45.2698 42.4246 48.8541C42.4246 52.4383 36.6087 53.0105 32.9874 53.0105C29.3661 53.0105 21.2871 52.7412 21.2871 48.8541Z" fill="white"/>
<path fill-rule="evenodd" clip-rule="evenodd" d="M21.3382 31.0684C25.7721 31.0684 29.3664 28.0404 29.3664 24.3052C29.3664 20.57 25.7721 17.542 21.3382 17.542C16.9044 17.542 13.3101 20.57 13.3101 24.3052C13.3101 28.0404 16.9044 31.0684 21.3382 31.0684Z" fill="white"/>
<path fill-rule="evenodd" clip-rule="evenodd" d="M44.6832 31.0684C48.3587 31.0684 51.3382 28.0404 51.3382 24.3052C51.3382 20.57 48.3587 17.542 44.6832 17.542C41.0078 17.542 38.0283 20.57 38.0283 24.3052C38.0283 28.0404 41.0078 31.0684 44.6832 31.0684Z" fill="white"/>
<path fill-rule="evenodd" clip-rule="evenodd" d="M32.0878 43.4819C34.0572 42.776 36.1475 43.0414 38.1343 43.7746L38.3124 43.8414C40.1374 44.5375 42.3676 45.7463 43.1143 47.6343C43.2621 48.0086 43.3314 48.3916 43.3407 48.7726C43.5847 48.7967 43.8267 48.8284 44.0664 48.8705C44.56 48.9573 44.5367 49.7419 44.0664 49.845C43.7686 49.9103 43.4652 49.9581 43.159 49.9938C42.8759 50.8743 42.2901 51.6734 41.5502 52.2339C39.8183 53.5458 37.4314 53.7928 35.3377 53.9934C33.0225 54.2152 30.6958 54.1611 28.3892 53.8805L27.5772 53.7767C25.6883 53.5312 23.5822 53.2155 21.9763 52.2045C20.4647 51.2532 19.4307 49.4164 20.0707 47.6324C20.7258 45.8055 22.9716 45.0302 24.6385 44.4438C27.0336 43.6009 29.5824 43.2703 32.0878 43.4819ZM28.7462 49.6043C28.7696 50.1382 28.7897 50.6725 28.8108 51.2067C28.8171 51.3705 28.77 51.5185 28.6897 51.6466C29.8352 51.7812 30.9909 51.8446 32.1433 51.8438C31.9325 51.2065 31.9213 50.4748 31.9093 49.7945C30.854 49.7429 29.8 49.6816 28.7462 49.6043ZM32.9876 49.8444L33.0795 50.1895C33.2218 50.7304 33.3513 51.2867 33.3321 51.8205C33.8694 51.8002 34.405 51.7681 34.9376 51.7218L35.6171 51.664C35.7715 51.6508 35.9279 51.6369 36.0854 51.6221C36.1202 51.0687 36.1853 50.508 36.2432 49.9547C35.1577 49.9253 34.0724 49.8902 32.9876 49.8444ZM37.2934 49.9788C37.3428 50.4677 37.3889 50.9675 37.4083 51.4627C38.2805 51.3268 39.1359 51.1152 39.8666 50.7414C40.2343 50.5533 40.529 50.3258 40.7487 50.0739C40.0105 50.0566 39.2745 50.0192 38.5604 50.0075C38.4196 50.0052 38.2788 50.0023 38.1381 49.9991L37.2934 49.9788ZM22.1445 48.8542C22.2015 49.8744 23.8137 50.6025 24.6438 50.8422C25.4358 51.0711 26.242 51.2566 27.0564 51.4042C27.041 51.3359 27.0334 51.2687 27.0389 51.2068C27.0907 50.631 27.1416 50.0555 27.1959 49.4807L26.7588 49.4459C25.2226 49.3276 23.6251 49.2328 22.1445 48.8542ZM32.2052 44.9671C32.3343 46.2453 32.5135 47.5164 32.7522 48.7785L33.1893 48.7878V48.7878C34.2387 48.8045 35.2883 48.8113 36.3378 48.8126C36.3406 48.761 36.3433 48.7096 36.3452 48.6587C36.3845 47.591 36.3695 46.523 36.3305 45.4557C34.9971 45.1613 33.6015 45.0653 32.2052 44.9671ZM36.8781 45.5897C36.9949 46.6614 37.0923 47.7351 37.181 48.81L38.1007 48.8085C38.2539 48.8081 38.4071 48.8074 38.5604 48.806C39.4217 48.798 40.3067 48.7416 41.1907 48.7179C41.1247 48.2563 40.8531 47.7869 40.3524 47.3598C39.2926 46.4558 38.1171 45.9224 36.8781 45.5897ZM31.3855 44.7217C30.3723 44.8303 29.3666 45.0083 28.3756 45.2574C28.6344 46.008 28.585 46.8669 28.6397 47.6508C28.664 47.9959 28.6838 48.3413 28.702 48.6864C29.7621 48.7124 30.8223 48.7373 31.8824 48.7599C31.8486 47.4891 31.8704 46.2185 31.942 44.9485L31.8264 44.9402V44.9402C31.6549 44.928 31.5017 44.8424 31.3855 44.7217ZM27.704 45.4377C27.2407 45.5702 26.7809 45.7173 26.3257 45.8822L25.8291 46.0617C24.632 46.4981 23.0478 47.1299 22.3805 48.1058C22.2683 48.2698 22.2009 48.4285 22.1677 48.5818C23.8458 48.4269 25.5858 48.583 27.2791 48.6469C27.3022 48.4254 27.3261 48.204 27.3512 47.9827L27.39 47.6508C27.4766 46.9341 27.4758 46.1379 27.704 45.4377ZM36.0876 30.0894C37.6829 31.0595 40.1138 33.3216 38.3975 35.7266C36.3774 37.8472 33.4688 35.4158 32.0354 34.3162C30.7064 33.464 29.2132 35.6558 30.4462 36.6509C40.8034 44.3219 45.0065 30.3431 36.8945 28.9488C36.0013 28.7951 35.6696 29.7893 36.0876 30.0894ZM16.5331 18.3268C18.8002 14.3852 24.4092 14.3397 27.6181 17.3498C30.6819 20.2239 31.061 25.1275 28.6138 28.4888C26.0057 32.0712 20.9393 33.0622 16.8308 31.7854C12.9794 30.5885 10.9092 26.4082 12.2294 22.5781C12.9435 20.5065 14.5871 19.0742 16.5331 18.3268ZM14.4207 11.7247C16.3367 10.028 19.8182 8.38942 22.4018 9.22446C23.8872 9.70444 24.5347 12.0988 22.8765 12.8578C20.9563 13.7366 18.7424 13.379 16.788 14.2899C15.9672 14.6727 15.1952 15.1509 14.6237 15.8524C14.1735 16.4053 13.7155 17.1328 13.0644 17.4515C12.8932 17.5354 12.6615 17.5375 12.5244 17.382C11.097 15.7668 13.1744 12.8282 14.4207 11.7247ZM41.7891 9.14024C42.9733 8.80779 44.2869 8.81455 45.4899 9.02336C46.6924 9.23218 47.9133 9.73075 48.8951 10.458L49.0091 10.5432C50.0809 11.3511 51.3598 12.5267 51.2913 13.958C51.2341 15.1532 49.9772 15.9616 48.8922 15.3351C48.0076 14.8243 47.5914 13.8009 46.8424 13.1195C46.2245 12.5571 45.4986 12.1137 44.7241 11.803C43.8638 11.4579 43.002 11.2962 42.0788 11.2808C41.3679 11.269 40.6527 11.5023 39.9551 11.5769C40.0126 11.6948 39.4612 11.6399 39.1451 11.5353C38.911 11.4355 38.9098 11.1394 38.9909 10.9473C39.3933 9.99558 40.8576 9.40147 41.7891 9.14024ZM43.0782 15.8282C45.0618 15.4343 47.2672 15.8656 48.9273 17.0289C51.9041 19.1147 53.2395 23.4284 51.8561 26.8022C50.4833 30.1506 46.731 32.2808 43.153 31.641C39.5004 30.9879 36.6749 27.3083 37.0689 23.6013C37.2364 22.0231 37.9245 20.6007 38.9426 19.5256C38.9504 19.4886 38.9591 19.4512 38.9737 19.4127C39.6895 17.507 41.0458 16.2321 43.0782 15.8282ZM24.9272 18.8588C22.6529 17.4893 19.3092 18.2539 17.3556 19.9073C16.9677 20.2358 16.53 20.1396 16.2919 19.853C14.966 20.9237 14.0298 22.4215 13.8794 24.2455C13.61 27.517 15.9388 29.6685 19.0766 29.916C22.2832 30.169 25.6018 29.2737 27.1121 26.2001C28.4163 23.5466 27.4591 20.3833 24.9272 18.8588ZM46.4574 19.0004C44.6766 18.3019 42.1226 18.7146 40.5677 19.91C39.384 21.4368 38.8078 23.5317 39.2629 25.2475C39.9204 27.7253 42.2971 29.6556 44.9082 29.381C47.3247 29.127 49.5079 27.1919 49.7673 24.7349C50.0169 22.3718 48.7205 19.888 46.4574 19.0004ZM44.9465 22.7084C45.3524 22.4188 45.8366 22.7449 45.9851 23.1311L46.0701 23.3061C46.115 23.3997 46.1612 23.4965 46.1628 23.5001L46.1788 23.5468C46.2004 23.5872 46.2262 23.6248 46.2507 23.663C46.2697 23.6761 46.4275 23.8737 46.4486 23.8995C46.7032 24.214 46.8384 24.5017 46.8304 24.9155C46.815 25.7336 46.0519 26.3098 45.2607 26.1117C44.4097 25.8987 44.0474 25.0182 44.1249 24.2098C44.1864 23.5698 44.4194 23.0844 44.9465 22.7084ZM21.8425 22.8646C22.218 22.5231 22.7973 22.4943 23.1678 22.8646C23.3713 23.068 23.4537 23.2945 23.5997 23.531L23.6688 23.6397C23.8208 23.873 23.9797 24.0971 24.0205 24.3834C24.1173 25.0574 23.9083 25.6847 23.2445 25.9651C22.5843 26.2437 21.9729 25.9588 21.5709 25.4165C21.0951 24.774 21.2396 23.4129 21.8425 22.8646Z" fill="black"/>
</svg>
