<svg width="62" height="62" viewBox="0 0 62 62" fill="none" xmlns="http://www.w3.org/2000/svg">
<path fill-rule="evenodd" clip-rule="evenodd" d="M23.5262 53.3489L21.2939 44.8237L21.654 44.8794C25.1951 45.4362 26.9656 46.0079 26.9656 46.5943L26.9642 46.6343C26.9174 47.2948 25.7714 49.533 23.5262 53.3489ZM44.0754 46.6662L43.2848 52.7618L39.1671 48.2466L44.0754 46.6662Z" fill="white"/>
<path fill-rule="evenodd" clip-rule="evenodd" d="M20.8099 31.4911C25.4188 31.4911 29.155 28.0847 29.155 23.8825C29.155 19.6804 25.4188 16.2739 20.8099 16.2739C16.2011 16.2739 12.4648 19.6804 12.4648 23.8825C12.4648 28.0847 16.2011 31.4911 20.8099 31.4911Z" fill="white"/>
<path fill-rule="evenodd" clip-rule="evenodd" d="M33.1691 23.6712C37.3696 23.6712 40.7747 20.312 40.7747 16.1682C40.7747 12.0245 37.3696 8.66528 33.1691 8.66528C28.9686 8.66528 25.5635 12.0245 25.5635 16.1682C25.5635 20.312 28.9686 23.6712 33.1691 23.6712Z" fill="white"/>
<path fill-rule="evenodd" clip-rule="evenodd" d="M43.5213 30.0118C46.905 30.0118 49.6481 26.9838 49.6481 23.2486C49.6481 19.5133 46.905 17.02 43.5213 17.02C40.1376 17.02 37.3945 19.5133 37.3945 23.2486C37.3945 26.9838 40.1376 30.0118 43.5213 30.0118Z" fill="white"/>
<path fill-rule="evenodd" clip-rule="evenodd" d="M21.3724 44.5255C22.9047 44.2296 24.811 44.8742 26.3391 45.1566L26.453 45.1771C28.306 45.5009 30.155 45.8923 32.0285 46.0834C33.8171 46.2662 35.6438 46.2989 37.4326 46.0933C38.2916 45.9944 39.1432 45.8262 39.9777 45.6004C40.3347 45.5038 40.6888 45.3961 41.0387 45.2764L41.0782 45.2613C41.3353 45.1551 42.0303 44.7551 42.0221 44.978C42.2176 44.7525 42.4867 44.5925 42.7823 44.5147C43.1993 44.405 43.7347 44.508 44.0837 44.803C44.5377 44.4433 45.2188 44.7013 45.5233 45.1321C46.0454 45.8708 45.8755 46.7366 45.808 47.5935L45.8023 47.6691C45.745 48.4769 45.6573 49.2792 45.5491 50.0809L45.5015 50.4245C45.3331 51.6104 45.2869 53.5662 43.8504 53.9549C42.7144 54.2626 41.6748 53.0932 40.9424 52.1652L40.5416 51.6512C40.0669 51.0486 39.6359 50.4283 39.2885 49.7433C39.1303 49.4316 38.9773 49.1122 38.8449 48.7887C38.8282 48.7479 38.8159 48.7113 38.8033 48.6745C36.6965 48.9582 34.5399 48.9176 32.4276 48.639C31.0903 48.4625 29.7728 48.2076 28.4752 47.8653L27.8898 48.9239C27.2047 50.1584 26.5099 51.3891 25.7795 52.5957L25.7228 52.6876C25.0391 53.7758 23.8942 54.8657 22.5407 54.0506C21.3295 53.3211 21.278 51.6615 21.1504 50.4232C21.0652 49.596 20.9961 48.7632 20.9629 47.9314L20.9509 47.5751C20.9292 46.7686 20.798 45.8338 21.1079 45.0795C21.1529 44.9696 21.3107 44.885 21.4058 45.0006C22.0533 45.7881 22.2492 47.0087 22.5289 47.9752C22.8403 49.0505 23.2914 50.225 23.4532 51.3405L23.4984 51.2619V51.2619C23.6578 50.9589 23.8204 50.6576 23.9838 50.3567L24.474 49.454C24.9137 48.639 25.3614 47.8291 25.813 47.0211C25.2973 46.8273 24.7863 46.619 24.2773 46.4073L23.1223 45.9242C22.4625 45.6454 21.7898 45.3307 21.2938 44.8235C21.2059 44.7337 21.2366 44.5515 21.3724 44.5255ZM43.2847 47.503C42.1466 47.9659 40.9694 48.2998 39.7709 48.5213C39.8482 48.6006 39.9253 48.6798 39.9971 48.7631C40.2792 49.0896 40.5784 49.4032 40.8794 49.7134L41.06 49.8991C41.521 50.3723 42.2135 51.1516 42.9202 51.6045L42.9584 51.4C42.9647 51.3648 42.9696 51.3342 42.9722 51.3105L43.0475 50.6382C43.0597 50.5261 43.0715 50.4139 43.0827 50.3017C43.1435 49.6953 43.1919 49.0877 43.2426 48.4805C43.2692 48.1605 43.2756 47.8319 43.2847 47.503ZM29.8163 8.43121C32.5269 7.27301 35.7438 7.81986 38.0785 9.56933C40.4676 11.3597 41.5123 14.2704 41.6504 17.1743C43.5398 15.5605 46.2607 16.7821 47.852 18.2943C49.6883 20.0394 50.6171 22.673 50.189 25.1725C49.7625 27.6634 47.9606 29.8611 45.5228 30.6019C44.3564 30.9563 43.0564 30.9643 41.8831 30.6346C41.4846 30.5224 40.9964 30.3487 40.5453 30.1067C40.5711 30.2102 40.5973 30.314 40.6218 30.4173C41.2072 32.8963 41.5391 35.6827 40.6607 38.1342C39.2488 42.0735 34.2339 44.2788 31.1029 40.7822C29.8735 39.4095 28.918 37.2596 28.9924 35.3881C29.0314 34.4047 29.5883 33.267 30.7381 33.3336C31.6296 33.385 32.0523 34.1314 31.8241 34.9213L31.8102 34.9669C31.3269 36.477 32.1521 38.6589 33.3476 39.6889C35.181 41.2683 37.697 39.8939 38.6995 38.0418C39.8678 35.8833 39.7256 33.1159 39.3521 30.7676C38.9853 28.4617 38.1675 26.3527 37.2994 24.2191C37.2073 24.2358 37.1139 24.2512 37.0184 24.2641C35.2919 24.4985 31.7792 24.5868 29.8716 23.3356C30.0766 25.2667 29.6745 27.2547 28.5778 28.8899C27.3559 30.7122 25.5149 31.6766 23.3722 31.972C21.2912 32.2595 18.879 32.3176 16.8244 31.8243C12.4493 30.7739 10.9066 25.3703 12.2297 21.4696C13.0125 19.1623 15.1966 17.0871 17.6243 16.5629C18.875 15.7399 20.5543 15.4962 21.9977 15.6085C24.1535 15.7765 26.2767 16.7083 27.7205 18.3448C28.2721 18.97 28.7257 19.6778 29.0754 20.4353C29.1928 20.3427 29.3297 20.2732 29.4844 20.2368C29.7259 20.1802 29.9371 20.1675 30.1733 20.2508C30.291 20.2924 30.4607 20.4395 30.5627 20.535L30.7958 20.8089C31.0817 21.1422 31.3534 21.4216 31.8622 21.6288C33.2807 22.2064 35.2045 22.3317 36.7114 22.2136C40.5565 21.9126 40.0723 16.8176 39.1252 14.2C38.0033 11.0991 34.7878 9.17009 31.5166 9.72087C30.111 9.95737 28.7701 10.7058 27.7412 11.6837C26.5928 12.7755 26.1009 14.0943 25.412 15.4764C25.3712 15.5582 25.2305 15.5404 25.213 15.4502C24.6468 12.5361 27.3316 9.49303 29.8163 8.43121ZM9.33688 31.9254C9.22005 31.7883 9.37343 31.5471 9.54075 31.6608C10.7663 32.4938 12.1292 33.0948 13.6108 33.2574C14.3067 33.3335 15.0081 33.3387 15.7013 33.232C16.2918 33.1407 16.824 32.9606 17.4134 33.1234C17.7272 33.21 17.7842 33.5742 17.5926 33.8024C16.7021 34.8628 14.5098 34.5796 13.3144 34.2953C11.7686 33.928 10.3672 33.1365 9.33688 31.9254ZM50.5787 29.9894C51.1804 29.6164 51.8966 30.3551 51.5408 30.9517C50.6273 32.4825 47.9795 32.6072 46.4434 32.2407C46.3232 32.2124 46.3506 32.0237 46.4723 32.0271C47.3552 32.0488 48.1532 31.8791 48.9137 31.4184C49.5636 31.0246 49.9513 30.3783 50.5787 29.9894ZM21.2204 17.7524L21.0998 17.7534C19.6953 17.7761 18.4091 18.3118 17.0557 18.595C16.9435 18.6187 16.8309 18.6067 16.7293 18.5695C15.081 19.6695 13.9448 21.3992 13.7906 23.6753C13.6837 25.2517 14.0684 26.9694 15.0041 28.2631C16.0691 29.7355 17.7848 29.9627 19.4744 30.0066L19.6461 30.0105C22.84 30.0728 26.3538 29.8841 27.4924 26.3119C28.3349 23.6681 27.4351 20.4585 25.0881 18.8749C23.9483 18.1058 22.5869 17.7511 21.2204 17.7524ZM46.9526 19.6484L46.8589 19.539C45.6062 18.1011 43.62 16.7915 41.6617 17.5157L41.6674 17.7578C41.6681 17.7982 41.6685 17.8386 41.6684 17.879C41.6625 20.6557 40.5869 23.2471 37.9433 24.0618C38.6526 25.074 39.2224 26.1971 39.6787 27.3627C39.8397 27.2574 40.0355 27.1907 40.2628 27.1676C41.1935 27.0734 41.7267 27.9477 42.5338 28.2738C43.2893 28.5794 44.1462 28.6583 44.9437 28.5004C46.6883 28.1553 47.9124 26.6502 48.3413 24.9801C48.8262 23.0922 48.1856 21.1129 46.9526 19.6484ZM20.3947 21.9853C20.9765 21.0022 22.4117 21.1445 22.987 22.0112L23.0146 22.0544L23.0208 22.0464C23.9791 23.2887 23.516 25.2509 22.1246 25.9494C21.0084 26.5093 19.5889 26.3624 18.847 25.2725C18.6807 25.0281 18.574 24.7407 18.5349 24.4497C18.5083 24.2516 18.5235 24.0538 18.5679 23.8571L18.5567 23.9031C18.5787 23.8038 18.6135 23.6481 18.6226 23.611C18.7206 23.2103 18.9558 22.7804 19.2501 22.4903C19.5532 22.1914 19.9743 22.0096 20.3947 21.9853ZM44.3035 20.9641C44.8187 20.9641 45.2759 21.1797 45.6482 21.5214C46.1776 22.0077 46.2514 22.7077 46.1371 23.372C46.102 23.5747 46.0538 23.7706 46.0033 23.9701L45.9599 24.1506C45.9522 24.1805 45.9441 24.2103 45.9349 24.2396C45.9032 24.3632 45.8527 24.4767 45.7927 24.5854C45.5723 25.406 44.6802 25.8135 43.8936 25.6345C43.5235 25.5502 43.1544 25.2429 42.9659 24.9208C42.9038 24.8147 42.8603 24.709 42.8295 24.6029L42.6763 24.2396V24.2396C42.6476 24.1525 42.6296 24.0591 42.6066 23.9701C42.5552 23.7708 42.5058 23.5745 42.4701 23.372C42.3486 22.6855 42.4454 22.035 42.959 21.5214C43.3037 21.1763 43.8161 20.9641 44.3035 20.9641ZM32.9536 13.8451C33.8479 13.725 34.7587 14.1418 35.2212 14.932C35.623 15.6189 35.6213 16.5432 35.2212 17.2301L35.1874 17.2882V17.2882C34.4502 18.5533 32.7312 18.7156 31.697 17.7381L31.6469 17.6908V17.6908C30.9819 17.0625 30.8321 16.0203 31.1764 15.2041C31.4912 14.4576 32.1512 13.9531 32.9536 13.8451Z" fill="black"/>
</svg>
