<svg width="83" height="30" viewBox="0 0 83 30" fill="none" xmlns="http://www.w3.org/2000/svg">
<path fill-rule="evenodd" clip-rule="evenodd" d="M71.3681 3.17017C76.3269 3.17017 79.1568 4.23698 80.1938 4.32009L80.225 4.32232C80.6563 4.34991 81.0432 4.38599 81.4492 4.54303C82.9419 5.11815 83.1851 6.68435 82.3139 7.6714C82.2528 9.71383 82.5214 12.1003 82.0606 14.1493C81.4923 22.7874 77.4315 24.2451 75.1233 24.7772C73.9644 25.0443 72.591 25.1507 71.36 24.8686C69.2601 24.7903 67.184 24.1326 65.4077 22.9875C62.934 21.3914 61.0966 18.9381 60.5004 16.0266C60.2178 14.6388 60.0857 13.1943 60.2395 11.7836L60.2623 11.5892C59.4582 11.2045 58.5264 11.1317 57.5659 11.0977C57.1071 11.0814 56.6548 11.0667 56.2155 11.0863C55.7861 11.1342 55.3617 11.1981 54.9361 11.2851C54.4714 11.4254 54.0324 11.6569 53.6271 12.0237L53.5992 12.5589C53.5231 13.8959 53.3476 15.2369 53.077 16.5487C52.6774 18.4841 52.0346 20.3326 50.6666 21.7054C50.2036 22.3973 49.6306 23.0149 48.935 23.5497C46.4081 25.4959 42.9751 26.2105 39.8243 25.9414C33.4278 25.3954 29.7305 20.3156 28.8784 18.1444L28.8275 18.0128C28.212 16.3986 27.7215 14.3042 25.7765 13.9574L25.3628 13.8831C24.4753 13.7164 23.6563 13.4844 23.1359 12.6181C22.9078 12.2399 22.7904 11.8169 22.7617 11.3857C22.458 11.4091 22.1549 11.4313 21.8527 11.453C19.4425 11.9629 4.98596 12.3953 3.83205 12.3953C3.83205 12.3953 1.61395 13.3292 0.677466 12.6056C0.0283658 12.1024 -0.185182 11.4318 0.17214 10.672C0.711287 9.52889 3.19865 8.8413 4.30313 8.62358C4.30313 8.62358 22.1267 8.77167 23.4095 8.52835C24.2032 7.7096 25.623 7.82165 26.8093 7.6922C27.7915 6.99165 29.1653 6.52243 30.2506 6.20834C30.4718 6.12451 30.6908 6.04344 30.9037 5.96704C32.8933 5.25822 34.9614 4.8828 37.0609 4.68119C39.226 4.47533 41.3974 4.5685 43.5498 4.86349C44.4568 4.98658 45.3554 5.14574 46.2477 5.35393C47.8453 5.56463 49.4337 5.91168 51.0319 6.32337L51.3517 6.40656C53.0347 6.84798 54.7642 7.22977 56.5064 6.93053C57.9248 6.68851 59.2888 6.14244 60.5965 5.55194L60.7668 5.47469C63.6423 4.16124 68.1329 3.17017 71.3681 3.17017ZM46.0747 7.97254C45.0137 7.7391 44.5606 9.37555 45.625 9.60963C46.3787 9.77539 47.0175 10.1556 47.449 10.7998L47.4945 10.8698C48.0736 11.7917 49.538 10.9407 48.9549 10.0128C48.2988 8.96872 47.2793 8.2374 46.0747 7.97254ZM77.1493 6.95791C76.7752 6.69433 76.2092 6.89 75.9921 7.26245C75.7531 7.67258 75.9097 8.12923 76.26 8.39753L76.2957 8.42373C76.617 8.65028 76.93 9.05638 76.9693 9.47247L76.9727 9.52453C77.0148 10.6134 78.7065 10.619 78.6642 9.52453C78.623 8.45386 78.0032 7.55935 77.1493 6.95791Z" fill="black"/>
</svg>
