<svg width="100" height="141" viewBox="0 0 100 141" fill="none" xmlns="http://www.w3.org/2000/svg">
<path fill-rule="evenodd" clip-rule="evenodd" d="M54.8734 22.2284C86.6048 23.2355 88.5187 38.3453 88.5187 63.6851C88.5187 89.0249 72.0578 104.993 65.9967 107.781C59.9355 110.569 43.9756 122.545 29.5728 117.026C15.1699 111.507 19.3408 88.1905 19.3408 78.172C19.3408 68.1534 23.142 21.2213 54.8734 22.2284Z" fill="#D08B5B"/>
<path fill-rule="evenodd" clip-rule="evenodd" d="M24.2036 62.4425C30.7645 35.6226 42.7417 22.5373 60.1351 23.1866C86.2253 24.1606 85.9502 50.8195 84.3134 48.3888C83.244 46.8007 75.7569 41.253 61.852 31.7456L60.9926 31.1586L24.2036 62.4425Z" fill="#9FD8E5"/>
<path fill-rule="evenodd" clip-rule="evenodd" d="M67.7457 99.4586C61.9186 102.72 55.2463 102.847 48.9784 100.794C45.2194 99.5666 41.7727 97.6685 38.5469 95.3986C35.7409 93.4225 33.2363 91.2308 30.7549 88.9036C28.7121 84.3872 26.8929 79.8791 26.0409 74.9652C25.2778 70.5544 25.1766 65.9744 26.062 61.572C32.6104 56.172 39.1184 50.7276 45.6179 45.2665C48.9278 42.4849 52.2461 39.7186 55.6045 36.9962C57.3101 35.6139 58.9989 34.2106 60.698 32.822C60.9784 32.5937 61.2568 32.3655 61.5372 32.1372C65.0451 34.7115 68.8062 36.9182 72.2892 39.5345C74.1126 40.9061 75.8856 42.3666 77.5743 43.9029C78.4597 44.7083 79.3243 45.5389 80.1676 46.3907C80.939 47.1687 81.6832 48.2844 82.7775 48.5784C82.9272 48.6183 83.0683 48.6268 83.2011 48.6077C84.6642 61.4494 85.7035 75.3161 79.4358 86.9784C76.7014 92.0656 72.8246 96.6139 67.7457 99.4586ZM29.8381 104.178C29.0357 103.441 30.2315 102.249 31.0305 102.982C36.0493 107.591 42.6105 110.034 49.2379 111.165C50.3072 111.348 49.8512 112.977 48.7895 112.795C41.8701 111.615 35.0694 108.982 29.8381 104.178ZM23.8157 111.249C22.8577 110.734 23.7105 109.275 24.6668 109.789C28.5769 111.892 32.8657 112.984 37.2158 113.722C38.2857 113.903 37.8293 115.532 36.7676 115.352C32.2697 114.589 27.8561 113.422 23.8157 111.249ZM39.7296 40.0187C42.9742 37.0997 46.4612 34.3224 50.1444 31.9787C53.8715 29.6074 57.9425 28.1892 62.3424 28.1554C62.0346 28.4027 61.7415 28.6774 61.4443 28.9329C60.6138 29.6454 59.7851 30.3619 58.9566 31.0762C57.2995 32.5071 55.6382 33.9356 54.0023 35.3899C50.7809 38.2558 47.549 41.1069 44.334 43.9792C38.1548 49.4996 32.1086 55.1404 26.1927 60.9443C26.2246 60.8027 26.2583 60.6611 26.2918 60.5197C28.2504 52.3191 33.5778 45.5537 39.7296 40.0187ZM65.1632 28.5126C65.1843 28.4492 65.1992 28.3877 65.2077 28.3287C73.6511 29.4319 80.7031 35.6602 83.0345 43.8608C82.8322 44.144 82.7204 44.4801 82.7626 44.837C82.7837 45.0169 82.8047 45.1987 82.8258 45.3783C82.537 45.0911 82.2397 44.8225 81.987 44.5667C81.1456 43.7129 80.2835 42.8821 79.3979 42.0726C77.5869 40.4179 75.7066 38.8708 73.7246 37.4273C70.2779 34.9165 66.5462 32.6085 62.4372 31.4038C62.7071 31.1819 62.9772 30.96 63.2491 30.7402C64.0606 30.0785 64.8134 29.5334 65.1632 28.5126ZM80.3004 19.7436C75.1163 14.0647 67.9376 9.90528 60.3777 8.45965C53.159 7.07742 45.6853 7.98834 38.8655 10.6746C24.5947 16.2965 13.3347 28.6586 8.06205 42.9837C4.98827 51.3299 3.98054 60.4793 4.90415 69.3137C5.82313 78.1078 8.46472 87.1897 13.2715 94.6715C13.7121 95.3565 14.1949 96.0136 14.7008 96.6498C14.4753 99.2325 13.6151 101.764 12.2616 103.967C12.1889 104.085 12.1122 104.2 12.0363 104.317C10.6503 105.357 9.21272 106.333 7.80928 107.341C6.59305 108.215 5.38925 109.111 4.24555 110.078C3.16593 110.991 1.91217 112.008 1.18125 113.241C0.582305 114.25 0.337751 115.623 1.15532 116.586C2.14049 117.746 3.80978 117.337 5.14428 117.337C5.25855 117.337 5.3726 117.339 5.48665 117.341C5.88743 117.593 6.30022 117.822 6.70015 118.034C10.7416 120.182 14.7978 122.306 18.8582 124.419C26.9456 128.631 34.999 133.013 43.2524 136.891C47.077 138.689 51.1711 140.262 55.4548 140.256C59.4733 140.249 63.1055 138.649 66.2426 136.217C69.8181 133.446 72.8078 129.927 75.7085 126.478C76.868 125.097 78.0043 123.701 79.1196 122.284C81.2615 121.568 83.3866 121.359 85.2967 122.741C86.8293 123.851 88.849 122.342 88.8848 120.676C88.8975 120.085 88.8724 119.501 88.8089 118.926C88.4255 115.375 86.6923 112.163 84.7401 109.183C83.6735 107.553 82.5499 105.953 81.4196 104.368C81.154 103.994 80.8926 103.62 80.6396 103.239C85.1786 96.5399 88.7794 89.1109 90.9931 81.3478C93.3186 73.1793 94.1092 64.7084 93.5906 56.2438C92.7935 43.2712 89.2435 29.5418 80.3004 19.7436Z" fill="black"/>
</svg>
