<svg width="116" height="170" viewBox="0 0 116 170" fill="none" xmlns="http://www.w3.org/2000/svg">
<path fill-rule="evenodd" clip-rule="evenodd" d="M101.167 42.9417C98.9952 35.0824 90.6941 31.653 83.218 31.1088C62.9761 28.9993 42.3725 40.3116 33.3986 58.6549C26.2153 72.5835 25.9903 87.2153 41.4314 95.1682C42.2747 95.6342 43.1553 96.1324 44.0546 96.5847C44.8359 97.313 45.6406 98.0128 46.5189 98.6003C54.9271 104.143 65.2471 106.541 75.248 106.021C90.0142 105.722 95.2856 95.6774 98.5114 82.7958C101.914 69.9712 103.816 56.0555 101.167 42.9417V42.9417Z" fill="#D08B5B"/>
<path fill-rule="evenodd" clip-rule="evenodd" d="M110.859 117.021C110.17 114.931 109.306 112.904 108.498 110.856C108.327 109.836 108.214 108.806 108.184 107.769C108.072 104.061 108.764 100.323 109.54 96.7128C111.117 89.3768 112.788 82.1169 113.627 74.6457C115.126 61.282 114.235 47.3857 108.171 35.1866C102.918 24.6191 94.0147 15.977 82.5143 12.7391C79.1146 11.7815 75.6156 11.2533 72.0926 11.0424C71.6564 10.9728 71.2208 10.9048 70.7874 10.8393C65.887 10.0987 60.9264 9.72967 55.9733 10.049C47.7597 10.5789 39.6228 12.9452 32.7821 17.6253C25.8947 22.3378 21.0011 28.9454 18.7241 37.0048C16.3553 45.3891 16.5562 54.4694 12.4656 62.3299C11.2572 64.6522 9.84656 66.86 8.50131 69.1045C4.93188 73.0971 1.05655 77.5357 0.207362 83.0255C-0.840423 89.8101 3.05346 95.544 6.73862 100.838C10.0696 105.619 14.5896 112.222 11.1617 118.108C9.54466 120.885 6.95366 122.962 5.00778 125.494C2.99021 128.124 1.41537 131.142 0.601599 134.367C-0.92686 140.424 0.479323 146.737 4.56716 151.472C6.69646 153.936 9.43082 155.565 12.3908 156.836C15.4203 158.133 18.3802 159.365 20.8848 161.574C22.0295 162.582 23.0773 163.688 24.0682 164.846C24.9916 166.294 26.0668 167.646 27.279 168.885C28.6135 170.248 31.2277 168.382 30.0028 166.778C29.9122 166.659 29.8236 166.543 29.733 166.425C28.837 165.254 27.9368 164.083 26.9944 162.95C24.1841 158.486 23.1026 153.021 24.5004 147.807C24.863 146.452 25.3732 145.167 26.008 143.954C26.1427 144.307 26.2902 144.655 26.4463 145C27.0534 146.336 27.9054 147.919 28.9888 149.271C29.0309 150.199 29.1703 151.119 29.4399 152.019C31.1096 157.601 36.6922 160.355 41.7266 162.498C42.2199 162.709 42.7069 162.912 43.1855 163.113C44.501 163.664 45.8925 161.785 45.0724 160.652C44.8573 160.355 44.6486 160.05 44.4504 159.742C42.0892 156.077 40.9656 151.693 41.6022 147.327C42.2727 142.709 44.988 138.888 47.6845 135.221C50.3324 131.615 53.1764 127.936 54.3612 123.537C55.6725 118.678 54.4792 113.834 52.4554 109.362C50.6022 105.27 48.1337 101.498 46.0637 97.518C46.7724 98.2267 47.5038 98.9121 48.2573 99.5732C49.1045 100.317 49.975 101.168 50.9792 101.692C51.7217 102.079 52.4655 101.152 51.8775 100.525C51.1046 99.7009 50.1157 99.0643 49.2574 98.329C48.4335 97.6233 47.6334 96.8893 46.8532 96.1354C45.8925 95.2073 44.9786 94.2355 44.0973 93.2344C43.3921 91.4335 42.8111 89.5841 42.338 87.7071C41.695 85.1667 41.1005 82.4635 41.1469 79.8301C41.1932 77.1291 42.5931 75.2375 44.4568 73.4241C45.2461 72.6563 46.043 71.8975 46.8384 71.1373C48.5326 69.8905 50.1306 68.4977 51.6829 67.1087C54.4489 64.6336 57.1242 62.0173 59.6792 59.3245C60.3645 58.6021 61.0442 57.8717 61.7155 57.1328C64.0609 54.72 66.2977 52.2007 68.4061 49.5943C70.5017 48.8293 72.5151 47.8169 74.404 46.6249C73.5818 47.4597 72.7512 48.284 71.9248 49.1146C70.0843 50.966 68.1723 52.8259 66.0386 54.3347C65.8194 54.4913 65.9522 54.8232 66.2222 54.7703C68.9353 54.2271 71.4736 53.3226 73.8432 51.8812C76.2529 50.4144 78.3759 48.4214 80.3576 46.422C81.4792 45.9147 82.5609 45.2617 83.5495 44.6192C83.6022 44.5853 83.6549 44.5494 83.7076 44.5154C82.7336 47.6098 81.3044 51.114 78.2578 52.2172C78.1588 52.2531 78.1651 52.418 78.2831 52.4116C80.8497 52.2607 82.9124 51.1032 84.5408 49.416C85.8504 48.4712 87.1001 47.4701 88.2928 46.3801C89.4481 45.3242 90.5424 44.1918 91.5818 43.0192C90.1292 45.904 88.5021 48.7246 86.8973 51.5134C86.813 51.6614 86.9901 51.8621 87.1419 51.7586C90.5298 49.4591 93.0997 46.4917 95.2016 42.9831C95.5119 42.4666 95.8081 41.9416 96.097 41.4126C95.879 42.2404 95.641 43.063 95.3861 43.8813C94.9246 45.3627 94.4703 46.8474 94.0079 48.3279C93.7587 49.1262 93.4549 49.9063 93.1216 50.6731C92.883 51.2217 92.5705 51.7694 92.5221 52.3711C92.5189 52.411 92.5623 52.4372 92.5971 52.4286C93.9481 52.09 95.206 50.5454 96.1686 49.5886C96.7048 49.0558 97.2069 48.471 97.6688 47.8543C97.7547 51.4065 97.8137 54.9591 97.7357 58.5218C97.5904 65.0652 97.1688 71.6065 96.6289 78.1285C96.1524 83.8944 95.8003 89.9453 92.5916 94.9565C90.1081 98.8347 86.0814 101.519 81.7069 102.819C81.3211 102.935 80.9332 103.038 80.5432 103.131C74.2101 104.638 67.9023 102.931 62.3028 99.9126C60.6205 99.0059 59.1827 101.466 60.806 102.478C66.8819 106.27 74.5832 107.561 81.4602 105.862C81.2433 114.005 85.2466 121.73 89.229 128.637C91.4574 132.503 93.6879 136.343 95.263 140.534C96.5994 144.093 97.508 147.786 97.8137 151.584C98.1763 156.06 97.82 160.562 97.196 165C97.1622 165.241 97.1285 165.484 97.0927 165.725C96.9535 166.678 97.8074 167.477 98.7329 166.989C102.825 164.833 104.59 160.238 105.663 155.99C106.666 152.01 107.347 147.953 107.727 143.867C108.283 145.408 108.734 146.987 109.084 148.597C109.133 148.828 109.179 149.058 109.225 149.288C109.491 150.635 111.523 150.539 111.848 149.288C111.907 149.062 111.964 148.836 112.017 148.608C113.693 141.813 114.144 134.726 113.258 127.779C112.793 124.125 112.015 120.519 110.859 117.021" fill="black"/>
</svg>
