<svg width="140" height="129" viewBox="0 0 140 129" fill="none" xmlns="http://www.w3.org/2000/svg">
<path fill-rule="evenodd" clip-rule="evenodd" d="M95.5884 39.8857C81.7226 28.5878 59.5026 24.9194 44.6601 36.3177C33.1273 47.0148 28.3547 77.4124 30.3957 92.6872C30.9632 102.484 38.4295 113.589 49.3895 110.49C51.2506 110.307 53.0578 109.591 54.936 109.442C57.1827 109.182 59.4465 109.178 61.6888 109.495C66.5749 110.188 70.9062 112.789 75.6484 114.005C84.4479 116.261 94.2661 114.743 101.841 109.662C126.871 93.164 115.533 55.8532 95.5884 39.8857V39.8857Z" fill="#D08B5B"/>
<path fill-rule="evenodd" clip-rule="evenodd" d="M93.7417 114.276C93.9991 114.187 94.2561 114.094 94.5112 113.999C94.528 114.059 94.5554 114.115 94.5873 114.171C94.6231 114.259 94.6589 114.346 94.6988 114.432C94.3786 114.435 94.0579 114.377 93.7417 114.276M93.2275 4.79231C93.1136 4.53679 92.9827 4.29162 92.8351 4.0547C93.1935 4.17115 93.5521 4.33178 93.8768 4.5389C93.6575 4.61287 93.4423 4.69741 93.2275 4.79231M38.458 38.2197C38.4433 38.2171 38.4287 38.215 38.4142 38.2125C38.6022 37.7105 38.9372 37.2367 39.3072 36.8945C39.3736 36.833 39.4455 36.7762 39.5151 36.7174C39.1223 37.1864 38.7661 37.6867 38.458 38.2197M138.672 90.7083C138.487 88.9457 138.25 87.1895 137.945 85.4436C137.652 83.772 137.405 81.984 136.555 80.5003C135.712 79.023 134.867 77.5877 133.863 76.2881C134.007 75.6245 134.196 75.001 134.361 74.498C135.309 71.6025 136.244 67.925 134.272 65.2345C133.815 64.611 133.256 64.1333 132.617 63.7022C132.345 63.5183 131.894 63.3513 131.685 63.0977C131.538 62.9181 131.589 63.0153 131.582 62.9265C131.546 62.4489 132.664 61.4407 132.925 61.0624C133.414 60.3626 133.779 59.5745 134.057 58.7693C135.158 55.5821 134.409 52.0716 133.747 48.8779C133.397 47.1852 133.012 45.488 132.885 43.7592C132.767 42.136 132.988 40.5509 133.119 38.9362C133.246 37.3424 133.212 35.6983 132.531 34.2228C132.198 33.5042 131.694 32.8702 131.08 32.3756C130.482 31.8919 129.735 31.6108 129.152 31.1289C128.569 30.6489 128.736 30.0003 128.888 29.3366C129.096 28.4363 129.36 27.5423 129.385 26.6123C129.432 24.9913 128.772 23.4123 127.741 22.1866C126.678 20.9207 125.16 20.0645 123.52 19.8722C122.77 19.7834 122.032 19.9337 121.286 19.8808C120.548 19.8301 120.388 19.4602 120.248 18.7839C119.928 17.2347 120.059 15.7045 119.298 14.2589C118.623 12.9739 117.423 12.1029 116.097 11.5895C113.667 10.6469 110.84 10.8414 108.276 11.397C106.762 6.9335 102.038 4.0063 97.3891 3.97037C96.6636 2.73608 95.4346 1.81459 94.0328 1.27333C91.7138 0.375088 89.2575 0.899448 86.8417 0.899448H86.8311C86.5885 0.884442 86.346 0.878313 86.1038 0.880426C85.8759 0.867534 85.6482 0.848512 85.4205 0.823362C82.6714 0.497671 79.9518 -0.63094 77.228 0.474634C76.0136 0.96708 75.0481 1.72583 74.4369 2.69381C73.5156 2.94511 72.6068 3.23276 71.7152 3.56669C67.8506 3.66793 64.0221 5.7455 62.068 9.11252C59.3168 8.79972 56.3315 9.33021 54.5119 11.5832C54.038 12.1695 53.671 12.8583 53.4277 13.5896C51.5724 14.1911 49.8557 15.2628 48.7322 16.8771C47.707 18.3502 47.5101 20.2549 48.2035 21.8362C46.5473 23.039 45.253 24.7609 44.6296 26.7941C44.2508 28.0294 44.1945 29.3058 44.4382 30.5217C42.7426 30.8987 41.1207 31.5977 39.6838 32.6466C38.1779 33.7454 36.2971 35.4943 36.198 37.5072C36.1907 37.655 36.1963 37.8027 36.2082 37.95C32.893 37.7165 29.5127 38.2795 27.2718 40.944C25.5893 42.9432 24.8579 45.5176 25.307 47.8615C21.3625 48.6646 17.6328 50.7316 15.0313 53.7877C13.1404 56.009 11.4602 58.8327 11.5612 61.8569C11.5928 62.768 11.8059 63.6853 12.1749 64.5328V64.5347C12.0168 64.8329 11.8542 65.1647 11.6982 65.5177C9.25478 67.2315 7.47966 69.918 6.48037 72.879C5.67313 75.2776 5.16505 78.3931 6.0271 80.8342C6.15802 81.2062 6.32457 81.5571 6.51853 81.8823C6.35598 82.0558 6.20229 82.2292 6.05261 82.4046C4.40588 84.334 2.73828 86.7645 2.85233 89.4212C2.89872 90.4908 3.29485 91.5666 3.94228 92.4498C1.6652 94.7643 -0.168743 97.6852 0.0123532 100.946C0.168361 103.785 1.72233 106.668 4.15711 108.031C3.75044 110.218 4.29436 112.526 5.99337 114.234C6.84109 115.088 7.84017 115.65 8.89871 115.95C9.13483 118.526 11.4157 120.6 13.8381 121.196C14.2894 121.308 14.7406 121.375 15.1894 121.407C17.3693 122.479 19.9688 122.356 22.1929 121.373C22.8486 122.208 23.7024 122.889 24.6975 123.377C25.1002 123.576 25.5262 123.74 25.9709 123.873C29.1121 124.805 32.3337 123.542 35.0805 122.067C35.169 122.02 35.3313 121.961 35.4747 121.895C35.8542 122.32 36.5457 122.741 36.9062 122.948C38.1292 123.652 39.6239 123.979 41.028 123.886C42.6745 123.776 44.1268 123.231 45.4719 122.455C45.6682 122.489 45.8661 122.508 46.0645 122.519C47.3294 122.586 48.4571 122.185 49.4714 121.551C50.1416 121.64 50.8289 121.631 51.5246 121.509C53.0575 121.899 54.5501 121.278 55.7494 120.291C56.2809 119.854 56.7298 119.34 57.2107 118.85C57.7101 118.34 58.0898 118.222 58.6735 117.88C60.0546 117.07 60.221 115.018 59.6222 113.534C59.7361 113.274 59.8017 112.985 59.8017 112.664C59.7972 109.861 58.5093 107.291 56.9282 105.049C56.2217 104.049 55.4545 103.07 54.6131 102.183C53.9364 101.47 52.9858 100.314 51.9844 100.025C51.9232 99.9805 51.8598 99.9359 51.7965 99.8938C51.9907 99.2131 52.1043 98.52 52.0561 97.812C52.0053 97.0848 51.7712 96.3958 51.3962 95.8084C52.6546 93.3631 53.1861 90.6811 52.9331 87.8828C53.9575 86.4264 54.7335 84.8182 55.1338 83.0555C55.3805 81.965 55.522 80.8173 55.5028 79.6991C55.4943 79.1625 55.2983 78.4838 55.2943 77.9282C55.3238 78.1036 55.5515 77.4484 55.64 77.2855C56.656 75.3941 57.961 73.9189 58.1783 71.6891C58.3046 70.3849 57.9968 68.9437 57.2168 67.8742C57.7164 65.9002 57.7101 63.7802 56.9237 61.8973C56.7129 61.3942 56.4707 60.9018 56.1924 60.4347C56.3208 60.0416 56.439 59.6443 56.5906 59.2869C56.6499 59.1453 56.7087 59.0018 56.7677 58.858C57.339 58.3527 57.8705 57.8013 58.3175 57.26C59.3081 56.0619 60.0652 54.6881 60.16 53.1049C60.2064 52.3123 60.0209 51.5536 59.7911 50.8014C59.6897 50.4611 59.6286 50.0828 59.5084 49.751C59.4411 49.5669 59.2786 49.379 59.2219 49.2057C59.209 49.1676 59.1985 49.1359 59.1901 49.1106C59.1985 49.0852 59.205 49.0324 59.205 48.9328C59.2069 48.1741 59.306 47.4322 59.3104 46.7012C60.004 47.4029 60.8389 47.9268 61.7876 48.2335C63.6995 48.8485 65.6941 48.5695 67.3868 47.6205C69.2085 48.8717 71.2554 50.0044 73.4018 50.459C74.677 50.7293 75.9548 50.6175 77.2343 50.7845C78.5056 50.9514 79.7349 51.5073 80.9321 51.9405C83.5971 52.9064 86.2554 53.8974 88.9286 54.8382C91.0874 55.5969 93.4233 56.1992 95.6835 55.7723C96.3181 56.7528 97.1424 57.5815 98.1986 58.1902C98.9553 58.6234 99.7859 58.917 100.644 59.063C101.403 59.192 102.293 59.1412 102.908 59.6633C103.509 60.1705 103.884 60.9269 104.424 61.4978C105.025 62.1361 105.767 62.6898 106.545 63.0872C107.169 63.4063 107.806 63.6365 108.453 63.7867C108.396 65.2303 108.341 66.6717 108.324 68.1173C108.293 71.258 108.305 74.3984 108.263 77.5393C108.221 80.6692 108.122 83.7995 107.958 86.9254C107.801 89.8589 107.582 92.8028 106.884 95.6647C104.569 105.161 95.8984 111.96 86.1921 112.306C83.3104 112.41 80.4578 112.004 77.7023 111.154C74.848 110.273 72.299 108.46 69.3728 107.902C68.6075 107.758 67.8865 108.53 68.325 109.271C69.0799 110.546 69.9968 111.324 71.2512 112.091C72.5648 112.892 74.0277 113.486 75.4718 114.006C78.1282 114.961 80.9387 115.515 83.7573 115.669C85.9075 115.787 88.0663 115.639 90.1724 115.234C90.3202 115.688 90.5817 116.13 90.7796 116.55C90.8091 116.612 90.9084 116.569 90.8895 116.506C90.8576 116.4 90.8367 116.307 90.8283 116.231C91.5365 117.157 92.6306 117.797 93.7545 118.108C94.547 118.328 95.3884 118.395 96.2043 118.302C96.4678 118.273 96.7185 118.228 96.9674 118.174C97.7979 118.903 98.8604 119.389 99.9272 119.632C99.744 120.748 100.294 121.965 101.57 122.282C102.105 122.415 102.619 122.417 103.134 122.369C103.549 122.563 103.996 122.715 104.471 122.819C105.088 122.954 105.826 122.781 106.292 122.333C106.547 122.513 106.785 122.637 107.021 122.922C107.993 124.098 110.089 123.161 110.182 121.802C110.489 121.802 110.799 121.807 111.109 121.817C111.183 121.851 111.257 121.885 111.333 121.921C112.688 122.552 114.092 123.104 115.591 122.608C115.867 122.517 116.12 122.401 116.35 122.265C117.406 122.36 118.448 122.362 119.519 122.016C120.152 121.811 120.746 121.485 121.241 121.058C122.894 121.545 124.638 121.764 126.282 121.162C127.513 120.712 128.504 120.002 129.202 119.065C130.269 119.103 131.352 118.846 132.328 118.336C133.998 117.47 135.168 115.823 135.984 114.173C137.78 110.531 138.843 106.619 139.26 102.584C139.671 98.6109 139.085 94.6587 138.672 90.7083" fill="black"/>
</svg>
